<svg width="213" height="189" viewBox="0 0 213 189" fill="none" xmlns="http://www.w3.org/2000/svg">
<path d="M66.8857 75.3644C66.6047 75.0427 66.1631 72.7913 65.9222 70.3791C65.6814 67.9267 65.2799 65.7959 65.0792 65.5949C64.8383 65.3939 63.7946 64.9114 62.7508 64.5094C61.1451 63.9465 60.5429 63.3837 59.3787 61.5745C58.0539 59.484 58.0138 59.2829 58.4554 57.7954C58.6962 56.9511 59.1378 56.147 59.4188 56.0666C60.2217 55.745 63.1523 56.9913 65.1595 58.4789C66.404 59.4437 67.4477 59.9262 68.3309 59.9262C69.4148 59.9262 69.8966 60.2478 71.0607 61.655C72.3855 63.2631 72.5059 63.6249 72.5059 65.9969C72.4658 69.8565 71.9841 71.3842 70.0571 73.5552C67.9696 75.887 67.4879 76.1282 66.8857 75.3644Z" fill="#95A39A"/>
<path d="M62.9481 42.2759C62.5065 41.9945 62.5065 41.6327 62.908 40.306C63.6306 37.7731 63.3094 37.4113 60.3387 37.4113H57.7695L57.4885 35.3609C57.2476 33.5518 57.087 33.2703 55.8426 32.6673C55.0798 32.3055 54.4375 31.7828 54.4375 31.4612C54.4375 30.7777 57.5688 26.1543 58.0505 26.1543C58.2512 26.1543 58.5322 26.5161 58.6527 26.9182C59.0541 28.1645 64.4335 29.4108 65.5174 28.5263C65.8787 28.2047 67.6852 27.8831 69.7326 27.7624C73.0244 27.5614 73.2653 27.6016 73.466 28.3655C73.9076 29.9736 73.6667 31.1396 72.6631 32.5065C71.3785 34.1146 70.6559 37.2505 71.3383 38.0546C71.6996 38.4968 71.6194 38.6174 70.977 38.6174C70.4953 38.6174 69.4917 39.4215 68.4881 40.6276C66.9626 42.4367 66.6414 42.6378 65.1561 42.6378C64.2328 42.5976 63.2291 42.477 62.9481 42.2759Z" fill="#95A39A"/>
<path d="M142.59 39.5419L139.82 37.6925L138.334 38.577C136.126 39.8233 133.999 39.6625 131.55 38.0946C129.864 37.0091 129.543 36.6472 129.663 35.803C129.783 35.0793 129.342 34.3154 127.696 32.6269C125.649 30.4961 125.528 30.4157 124.565 30.9383C123.521 31.461 121.433 31.3002 120.309 30.6167C119.466 30.0539 121.875 28.0437 125.488 26.1943C127.134 25.3098 129.061 24.3449 129.703 23.9831C130.546 23.5409 131.951 23.3398 134.239 23.3398C138.374 23.3398 140.221 24.1439 142.068 26.8376C144.797 30.7775 145.681 31.5012 149.133 32.5465C152.184 33.431 152.425 33.4712 153.107 32.8279C154.031 32.0238 155.998 31.9434 155.998 32.7073C155.998 33.0289 155.717 33.5114 155.396 33.7928C154.994 34.1144 154.793 34.9989 154.793 36.406V38.5368L152.545 38.3358C150.659 38.175 150.056 38.2956 148.812 39.0997C144.958 41.6727 145.64 41.6325 142.59 39.5419Z" fill="#95A39A"/>
<path d="M73.9824 37.8949C72.0956 37.2516 72.0153 37.1712 72.2161 35.9651C72.3365 35.2414 72.9788 33.9147 73.6613 32.99C74.7853 31.4221 74.8656 31.1005 74.6649 28.9697C74.424 26.9997 74.5043 26.6379 75.1065 26.3967C75.5882 26.1956 76.1904 26.4369 76.913 27.1203C77.9166 28.1254 78.1173 28.1656 81.7705 27.9244C83.858 27.8038 85.9856 27.643 86.5477 27.5625C87.3505 27.4419 87.7119 27.6832 88.2337 28.5676C88.6352 29.2511 89.1972 29.7737 89.5184 29.7737C90.4015 29.7737 91.365 31.3819 91.365 32.9096C91.365 33.9147 91.0438 34.558 90.1205 35.4425C88.7155 36.7692 87.8323 36.8496 85.263 35.9651L83.4164 35.3219L80.807 36.9702C77.9969 38.7794 77.0334 38.9 73.9824 37.8949Z" fill="#95A39A"/>
<path d="M120.351 40.8696C117.3 36.9699 115.253 34.9999 114.369 34.9999C113.928 34.9999 113.326 34.7185 113.045 34.3969C112.643 33.8742 112.683 33.633 113.285 32.9495C113.888 32.2661 113.928 31.9846 113.526 31.3414C112.804 30.1755 113.245 29.7734 115.212 29.7734C116.377 29.7734 117.3 30.0549 118.263 30.7383C120.03 32.0651 123.603 32.9093 124.486 32.1857C125.008 31.7434 125.249 31.7836 125.971 32.4269C127.978 34.1556 128.661 35.1607 128.42 36.2462C128.259 37.1709 128.46 37.4523 129.865 38.2162C131.712 39.2615 131.953 39.8243 130.628 39.8243C130.146 39.8243 129.343 40.1862 128.862 40.6686C128.139 41.3119 127.818 41.3923 127.175 41.0707C125.65 40.2264 124.365 40.5078 123.683 41.7943C123.362 42.4376 122.92 43.0808 122.719 43.2014C122.519 43.3221 121.435 42.2768 120.351 40.8696Z" fill="#95A39A"/>
<path d="M71.7875 60.7701C70.7838 59.5238 70.1415 59.1217 68.8168 58.9207C67.773 58.7197 66.2877 58.0362 65.0833 57.1115C63.9994 56.3075 62.3133 55.423 61.39 55.1416C59.985 54.7395 59.6638 54.4581 59.6638 53.7344C59.6638 53.2118 59.3025 51.7645 58.8609 50.4779C57.8172 47.4225 57.8172 47.3019 59.4631 46.538C60.2258 46.1762 61.1492 45.2917 61.4703 44.6082C62.1126 43.3619 62.2331 43.3217 64.2001 43.5227C66.1271 43.7237 66.4081 43.9248 68.4153 46.0958C71.386 49.3925 71.667 49.8347 72.1488 52.4077C72.5101 54.3777 72.8312 54.9807 74.7581 56.8703C75.9625 58.0764 76.926 59.2423 76.926 59.4434C76.926 59.6444 76.4442 60.1268 75.842 60.5288C72.7911 62.4988 73.1524 62.4586 71.7875 60.7701Z" fill="#95A39A"/>
<path d="M85.2731 65.9151C84.2695 65.3924 83.6674 64.7089 83.3462 63.744C83.1053 62.9802 82.6638 62.1761 82.4229 62.0153C82.1419 61.8545 81.62 61.2514 81.2587 60.6484C80.8572 60.0453 80.0142 59.4825 79.3318 59.3217C78.6493 59.1608 77.6055 58.397 76.9231 57.5527L75.7188 56.1054L77.1238 55.9848C78.3281 55.8641 78.8099 55.5023 80.2149 53.5725C81.0981 52.286 81.9813 51.1201 82.182 50.9191C82.3426 50.7181 82.9448 51.0799 83.4666 51.683L84.4301 52.8087L86.1965 52.085C87.1599 51.7232 88.1635 51.3212 88.4044 51.2005C88.8059 51.0397 92.9809 56.0652 92.9809 56.6682C92.9809 56.7888 91.9773 57.6331 90.7729 58.5176L88.565 60.1257L88.6453 63.1008C88.7657 65.9955 88.7256 66.1161 87.722 66.3573C87.0796 66.5583 86.1965 66.3975 85.2731 65.9151Z" fill="#95A39A"/>
<path d="M96.4284 33.6321C96.3079 33.1497 96.1875 32.1848 96.1875 31.5013C96.1875 30.2952 96.3079 30.2148 97.9539 29.9334C100.242 29.6117 100.603 29.8529 100.603 31.7827C100.603 33.5517 100.523 33.5919 98.3152 34.1146C96.7897 34.4362 96.6291 34.396 96.4284 33.6321Z" fill="#95A39A"/>
<path d="M94.0184 44.3667C93.9381 44.2461 94.0987 43.6028 94.3797 42.9193C94.8615 41.7534 94.7812 41.4318 93.4965 38.6175C92.3324 36.0445 92.1316 35.3209 92.3725 33.7127C92.6535 31.5015 91.6499 28.9687 90.5259 28.9687C90.1646 28.9687 89.442 28.3254 88.9602 27.5615L88.1172 26.1544L89.442 23.7422C90.5259 21.7722 91.0076 21.2496 92.1718 20.928C94.46 20.2847 95.2629 20.4455 96.3067 21.7722C97.1898 22.8979 97.7117 23.099 101.204 23.7824C106.222 24.7473 108.992 26.7173 106.222 27.3605C105.5 27.5213 105.098 28.1646 104.376 30.3356C103.533 32.7478 103.493 33.3107 103.894 34.6776C104.135 35.5219 104.857 36.6878 105.5 37.2104C106.825 38.2959 106.865 38.6577 105.861 40.8287C105.138 42.4369 105.058 42.4771 102.168 42.9997C100.522 43.2812 98.073 43.7636 96.7081 44.045C95.3432 44.3264 94.1389 44.4471 94.0184 44.3667ZM98.9963 35.0394L101.606 34.3158L101.726 32.1448C101.887 28.9687 101.445 28.5667 97.9927 28.8883L95.1826 29.1697L95.3031 31.9839C95.4235 34.959 95.5841 35.8033 96.0658 35.8033C96.2665 35.8033 97.5511 35.4415 98.9963 35.0394Z" fill="#95A39A"/>
<path d="M73.8661 54.2178C73.6654 53.9363 73.3041 52.6096 73.0231 51.3231C72.6216 49.3531 72.18 48.6295 70.0925 46.3781C68.6875 44.8503 67.7641 43.604 67.9649 43.3226C69.0086 41.433 70.6144 39.8651 71.1764 40.1063C71.5377 40.2269 72.0195 40.0661 72.3406 39.6238C72.8223 38.9806 73.1034 38.9806 75.6726 39.463L78.4827 39.9857L78.7236 41.9557C78.9243 43.2824 79.406 44.3277 80.1688 45.2121C81.9351 47.2223 81.8147 49.4737 79.8075 52.288C78.3623 54.4188 78.2419 54.4992 76.2346 54.6198C74.8697 54.7002 74.0668 54.5394 73.8661 54.2178Z" fill="#95A39A"/>
<path d="M103.853 58.5985C102.608 57.3522 102.568 57.3522 100.722 57.8346C99.3969 58.1965 98.7546 58.2366 98.6743 57.915C98.3531 56.9903 97.2692 56.3069 96.0649 56.3069C94.419 56.2667 94.2182 56.1461 92.0103 53.2916C90.0031 50.6784 89.8826 50.4372 90.7658 50.1155C91.087 49.9949 91.8096 48.9898 92.3716 47.8641C93.0139 46.5776 93.6964 45.7735 94.2985 45.6529C96.4262 45.1303 103.692 43.8438 104.455 43.8438C105.298 43.8438 108.55 47.5827 110.798 51.1608L111.962 53.0906L108.991 56.2265C107.346 57.9954 105.82 59.483 105.539 59.6438C105.298 59.7644 104.535 59.2819 103.853 58.5985Z" fill="#95A39A"/>
<path d="M66.3564 26.4751C65.1521 25.7917 65.4732 21.3693 67.0389 16.5449C68.3235 12.6853 68.6045 12.1626 70.8124 9.95145C73.181 7.57944 73.2211 7.57945 74.586 8.06189C75.7101 8.46393 76.4327 9.268 78.2793 12.3235L80.6077 16.1026H83.5784H86.5491L88.1549 18.153C89.038 19.2787 89.7606 20.324 89.7606 20.525C89.7606 20.9672 87.3921 25.3896 86.79 26.0329C86.4688 26.3545 84.7426 26.6762 82.2536 26.7968L78.199 27.0782L77.1954 25.9123L76.1918 24.7464L74.2649 25.6309C72.1372 26.5555 67.4002 27.0782 66.3564 26.4751Z" fill="#95A39A"/>
<path d="M91.9306 73.8765C88.9599 70.6603 88.2774 69.7758 87.9964 68.6501C87.7957 67.7254 87.876 67.5244 88.7993 67.3234C89.8029 67.0419 89.8029 67.0017 89.7226 63.9061C89.6424 62.1773 89.6825 60.6898 89.8029 60.6094C92.6933 58.2373 94.0583 57.5137 95.4633 57.5137C96.7078 57.5137 97.1092 57.6745 97.4705 58.5188C97.9924 59.6445 98.0326 59.6847 100.441 59.0414C102.127 58.6394 102.368 58.6796 103.131 59.4837L104.014 60.3681L102.89 61.1722L101.766 62.0165L102.047 66.7605L102.328 71.5045L98.2734 73.5549C96.0253 74.6806 94.0583 75.6053 93.8575 75.6053C93.697 75.6053 92.8138 74.8414 91.9306 73.8765Z" fill="#95A39A"/>
<path d="M106.586 24.3858C105.823 23.7023 104.458 23.2601 101.728 22.7776C98.2356 22.1344 97.8743 21.9736 96.8305 20.6468C95.7466 19.2799 95.6262 19.2397 93.9 19.5211C92.8964 19.6417 91.8526 19.8428 91.6118 19.9634C91.3307 20.0438 90.287 19.0387 89.2432 17.712L87.3564 15.2997H84.6668C83.1413 15.2595 81.7362 15.1389 81.4953 14.9781C80.8932 14.5761 77.3203 8.78677 77.3203 8.22392C77.3203 7.9425 77.8823 7.50026 78.5246 7.25904C80.01 6.61578 80.3311 6.05293 80.7326 3.4397C81.2143 0.0223916 82.2179 -0.902299 83.4223 0.906863C83.8639 1.59032 84.9478 1.99237 87.9988 2.63563C90.1666 3.11807 92.5351 3.76133 93.2577 4.04275C94.3817 4.52519 94.7832 4.48499 97.232 3.4397L99.9217 2.2738L102.25 4.76641C104.257 6.93741 104.699 7.21883 105.381 6.857C106.586 6.21374 107.268 6.33436 109.315 7.66107C110.721 8.54555 111.684 8.86718 113.089 8.86718C114.735 8.86718 115.016 8.98779 115.217 9.83207C115.578 11.2794 114.855 12.7267 112.728 14.8173C110.359 17.1089 108.954 20.4458 109.797 21.7725C110.239 22.4962 110.159 22.7776 109.235 23.9435C108.673 24.7074 108.071 25.3507 107.91 25.3104C107.75 25.3104 107.148 24.9084 106.586 24.3858Z" fill="#95A39A"/>
<path d="M83.8159 50.2381C83.4546 49.5948 83.013 49.0722 82.8524 49.0722C82.6517 49.0722 82.5313 48.4289 82.5313 47.6651C82.5313 46.66 82.17 45.8559 81.2868 44.8508C80.2029 43.6045 80.0022 43.0819 79.962 41.1119L79.9219 38.8605L81.7284 37.7348L83.5349 36.6091L85.9034 37.2925C88.2318 37.9358 88.3121 37.9358 89.7573 37.0915L91.2828 36.207L92.4068 38.7399C93.6914 41.6345 93.6914 41.7149 92.8886 43.7251C90.52 49.4742 90.6405 49.3134 86.7866 50.6401L84.4984 51.4442L83.8159 50.2381Z" fill="#95A39A"/>
<path d="M108.842 46.5776C105.871 42.8387 105.992 43.3211 107.196 40.6275L108.24 38.2153L106.795 36.8886C104.707 34.999 104.466 34.0743 105.269 31.0993C105.63 29.6921 106.072 28.5664 106.192 28.5664C106.313 28.5664 106.955 29.2097 107.598 30.0138C108.681 31.3807 108.842 31.4209 110.448 31.1796C112.495 30.8982 113.097 31.4209 112.013 32.627C111.331 33.3506 111.331 33.5115 111.893 34.5166C112.214 35.1196 113.097 35.8031 113.82 36.0443C115.626 36.6071 121.648 43.4015 120.966 44.085C120.564 44.487 111.331 48.6682 110.889 48.628C110.649 48.628 109.725 47.7033 108.842 46.5776Z" fill="#95A39A"/>
<path d="M72.9101 82.44C71.9065 81.7968 70.943 81.2741 70.7021 81.2339C70.381 81.2339 68.8154 78.9423 68.173 77.5754C68.1329 77.4146 69.1365 76.1281 70.4613 74.6807C73.0707 71.7861 73.713 69.9769 73.713 65.5947V63.2629L75.9611 61.7352C78.4902 60.0466 79.8952 60.0466 80.5375 61.7352C80.7383 62.298 81.0996 62.7403 81.3404 62.7403C81.5813 62.7403 82.1032 63.5443 82.5448 64.5092C83.1068 65.8359 83.6688 66.4792 84.6724 66.8812C86.1176 67.4843 87.3621 68.8914 87.3621 69.9367C87.3621 70.2985 88.6467 71.9067 90.1722 73.5952C92.7013 76.3291 92.9823 76.7713 92.9823 78.2991C92.9823 80.3896 92.34 80.5505 90.2525 78.9423C88.9679 77.9774 88.6869 77.897 85.8768 78.1383C84.2308 78.2589 82.7856 78.4599 82.6652 78.5403C82.5448 78.6609 82.3441 79.3845 82.1835 80.1082C81.9426 81.2741 81.6215 81.5556 79.5741 82.3596C76.0012 83.7668 74.9976 83.8069 72.9101 82.44Z" fill="#95A39A"/>
<path d="M108.471 29.3703C107.587 28.4054 107.868 27.3199 109.635 25.1489C111.441 22.8573 111.522 22.6563 111 21.6512C110.237 20.2441 111.281 17.7916 113.689 15.3794C116.379 12.726 117.262 12.6858 119.39 14.9774L120.996 16.666L122.12 15.9021C123.123 15.2186 123.244 15.2186 123.726 15.8619C124.207 16.5453 125.09 21.611 125.09 23.9026C125.09 24.9479 124.89 25.3097 124.167 25.4706C123.685 25.5912 122.32 26.556 121.116 27.5611C119.43 29.0084 118.748 29.3703 118.105 29.1291C116.66 28.6466 111.803 28.9682 111.16 29.5713C110.357 30.3754 109.273 30.295 108.471 29.3703Z" fill="#95A39A"/>
<path d="M36.7327 122.724C36.4517 122.121 36.1305 121.478 36.0502 121.317C35.9699 121.156 36.3312 121.035 36.8531 121.035C37.375 120.995 38.0575 120.834 38.3786 120.633C38.8603 120.312 38.9005 120.111 38.499 119.427C37.656 118.1 37.8969 117.578 39.5428 116.814C41.0683 116.13 42.2325 114.522 41.7909 113.758C41.6303 113.557 40.9479 113.397 40.1851 113.397C38.6596 113.397 36.9334 111.909 36.532 110.261C36.1707 108.854 36.6123 108.733 37.9772 109.899C38.9005 110.663 39.7034 110.984 40.8274 110.984C42.2726 110.984 42.4734 111.105 43.0354 112.392C43.8383 114.321 44.2397 118.703 43.6777 119.668C43.2762 120.352 43.196 120.312 42.7945 119.106C42.5135 118.382 42.1121 117.819 41.831 117.819C41.5902 117.819 40.5866 119.146 39.5829 120.834C38.6195 122.483 37.6962 123.85 37.5356 123.85C37.4151 123.85 37.0538 123.327 36.7327 122.724Z" fill="#566E5C"/>
<path d="M89.5591 139.287C86.9096 139.006 84.4206 138.845 84.0593 138.966C83.6579 139.086 83.0958 139.006 82.7345 138.805C82.2528 138.523 82.4535 138.161 83.8987 136.714L85.7052 134.985L84.9023 133.417C84.0192 131.649 83.8987 131.769 87.4314 131.086C88.7161 130.804 89.8401 130.483 89.9204 130.322C90.0007 130.201 89.9204 129.156 89.7197 128.07C89.3584 126.221 89.4387 126.02 90.7634 124.05C91.5262 122.924 92.1685 121.879 92.1685 121.718C92.1685 121.557 91.2452 121.437 90.1211 121.437H88.0336L88.3146 118.221C88.4752 116.17 88.3949 114.401 88.0738 113.235C87.8329 112.23 87.7125 111.265 87.873 111.104C88.0738 110.944 89.5992 110.823 91.2853 110.863C93.9349 110.903 94.4567 111.064 95.0589 111.788C95.9421 112.873 95.9822 113.637 95.1793 114.441C94.537 115.085 94.4567 116.331 94.9385 117.617C95.1392 118.1 94.9786 119.226 94.537 120.552C93.6538 123.125 93.8144 123.527 96.3435 125.417C97.3471 126.181 98.2705 127.065 98.3508 127.427C98.4712 127.789 98.6719 129.679 98.7923 131.689L99.0734 135.347L97.3873 136.031C95.7012 136.674 95.6611 136.674 95.9421 138.282C96.2231 140.172 96.8253 140.091 89.5591 139.287Z" fill="#95A39A"/>
<path d="M57.5738 155.049C57.2125 154.325 57.0519 153.521 57.1724 153.32C57.3329 153.079 59.4204 151.631 61.8693 150.063C66.2049 147.249 66.2852 147.209 67.0078 147.973C67.4092 148.415 68.0917 148.777 68.4931 148.777C69.8982 148.777 69.4566 150.305 67.8909 151.068C66.807 151.591 66.3654 152.114 65.8837 153.601L65.2414 155.491L62.351 155.772C60.7854 155.933 59.1796 156.134 58.8183 156.214C58.4168 156.335 57.9752 155.933 57.5738 155.049Z" fill="#566E5C"/>
<path d="M61.9066 173.18C61.7862 172.697 61.6657 171.009 61.6657 169.481C61.6657 166.827 61.5854 166.586 59.6184 163.611C57.8118 160.837 57.6513 160.355 57.8921 159.028C58.2133 157.219 59.0965 156.817 62.8701 156.817C65.8809 156.817 65.921 156.777 66.8845 154.203C67.2458 153.319 67.8881 152.394 68.3699 152.153C70.1362 151.309 70.5377 150.666 70.4172 149.218C70.3369 147.972 70.1362 147.731 69.2129 147.65C68.129 147.489 67.567 146.886 65.7605 143.871L64.8773 142.424L68.3297 140.534L71.7821 138.604L73.9499 140.775C76.3185 143.107 76.4791 143.429 75.4353 143.831C73.4682 144.514 73.3076 144.997 73.5886 149.58C73.8697 154.404 73.9098 154.203 70.8588 158.224L69.3333 160.274L69.2129 166.667L69.0925 173.099L67.0852 173.541C66.0013 173.823 64.4357 174.024 63.6328 174.064C62.4285 174.104 62.1073 173.943 61.9066 173.18Z" fill="#566E5C"/>
<path d="M55.7988 151.791C55.6383 151.389 55.8791 150.746 56.4411 150.183C57.244 149.339 57.3243 148.937 57.0835 146.967L56.8024 144.756H59.7731C63.3861 144.756 65.1525 145.077 65.4335 145.761C65.5941 146.203 63.9482 147.369 56.963 151.912C56.1601 152.395 56.0397 152.395 55.7988 151.791Z" fill="#566E5C"/>
<path d="M47.0471 141.419C46.6457 140.052 46.0034 138.525 45.5216 138.042L44.7188 137.158L46.726 136.153L48.7332 135.107L50.901 136.314C52.0652 136.957 54.233 138.123 55.7183 138.927L58.408 140.334L57.6051 141.701C56.8022 143.028 56.8022 143.068 54.4739 142.827C52.8681 142.706 51.5032 142.827 50.1784 143.269C49.1346 143.631 48.1712 143.952 48.0106 143.952C47.85 143.952 47.4486 142.827 47.0471 141.419Z" fill="#566E5C"/>
<path d="M75.1867 140.615C73.2196 138.806 72.7379 138.042 72.0554 135.911C71.6138 134.504 70.6504 132.011 69.8876 130.363C69.1249 128.714 68.3621 126.624 68.2417 125.699C67.9607 123.97 65.6323 119.387 64.3878 118.141C63.9864 117.699 63.1032 117.417 62.3003 117.417C61.1763 117.417 60.8953 117.256 60.7748 116.493C60.6945 115.769 60.4537 115.608 59.4099 115.729C58.6873 115.769 57.9647 115.568 57.7238 115.246C57.3224 114.804 57.6034 114.643 59.3296 114.402C60.4938 114.241 61.7784 113.839 62.1397 113.518C62.7419 112.955 62.9025 113.075 63.866 114.603C64.4681 115.528 65.1506 116.854 65.4316 117.578C66.3549 120.071 66.6761 120.352 68.9643 120.513C71.1321 120.714 71.1723 120.674 71.6941 119.427C72.216 118.181 72.2562 118.141 74.1028 118.422L76.0297 118.664L77.5151 116.251C78.318 114.884 78.88 113.598 78.7194 113.397C78.599 113.156 77.756 112.995 76.8728 112.995C75.548 112.995 75.267 112.874 75.3874 112.271C75.5079 111.708 76.0297 111.548 78.5187 111.467C80.8471 111.347 81.7303 111.146 82.3726 110.542C83.2959 109.658 83.7375 109.859 83.7375 111.146C83.7375 112.432 84.5002 113.035 85.4637 112.512C86.8286 111.789 87.1498 112.713 87.1498 117.538V122.041L88.6753 122.161C89.4782 122.242 90.1606 122.443 90.1606 122.644C90.1606 122.845 89.719 123.649 89.157 124.453C88.5147 125.458 88.2738 126.262 88.3943 126.986C88.9161 129.639 88.9563 129.639 86.1462 130.162C84.7411 130.483 83.3762 130.885 83.1755 131.087C82.9346 131.288 83.0952 132.092 83.5368 133.097L84.2995 134.745L82.3726 136.594C80.4456 138.484 80.4456 138.484 81.2887 139.167C82.4127 140.092 82.3726 140.374 80.8471 141.419C78.3581 143.067 77.756 142.947 75.1867 140.615Z" fill="#566E5C"/>
<path d="M43.072 135.872C42.1487 135.148 37.3715 127.55 37.6525 127.268C37.7328 127.188 38.6963 126.705 39.7802 126.263L41.7473 125.419L42.9918 126.906L44.2764 128.394L45.6011 127.711C47.4076 126.826 47.7288 126.866 48.4916 128.193C49.1339 129.238 49.1339 129.319 48.4916 129.721C47.8492 130.123 47.8492 130.284 48.4916 131.972L49.1339 133.822L47.9295 134.304C47.2872 134.585 46.123 135.229 45.4004 135.751C44.0757 136.636 44.0355 136.636 43.072 135.872Z" fill="#566E5C"/>
<path d="M43.3969 125.659C42.7947 124.895 42.1122 124.252 41.8312 124.252C41.5904 124.252 40.3459 124.775 39.1014 125.378C37.8168 125.981 36.6526 126.383 36.492 126.222C36.3314 126.061 35.5285 125.739 34.7256 125.498C32.9994 124.935 32.7586 124.131 32.7586 118.543C32.7586 115.689 32.5578 114.442 31.5141 111.507C29.9083 106.924 29.2258 104.472 28.9047 102.06C28.6638 100.331 28.7441 100.13 29.4266 100.13C29.828 100.13 30.5105 100.652 30.8718 101.336C31.7951 102.864 32.3973 102.823 34.6052 101.255C36.2511 100.049 36.492 100.009 38.9408 100.25C41.9918 100.532 42.313 100.291 42.4735 97.4763C42.594 95.3053 42.4735 95.3857 45.8858 95.9083C47.05 96.1094 47.1704 96.23 46.9697 97.2351C46.6486 98.7628 47.6923 99.8081 48.977 99.3257C49.7397 99.0442 50.101 99.1649 50.7032 99.8483C52.5498 101.979 52.5498 101.979 51.8272 104.15L51.1448 106.16L52.6301 108.371C53.7943 110.1 54.0753 110.904 53.9549 112.07C53.8344 113.558 53.7943 113.598 52.1484 113.598C50.6229 113.598 50.3419 113.759 49.4185 115.085C48.2544 116.814 48.2142 117.256 49.0572 119.427C49.6996 120.955 49.6594 121.036 48.8565 121.719C48.4149 122.121 47.7726 123.166 47.4916 124.051C47.1303 125.056 46.488 125.9 45.6851 126.383L44.4808 127.106L43.3969 125.659ZM39.9846 122.322L41.7108 119.628L42.2728 120.915C42.9954 122.684 43.7582 122.563 44.5611 120.513C45.0829 119.066 45.1231 118.262 44.8421 115.769C44.1998 110.824 43.437 109.779 40.4663 109.779C39.9043 109.779 38.9408 109.296 38.2985 108.693C37.335 107.768 37.054 107.688 36.1709 108.09C34.8059 108.733 34.8862 110.341 36.4117 112.392C37.2548 113.477 38.0175 114.04 38.8605 114.201C40.7875 114.482 40.6269 115.206 38.3387 116.131C36.2511 117.015 36.1709 117.176 36.9336 119.066C37.1745 119.548 36.9336 119.749 36.0103 119.95C35.2475 120.111 34.7658 120.433 34.7658 120.835C34.7658 121.96 36.8132 125.056 37.5759 125.056C38.0175 125.056 38.9408 124.051 39.9846 122.322Z" fill="#566E5C"/>
<path d="M52.0235 149.218C49.374 148.535 48.9725 148.132 48.2499 145.72C48.0492 144.956 48.2499 144.796 50.0966 144.353C51.2608 144.112 53.0271 143.951 54.0307 143.992L55.8372 144.152L55.9577 146.484C56.0781 148.615 55.6365 150.062 54.8738 149.942C54.7533 149.901 53.4687 149.58 52.0235 149.218Z" fill="#566E5C"/>
<path d="M58.9799 143.591C57.8558 143.47 57.8558 143.269 58.8594 141.741C59.9434 140.053 59.9032 139.771 58.177 138.967C57.334 138.565 55.2063 137.439 53.3998 136.434C50.389 134.706 50.1481 134.464 49.7868 132.816C49.4255 131.288 49.4656 131.087 50.0678 131.087C51.3524 131.087 51.2721 130.323 49.8671 128.193C49.0642 127.027 48.4219 125.74 48.4219 125.338C48.4219 124.333 49.1445 122.966 50.1079 122.202C50.9108 121.559 50.9108 121.519 50.2284 119.308C49.5459 117.177 49.5459 117.016 50.1882 116.011C50.67 115.287 51.1517 115.006 51.9546 115.046C52.5568 115.086 53.4801 114.925 54.002 114.644C54.845 114.162 55.0859 114.242 56.6114 115.77C57.8157 116.936 58.5383 117.338 59.02 117.177C59.5018 116.976 59.7828 117.137 59.9433 117.74C60.1039 118.463 60.4652 118.624 61.8301 118.624C63.3958 118.624 63.5564 118.705 65.0417 121.077C66.0855 122.644 66.8081 124.413 67.1292 125.981C67.3701 127.348 68.2533 129.761 69.016 131.328C70.8627 135.067 71.4648 137.158 70.7824 137.761C70.5415 138.002 69.0562 138.887 67.4905 139.731C63.8775 141.661 63.5965 141.902 63.8374 142.907C64.0381 143.671 63.8775 143.751 61.9506 143.751C60.7864 143.751 59.4616 143.671 58.9799 143.591Z" fill="#566E5C"/>
<path d="M68.6893 119.508C67.2039 119.307 66.4813 118.744 66.4813 117.739C66.4813 116.694 63.7515 111.789 63.0289 111.508C62.7078 111.387 62.0654 111.749 61.6239 112.352C60.821 113.357 60.5801 113.397 58.1313 113.317L55.4416 113.196L55.2409 111.588C55.1204 110.703 54.3978 109.095 53.6752 108.01L52.3505 106.04L53.0329 103.949L53.7555 101.818L52.2702 99.9691C50.7045 98.0795 50.5038 97.9589 48.898 98.0795C48.1754 98.1599 47.9747 97.9991 48.0952 97.4363C48.2156 96.8332 48.617 96.7126 50.1024 96.7126C51.1461 96.7126 52.23 96.4714 52.5111 96.1498C53.0731 95.5869 52.5512 95.0241 49.8214 93.0139C48.6572 92.1696 48.6572 92.1294 49.3798 91.3253C49.9418 90.6821 50.6243 90.481 51.9089 90.481C53.4745 90.481 53.9161 90.7223 56.1241 92.7325L58.5729 95.0241L59.8174 93.6169C60.4998 92.8531 61.7041 91.3253 62.4669 90.28C63.5106 88.8327 64.2734 88.1894 65.4777 87.8678C68.047 87.1039 68.8097 86.5411 69.2915 84.9329C70.0542 82.6413 70.2951 82.5609 72.5833 84.0083C74.3497 85.0938 74.9117 85.2546 76.116 85.0536C79.1269 84.4505 79.0466 84.4103 79.6889 87.1844C80.3713 89.9986 80.4115 89.9182 77.5211 91.9284C76.7182 92.4912 76.7182 92.4912 77.6415 94.22C78.5648 95.9487 78.5648 95.989 77.8824 97.4363C77.1999 98.8434 77.0795 98.9238 75.2328 98.9238C73.2256 98.9238 70.8972 99.8083 70.8972 100.532C70.8972 100.773 71.1783 101.537 71.5396 102.18C72.0614 103.226 72.1016 103.748 71.7403 105.196C71.1381 107.487 71.8206 109.899 73.3059 110.985C74.1489 111.588 74.3497 111.99 74.1891 112.955C74.0285 114.161 74.0687 114.201 75.7146 114.201H77.3605L76.4372 115.85C75.5139 117.498 75.5139 117.498 73.6271 117.257C71.8206 117.056 71.66 117.096 71.098 118.222C70.3754 119.588 70.2148 119.669 68.6893 119.508Z" fill="#95A39A"/>
<path d="M96.426 111.628C95.8239 110.221 95.1013 109.939 91.1671 109.658C89.8423 109.537 85.9885 110.221 85.4666 110.663C84.9447 111.105 84.8243 110.904 84.3827 108.854C84.0615 107.407 83.5798 107.487 82.0944 109.176C80.8901 110.502 80.7295 110.583 78.1201 110.583C74.467 110.583 73.5035 110.141 72.9014 108.331C72.5401 107.206 72.5401 106.482 72.9014 105.155C73.3028 103.708 73.2627 103.225 72.7006 102.14C71.7773 100.331 72.259 100.009 76.0326 99.9288C77.6785 99.9288 77.799 99.8082 78.8427 97.9588L79.8865 96.0291L79.0435 94.5013L78.1603 92.9736L79.8062 91.6067L81.4923 90.1995L80.9704 87.8275C80.6894 86.5008 80.3682 85.0937 80.2879 84.6514C80.1274 84.0484 80.4485 83.6463 81.5726 83.0433C83.0178 82.2392 83.4594 81.7568 83.9009 80.3094C84.0615 79.7466 84.5834 79.626 86.5103 79.626C87.8351 79.626 89.0394 79.827 89.2 80.0682C89.3205 80.2692 90.0029 80.8321 90.6854 81.2341C91.3277 81.6362 92.3714 82.8423 92.9335 83.8876C93.9371 85.7369 94.0977 85.8575 96.9078 86.6616C98.5136 87.1038 99.9989 87.7471 100.24 88.0687C100.681 88.8326 100.722 91.5263 100.24 93.1344C99.758 94.7827 100.28 95.5466 102.046 95.8682C103.09 96.0693 103.692 96.5115 104.294 97.5568C104.776 98.3609 105.699 99.2453 106.342 99.5268C107.185 99.8484 107.707 100.492 108.068 101.537C108.349 102.381 108.51 103.226 108.389 103.386C108.309 103.547 106.703 104.512 104.856 105.517C101.003 107.608 100.721 107.889 100.521 109.698C100.44 110.744 100.079 111.186 98.7143 111.99L97.0282 112.995L96.426 111.628Z" fill="#95A39A"/>
<path d="M178.766 137.198C176.839 135.992 176.317 135.831 175.755 136.233C173.668 137.72 173.347 137.72 171.701 136.112C170.416 134.906 170.055 134.183 169.854 132.574C169.372 129.318 167.205 127.911 164.274 129.036C163.15 129.479 163.23 129.519 160.3 126.061L159.296 124.855L155.964 125.539C154.118 125.941 152.391 126.262 152.11 126.262C151.829 126.262 151.428 125.539 151.187 124.694C150.986 123.81 150.464 122.725 150.063 122.202C149.421 121.438 149.22 121.398 148.457 121.8C147.975 122.041 147.413 122.162 147.213 122.041C147.012 121.92 146.57 120.151 146.169 118.101C145.767 116.051 145.286 114.081 145.125 113.719C144.924 113.317 143.961 112.674 142.957 112.231C141.191 111.427 141.151 111.387 141.151 109.457C141.151 106.844 140.749 106.522 137.739 106.844L135.25 107.045L135.009 105.759C134.607 103.869 134.567 103.909 136.334 103.387C137.297 103.105 138.301 102.422 138.863 101.658C139.425 100.894 140.95 99.8889 142.957 98.924C145.727 97.5973 146.611 96.954 149.501 93.7779C151.307 91.7677 152.793 89.7978 152.793 89.3957C152.793 88.9535 153.355 89.4761 154.198 90.7627C155.482 92.6522 155.603 93.0945 155.643 95.7881C155.643 98.3209 155.884 99.326 157.57 103.507C159.336 107.849 159.457 108.412 159.136 110.101C158.654 112.714 158.895 113.116 160.822 112.875C161.705 112.754 162.508 112.794 162.628 112.995C162.949 113.478 162.106 115.448 161.344 116.011C160.741 116.453 160.782 116.614 161.544 117.86C162.307 119.146 162.347 119.347 161.825 120.393C160.822 122.282 161.063 122.885 162.749 123.167C165.037 123.569 166.362 123.488 167.245 122.926C167.927 122.523 168.248 122.644 169.613 124.011C171.5 125.82 172.102 125.74 173.266 123.448C173.708 122.564 174.391 121.84 174.752 121.84C176.358 121.84 180.492 122.805 180.492 123.207C180.492 123.448 180.211 124.493 179.81 125.539L179.128 127.428L181.376 130.765C184.788 135.951 184.708 135.63 183.262 137.278C182.58 138.082 181.817 138.726 181.576 138.685C181.295 138.685 180.051 138.042 178.766 137.198Z" fill="#95A39A"/>
<path d="M169.538 122.562C168.214 121.477 167.892 121.356 167.009 121.758C165.965 122.241 163.155 122.402 162.754 122C162.633 121.879 162.714 121.155 162.955 120.391C163.236 119.507 163.236 118.743 162.995 118.14C162.714 117.497 162.794 116.652 163.316 115.085C164.36 111.868 164.36 111.788 162.071 111.788H160.104L160.305 109.657C160.506 107.767 160.305 107.044 158.659 103.184C157.174 99.6463 156.812 98.4 156.812 96.4702C156.812 94.2992 156.973 93.8168 158.699 91.2438C160.024 89.2336 160.666 87.8265 160.827 86.54L161.028 84.6504L164.039 83.7257C167.652 82.6 167.973 82.3588 167.29 81.0723C166.487 79.6249 166.849 79.2229 169.538 78.1776L172.027 77.2529L173.031 78.5796C173.834 79.6651 174.396 79.9466 176.042 80.1878C178.169 80.4692 179.053 81.2733 180.498 84.168C180.819 84.8112 181.542 85.4947 182.104 85.6957C182.666 85.9369 183.468 86.4193 183.91 86.8214C185.436 88.1883 190.132 90.5603 190.935 90.3593C191.939 90.0779 191.939 90.7211 190.975 93.4952L190.253 95.5053L187.965 95.626C185.556 95.7466 183.91 95.0631 182.304 93.2942C181.903 92.8519 181.341 92.4901 181.02 92.4901C180.016 92.4901 176.082 95.3847 176.082 96.1084C176.082 97.3547 178.169 101.697 178.852 101.898C181.582 102.702 185.436 103.345 187.001 103.265C188.045 103.224 189.049 103.305 189.169 103.425C189.33 103.586 188.968 104.511 188.366 105.516C187.362 107.245 187.282 107.285 186.118 106.883C185.436 106.642 184.512 106.561 183.99 106.682C182.947 106.963 178.892 110.702 178.892 111.386C178.892 111.667 178.089 113.838 177.045 116.21C175.6 119.668 175.038 120.592 174.356 120.713C173.834 120.753 173.151 121.396 172.67 122.321C172.228 123.165 171.706 123.849 171.465 123.809C171.265 123.809 170.381 123.246 169.538 122.562Z" fill="#95A39A"/>
<path d="M112.325 109.497C112.125 109.095 111.803 108.13 111.643 107.366C111.482 106.562 110.72 104.27 109.917 102.22C108.672 98.9635 108.351 98.4409 107.388 98.2399C106.705 98.1192 106.023 97.5162 105.461 96.4709C104.818 95.305 104.256 94.8627 103.293 94.6617L101.968 94.4205L102.008 90.9228C102.008 88.6714 101.848 87.1437 101.526 86.7818C101.245 86.4602 99.6397 85.8571 97.9536 85.4149C95.1836 84.7314 94.8223 84.5304 94.2603 83.3645C93.7786 82.3192 93.7384 81.8368 94.0997 81.1131C94.3406 80.6307 94.6216 79.505 94.6617 78.6205C94.7822 77.0525 94.8625 76.9721 97.793 75.4846C99.4389 74.6805 101.005 73.9971 101.245 73.9971C101.446 73.9971 102.369 74.7207 103.253 75.6454C104.096 76.5299 106.063 78.3793 107.548 79.706C110.037 81.9172 110.599 82.2388 113.811 83.0831C116.54 83.8068 117.705 84.3696 118.909 85.4149C119.752 86.219 121.237 87.1436 122.241 87.4653C123.285 87.8271 124.329 88.2694 124.65 88.39C126.215 89.194 132.478 102.944 131.514 103.547C130.993 103.868 122.843 105.235 119.391 105.597C116.42 105.879 115.577 106.482 114.854 108.693C114.373 110.18 112.927 110.623 112.325 109.497Z" fill="#95A39A"/>
<path d="M131.95 100.048C131.147 97.4351 128.096 91.1633 126.972 89.7562C126.65 89.3542 126.811 89.1532 127.493 88.9924C128.337 88.7511 128.377 88.6305 128.096 85.9369C127.775 82.5196 127.855 82.4391 131.749 82.4391C134.438 82.4391 134.679 82.5196 136.727 84.0473C137.931 84.9318 138.975 85.6554 139.055 85.6554C139.135 85.6554 140.139 84.8514 141.303 83.8463L143.431 82.0371L144.314 83.2432C145.318 84.6503 145.96 84.7308 146.964 83.6453C147.887 82.6 148.449 82.6 149.653 83.7659C150.296 84.3689 150.817 85.4946 151.179 87.143L151.701 89.6356L148.73 92.9725C145.197 96.9124 145.599 96.5908 142.347 97.9979C140.741 98.6814 139.095 99.7669 138.092 100.812C137.048 101.857 136.044 102.541 135.482 102.541C134.96 102.541 134.157 102.621 133.716 102.742C132.993 102.943 132.752 102.621 131.95 100.048Z" fill="#95A39A"/>
<path d="M154.798 89.6367C153.875 88.31 152.992 87.3451 152.791 87.4657C152.47 87.6667 151.587 85.2948 151.587 84.169C151.587 83.6464 149.058 81.6362 148.375 81.6362C148.094 81.6362 147.412 81.998 146.85 82.4403L145.766 83.2846L144.883 82.1589C144.361 81.5156 143.959 80.8321 143.959 80.5909C143.959 80.3497 143.518 79.7466 143.036 79.2642C142.514 78.7818 141.872 77.6561 141.591 76.7716C141.189 75.3645 140.989 75.2036 139.825 75.2036C138.339 75.1634 137.938 74.9624 137.014 73.5151C136.452 72.5904 136.011 72.3894 134.244 72.309C132.759 72.2286 132.077 71.9873 131.996 71.5853C131.916 71.1431 132.237 70.9421 133 70.9421C133.642 70.9421 135.007 70.9018 136.051 70.8616L138.018 70.7812L137.857 69.0927L137.737 67.4041L139.945 66.6805C141.149 66.2785 143.799 65.4342 145.846 64.7909L149.499 63.625L150.945 64.5899C151.908 65.2734 152.671 65.4744 153.353 65.3136C154.397 65.0723 154.477 65.2331 155.441 70.54C155.762 72.309 157.047 75.4449 157.568 75.7665C157.769 75.8871 159.495 75.4448 161.422 74.8016C163.349 74.1181 165.116 73.7161 165.276 73.7965C165.999 74.2387 165.597 75.6057 164.433 76.9324C162.948 78.621 162.948 79.0632 164.232 79.3848C165.517 79.7064 166.561 81.6362 165.637 81.9579C165.316 82.0785 163.951 82.5609 162.627 83.0031L160.218 83.8474L160.017 85.6968C159.857 86.9029 159.295 88.3502 158.291 89.8377C157.488 91.0439 156.725 92.0891 156.605 92.0891C156.525 92.0891 155.682 91.0036 154.798 89.6367Z" fill="#95A39A"/>
<path d="M124.172 87.0628C123.088 86.7412 121.482 86.0175 120.599 85.4144L118.953 84.3692L121.282 82.2786L123.65 80.188L123.128 77.7758C122.847 76.449 122.687 74.6801 122.767 73.7956L122.887 72.1875L125.055 72.0668C127.022 71.9462 127.223 71.8256 127.624 70.7401C127.865 70.0969 128.267 69.5742 128.508 69.5742C129.431 69.5742 130.675 70.8205 130.796 71.8658C130.876 72.4689 131.197 72.9915 131.518 73.0317C135.974 73.6348 135.934 73.6348 136.536 74.8007C137.058 75.7656 137.42 76.0068 138.584 76.0068C139.828 76.0068 140.069 76.1676 140.631 77.4943C140.952 78.3386 141.635 79.4241 142.076 79.9468L142.96 80.8714L141.073 82.6806L139.146 84.4898L137.018 82.8414C135.011 81.3539 134.69 81.2333 132.281 81.2333C130.876 81.2333 129.029 81.4343 128.146 81.6755L126.621 82.0776L126.862 84.8516C127.183 87.9875 127.303 87.9071 124.172 87.0628Z" fill="#95A39A"/>
<path d="M182.299 84.5304C182.058 84.3696 181.255 83.2438 180.532 82.0377C179.81 80.7914 179.167 79.7863 179.127 79.7059C179.047 79.6657 178.043 79.4245 176.839 79.2235C175.153 78.9019 174.43 78.4998 173.547 77.4947C172.543 76.3288 171.098 73.595 171.339 73.3538C171.419 73.3136 172.142 72.9919 172.985 72.6301C173.788 72.3085 174.47 71.7858 174.47 71.4642C174.47 71.1828 175.193 69.4138 176.076 67.6047C177.08 65.5141 177.682 63.7049 177.682 62.74C177.682 60.3278 178.124 58.8001 179.087 57.795C179.569 57.3125 180.251 56.3476 180.572 55.7044C181.134 54.6591 181.134 54.3375 180.613 52.8901C180.091 51.3222 180.091 51.2418 180.974 50.5181C182.499 49.312 185.189 46.739 185.51 46.2565C185.631 46.0153 184.747 44.769 183.503 43.4825C181.295 41.1105 181.255 41.0703 181.375 38.9395C181.496 36.8891 181.576 36.8087 182.66 36.6479C183.302 36.6077 184.426 36.6479 185.189 36.7685C186.313 37.0097 186.714 37.3716 187.437 38.9395C188.32 40.7487 188.401 40.8291 191.652 41.7939L194.944 42.7588L198.959 42.0352C203.415 41.1909 203.977 41.2713 209.517 43.2815C211.203 43.8845 212.608 44.6484 212.608 44.9298C212.608 45.2112 212.246 46.1359 211.805 46.94C211.363 47.7843 211.002 48.91 211.002 49.513C211.002 51.3624 205.181 57.9156 202.772 58.7197L201.287 59.2021L201.488 61.0917C201.608 62.137 202.01 63.6245 202.411 64.4286C203.053 65.7955 203.053 65.9563 202.451 66.9212C202.09 67.484 201.769 68.4489 201.769 69.1324C201.769 70.2179 201.568 70.3787 199.48 71.1426C196.911 72.1075 196.148 72.8311 196.148 74.3187C196.148 75.2836 196.108 75.2836 193.74 75.0423L191.371 74.7609L190.368 76.7711L189.324 78.7813L187.036 78.9019L184.707 79.0225L184.105 81.7965C183.503 84.5304 183.101 85.1334 182.299 84.5304Z" fill="#95A39A"/>
<path d="M114.335 82.1173C110.682 81.072 110.441 80.9112 106.828 77.6145C104.78 75.725 102.974 73.9158 102.853 73.6344C102.693 73.3128 102.894 72.8705 103.215 72.6293C103.737 72.2273 103.817 71.3428 103.737 67.3626L103.616 62.5784L104.7 62.1764C106.266 61.6135 110.682 64.5484 112.488 67.4028C114.134 69.9357 114.335 70.0965 115.298 69.3728C115.941 68.9306 116.342 68.9708 118.269 69.815C121.601 71.3026 121.761 71.584 122.002 76.127L122.163 80.0267L120.316 81.6349C119.313 82.5194 118.389 83.2028 118.269 83.2028C118.148 83.2028 116.382 82.6802 114.335 82.1173Z" fill="#95A39A"/>
<path d="M165.55 77.4934C166.232 76.7697 166.433 76.046 166.433 74.4781C166.433 71.9453 166.393 71.9453 161.696 73.473C158.404 74.5585 158.324 74.5585 157.762 73.7946C156.999 72.7493 157.039 71.9855 158.043 69.3722C158.605 67.8043 159.087 67.161 159.608 67.161C160.612 67.161 161.094 66.4374 161.415 64.3468C161.816 61.8944 161.977 61.7336 163.783 61.7336C165.309 61.7336 165.429 61.613 167.236 58.7183C169.444 55.2608 169.243 55.301 173.659 57.4318L176.67 58.9193L176.549 61.7336C176.469 63.5025 176.188 64.9901 175.746 65.7539C175.345 66.3972 174.622 67.9249 174.141 69.1712C173.378 71.0206 172.977 71.4628 171.612 72.0659C170.166 72.6689 170.006 72.87 170.247 73.674C171.009 76.046 170.809 76.4883 168.239 77.4532C165.108 78.6995 164.426 78.6995 165.55 77.4934Z" fill="#95A39A"/>
<path d="M119.15 69.0523C116.661 67.8462 115.698 67.5648 115.377 67.8864C114.614 68.6101 114.413 68.4894 113.249 66.5195C112.526 65.2732 111.322 64.1073 109.435 62.8609L106.625 61.0116L108.15 59.3632C108.994 58.4385 110.278 56.9912 111.041 56.1469C113.088 53.8955 113.57 53.7347 115.898 54.4986L117.865 55.1418V57.9561C117.865 60.3281 118.066 61.0518 119.11 62.9413C119.792 64.1474 120.475 65.2329 120.676 65.3134C120.836 65.434 122.281 64.8711 123.847 64.1072C125.453 63.3434 126.818 62.7403 126.898 62.7403C126.978 62.7403 127.42 63.464 127.861 64.3485L128.704 65.9566L127.5 68.3688L126.296 70.781L124.369 70.7408C123.004 70.7006 121.559 70.2584 119.15 69.0523Z" fill="#95A39A"/>
<path d="M130.265 69.171C129.101 68.2061 129.021 68.0051 129.382 66.8794C129.663 66.1557 129.663 65.4321 129.462 65.1104C128.86 64.1456 129.061 63.7435 130.426 63.1405C131.59 62.5776 131.71 62.3364 131.831 60.4468C131.951 58.3964 131.991 58.316 133.356 58.0748C134.119 57.914 135.725 58.0748 137.01 58.3964L139.338 58.9593L140.061 61.1303C140.422 62.3364 140.863 63.6229 140.984 64.0249C141.144 64.5476 140.663 64.9898 138.856 65.8341C136.648 66.8794 136.528 67.0402 136.648 68.2463C136.769 69.7338 136.608 69.8143 133.637 70.0555C131.831 70.2163 131.389 70.0957 130.265 69.171Z" fill="#95A39A"/>
<path d="M156.249 69.0922C156.129 68.8107 155.567 65.7553 154.965 62.3782C154.323 58.9609 153.6 55.9456 153.359 55.7044C152.837 55.1817 146.535 53.654 145.611 53.855C145.29 53.8952 144.527 54.3374 143.925 54.7797C143.283 55.2621 142.721 55.5435 142.64 55.4631C142.56 55.3827 142.359 54.4581 142.239 53.453C142.038 51.8046 142.119 51.5232 143.443 50.1563C144.286 49.2316 145.089 48.7089 145.531 48.8295C145.892 48.91 146.615 49.111 147.097 49.2718C147.779 49.4728 148.502 49.2316 149.626 48.4275C150.469 47.8245 151.191 47.1812 151.191 47.0204C151.191 46.8194 150.228 45.8947 149.023 44.97C147.819 44.0051 146.816 43.0402 146.816 42.7588C146.775 42.5176 147.659 41.7537 148.702 41.0703C150.429 39.9446 150.991 39.8239 153.52 39.8239H156.41V37.2509C156.41 35.0799 156.571 34.5975 157.414 33.7934C157.976 33.2707 158.417 32.5873 158.417 32.3059C158.417 31.9843 158.819 30.9791 159.26 30.0545C159.943 28.7679 160.023 28.2453 159.662 27.6825C159.26 27.0392 159.541 26.798 162.03 25.5517C163.556 24.7878 165.001 24.1445 165.202 24.1445C165.402 24.1445 165.884 24.627 166.245 25.23C166.928 26.2351 166.928 26.4361 166.286 28.9288C165.764 30.8585 165.202 31.9842 164.118 33.0697L162.673 34.5975L163.114 36.6881C163.917 40.5878 164.881 43.4423 165.402 43.4423C165.683 43.4423 166.848 42.598 168.012 41.6331C169.176 40.628 170.139 39.8239 170.18 39.8239C170.22 39.8239 171.625 40.1858 173.271 40.628C174.917 41.0702 177.205 41.4321 178.289 41.4321C180.216 41.4723 180.376 41.5527 182.303 43.7237L184.31 45.9751L181.5 48.5481L178.73 51.1212L179.373 52.8901C180.015 54.6189 180.015 54.6189 178.811 56.2672C178.168 57.1517 177.526 57.9156 177.446 57.9156C177.325 57.9156 176.402 57.4733 175.318 56.9105C171.826 55.1415 169.176 54.257 168.614 54.7395C168.333 54.9405 167.37 56.3878 166.486 57.9156C164.84 60.6494 164.8 60.6896 162.954 60.8102L161.027 60.9308L160.505 63.4235C160.063 65.3934 159.782 65.9563 159.22 65.9563C158.337 65.9563 157.775 66.5995 157.414 68.0469C157.093 69.3334 156.49 69.856 156.249 69.0922Z" fill="#95A39A"/>
<path d="M142.23 64.4681C142.15 64.2671 141.628 62.7393 141.146 61.0106C140.584 59.0808 139.982 57.8345 139.58 57.7541C139.219 57.6335 137.894 57.352 136.61 57.1108L134.281 56.6284L134.402 54.377L134.522 52.1658L136.329 51.6431C137.854 51.1607 138.256 51.2009 139.018 51.6833C139.5 52.005 140.183 52.2864 140.464 52.2864C140.865 52.2864 141.146 53.0101 141.307 54.6986C141.628 57.5129 141.989 57.6335 144.358 55.9449L145.963 54.779L149.255 55.5429C151.062 55.9851 152.627 56.3872 152.667 56.4676C152.748 56.5078 153.069 58.0757 153.39 59.9251C153.912 62.9001 153.912 63.3826 153.39 63.9052C152.868 64.4279 152.667 64.3877 151.664 63.6238C151.022 63.1816 150.259 62.7393 149.938 62.6589C149.456 62.5785 145.04 63.7846 142.993 64.5887C142.712 64.7093 142.35 64.6289 142.23 64.4681Z" fill="#95A39A"/>
<path d="M119.876 62.0157C119.233 60.7292 118.832 59.1612 118.671 57.1108L118.47 54.1358L116.022 53.4121C113.573 52.6885 111.927 51.2411 112.369 50.1154C112.489 49.8742 115.139 48.5073 118.27 47.0599C122.726 45.0096 124.091 44.2055 124.532 43.321C125.215 42.0747 125.134 42.0747 127.142 42.6778C128.547 43.0798 128.748 43.0396 129.831 42.1551C130.835 41.3108 131.598 41.1098 134.408 40.9088C136.295 40.7882 138.181 40.4666 138.663 40.1449C139.466 39.6625 139.747 39.7429 141.393 40.6274C142.397 41.1902 144.645 42.7984 146.411 44.2055C149.542 46.6579 149.583 46.7785 148.9 47.5424C148.218 48.2661 146.813 48.3063 145.006 47.6228C144.685 47.5022 143.601 48.3063 142.557 49.432L140.67 51.4421L139.587 50.6381C138.583 49.8742 138.462 49.8742 135.933 50.5577L133.324 51.2813L133.204 54.0152C133.083 56.6284 133.043 56.749 131.919 57.1511C130.795 57.5531 130.715 57.7139 130.715 59.6839C130.715 61.5332 130.594 61.8549 129.671 62.3373C128.747 62.86 128.587 62.8198 128.105 62.2167C127.463 61.292 127.182 61.3322 124.211 62.7393C122.846 63.3826 121.481 63.9454 121.281 63.9454C121.04 63.9454 120.397 63.061 119.876 62.0157Z" fill="#95A39A"/>
<path d="M49.0505 74.752H48.9972C48.5419 74.752 48.2305 75.2116 48.3994 75.6344C48.4317 75.7153 48.4801 75.7888 48.5417 75.8505L48.6479 75.9569C48.9057 76.2151 49.0505 76.565 49.0505 76.9299V76.9632C49.0505 77.3493 48.8973 77.7197 48.6244 77.9929L48.3052 78.3126C48.1341 78.4839 47.9365 78.6266 47.72 78.735L47.5185 78.8359C47.338 78.9263 47.1389 78.9733 46.937 78.9733H46.1133C45.8509 78.9733 45.6382 79.186 45.6382 79.4484C45.6382 79.6463 45.761 79.8235 45.9463 79.8931L46.628 80.1491C46.9986 80.2883 47.244 80.6427 47.244 81.0385C47.244 81.5632 46.8187 81.9886 46.2939 81.9886H46.2248C46.1024 81.9886 45.981 82.0106 45.8664 82.0537L45.1332 82.329C44.697 82.4929 44.373 82.866 44.2721 83.3209L44.1486 83.8774C44.0807 84.1832 43.8095 84.4008 43.4963 84.4008H43.4495C43.1063 84.4008 42.8281 84.679 42.8281 85.0222C42.8281 85.2574 42.9609 85.4724 43.1713 85.5777L44.1576 86.0716C44.3411 86.1635 44.512 86.2784 44.6663 86.4136L45.6744 87.297C45.9176 87.5101 46.1452 87.7404 46.3555 87.9861L46.8405 88.5527C47.1068 88.8639 47.4327 89.1187 47.799 89.3021C48.226 89.516 48.697 89.6273 49.1746 89.6273H50.2549H52.4621C52.7231 89.6273 52.9771 89.5425 53.1858 89.3858C53.4888 89.1582 53.6671 88.8012 53.6671 88.4222V88.2202V87.9349C53.6671 87.7244 53.6333 87.5153 53.5668 87.3156C53.5003 87.1159 53.4664 86.9067 53.4664 86.6963V86.4815C53.4664 86.3008 53.4813 86.1204 53.511 85.9421L53.6477 85.1205C53.6607 85.0429 53.6796 84.9664 53.7045 84.8917C53.8104 84.5735 54.0193 84.2997 54.2982 84.1135L54.3351 84.0889C54.4248 84.029 54.5084 83.9603 54.5847 83.884L55.0722 83.3957L55.1896 83.2782C55.3715 83.096 55.4736 82.8491 55.4736 82.5917V81.9886V81.6404C55.4736 81.4711 55.4944 81.3025 55.5354 81.1383L55.6056 80.8571C55.6506 80.6767 55.7437 80.512 55.8751 80.3805L56.3737 79.7979C56.8346 79.2594 57.1326 78.6006 57.2327 77.8988L57.2522 77.7621C57.2708 77.6318 57.3011 77.5034 57.3426 77.3784L57.5472 76.7638C57.632 76.509 57.5946 76.2294 57.4458 76.0059C57.3385 75.8446 57.1803 75.7237 56.9965 75.6624L56.6141 75.5347C56.2619 75.4171 55.8843 75.3976 55.5219 75.4783L54.956 75.6042C54.5075 75.704 54.0969 75.9297 53.7722 76.2549L53.6458 76.3815C53.2739 76.7539 52.7692 76.9632 52.243 76.9632H52.1004C51.942 76.9632 51.7851 76.9329 51.6381 76.874L51.1583 76.6818C50.9763 76.6089 50.857 76.4326 50.857 76.2366V76.0581C50.857 75.8918 50.7222 75.757 50.5559 75.757C50.3897 75.757 50.2549 75.6222 50.2549 75.456V75.2545C50.2549 74.977 50.0299 74.752 49.7523 74.752H49.0505Z" fill="#95A39A"/>
<path d="M54.4688 85.3897V85.8081V86.5824C54.4688 87.4016 54.5929 88.2161 54.8369 88.9981L55.2428 90.299C55.3933 90.7812 55.6659 91.2163 56.0341 91.562L56.1214 91.6439C57.4387 92.8807 59.5617 92.5847 60.4904 91.0346L61.8955 89.2254C62.692 88.2948 63.6479 87.5134 64.7183 86.9178L64.9063 86.8132L66.4677 86.1182C66.6302 86.0459 66.8025 85.9979 66.9791 85.9758C67.7738 85.8763 68.4087 85.2665 68.5402 84.4764L68.7791 83.0408C68.8706 82.4914 68.7636 81.9275 68.4774 81.4497C68.372 81.2738 68.2901 81.0848 68.2338 80.8876L68.1179 80.4811C67.9846 80.0141 67.7907 79.5666 67.5411 79.1499L67.2601 78.6808C66.8963 78.0737 66.6001 77.4286 66.3766 76.7571L66.3114 76.5613C65.9492 75.594 65.0248 74.9531 63.992 74.9531H63.702H62.5387C62.1322 74.9531 61.7478 75.1381 61.494 75.4557C61.2403 75.7733 60.8559 75.9582 60.4494 75.9582H60.1587C59.6037 75.9582 59.0753 76.1958 58.7068 76.6108L58.3606 77.0009C57.9223 77.4947 57.6803 78.132 57.6803 78.7922V79.3158C57.6803 79.8579 57.4187 80.3667 56.9778 80.6821C56.5369 80.9975 56.2753 81.5063 56.2753 82.0485V82.6082C56.2753 83.2095 55.9213 83.7544 55.372 83.9989C54.8227 84.2434 54.4688 84.7884 54.4688 85.3897Z" fill="#95A39A"/>
<path d="M46.1468 74.5507H45.5028C45.2135 74.5507 44.9435 74.4061 44.7832 74.1653C44.6887 74.0234 44.6383 73.8567 44.6383 73.6863V73.1238C44.6383 72.4871 44.4153 71.8706 44.0081 71.3812L43.6347 70.9324L43.2583 70.3658C42.9096 69.8408 42.3212 69.5253 41.6909 69.5253H41.5489C41.0892 69.5253 40.6525 69.3242 40.3536 68.975L40.3233 68.9395C39.903 68.4485 39.2166 68.2799 38.6166 68.5202L38.0691 68.8248C37.516 69.1326 37.5112 69.9265 38.0606 70.2409C38.1624 70.2992 38.2505 70.3788 38.3186 70.4744L38.7172 71.0332C38.9917 71.4181 38.8935 71.9537 38.5004 72.2161C38.2084 72.4111 37.8259 72.4032 37.5422 72.1966L35.8065 70.9324L35.5613 70.7687C34.9943 70.3901 34.2445 70.4354 33.7271 70.8795C33.3907 71.1683 33.1971 71.5896 33.1971 72.0329V73.1175C33.1971 73.6212 32.8971 74.0765 32.4342 74.2751C32.0348 74.4466 31.752 74.8118 31.686 75.2415L31.5931 75.846C31.4674 76.664 31.779 77.4881 32.4144 78.0184L32.427 78.0289C32.5387 78.1221 32.6588 78.205 32.7856 78.2764L33.765 78.8282C35.1174 79.59 36.3405 80.5616 37.3886 81.7067L38.0145 82.3904L40.3935 84.4326C40.6716 84.6714 41.0261 84.8027 41.3928 84.8027C41.8001 84.8027 42.1906 84.6407 42.4784 84.3525L42.8318 83.9986L43.3939 83.4357C43.5534 83.2759 43.6861 83.0916 43.7869 82.8896C43.9502 82.5625 44.1961 82.2837 44.5001 82.0807L45.0748 81.697C45.1842 81.6239 45.3068 81.5731 45.4358 81.5473L45.8863 81.457C46.0943 81.4153 46.2441 81.2326 46.2441 81.0204C46.2441 80.8716 46.1698 80.7327 46.0461 80.6501L45.5383 80.3111C45.2268 80.1031 45.0398 79.7533 45.0398 79.3787C45.0398 78.8964 45.3483 78.4681 45.8058 78.3154L46.2441 78.1691L47.0356 77.9426C47.4226 77.8319 47.7366 77.5482 47.8859 77.1744C47.9927 76.907 48.0077 76.6117 47.9288 76.3349L47.769 75.7749C47.6904 75.4994 47.5429 75.2484 47.3405 75.0457C47.0241 74.7288 46.5946 74.5507 46.1468 74.5507Z" fill="#95A39A"/>
<path d="M32.7922 66.309L32.9399 66.5309C33.6067 67.5326 33.7743 68.7857 33.3943 69.9273L32.8977 71.4194C32.8278 71.6294 32.7922 71.8494 32.7922 72.0707V72.6739C32.7922 73.085 32.56 73.4609 32.1925 73.6449C32.0584 73.712 31.9398 73.8061 31.8439 73.9213L31.1105 74.8027C31.0282 74.9017 30.9674 75.0167 30.9321 75.1405L30.7633 75.7321C30.6748 76.0424 30.3096 76.1766 30.0412 75.9974C30.002 75.9712 29.9591 75.951 29.9139 75.9374L28.327 75.4606C28.0935 75.3905 27.8509 75.3548 27.6071 75.3548H27.1565C26.7808 75.3548 26.4206 75.5042 26.1552 75.77L26.0191 75.9063C25.7396 76.1862 25.3302 76.2924 24.9498 76.1836C24.4829 76.05 24.1611 75.6231 24.1611 75.1375V74.7352C24.1611 74.3562 24.0284 73.9892 23.786 73.6979L23.4777 73.3274C23.2657 73.0727 23.0124 72.8554 22.7284 72.6848L21.1503 71.7365L20.5976 71.429C19.8236 70.9984 19.3438 70.1822 19.3438 69.2965V69.178C19.3438 68.8776 19.4136 68.5813 19.5478 68.3126C19.8005 67.8064 20.2618 67.436 20.8106 67.2986L22.0965 66.9767C22.2683 66.9337 22.4364 66.877 22.5991 66.8071C23.3466 66.4863 24.186 66.4513 24.9576 66.7089L25.5661 66.9121L26.1401 67.1584C26.6067 67.3587 27.1484 67.1602 27.3752 66.706C27.5009 66.4542 27.5095 66.1598 27.3988 65.9011L27.3207 65.7185C27.1204 65.2505 27.2963 64.7065 27.7326 64.4444C27.8911 64.3491 28.0725 64.2988 28.2574 64.2988H29.0584C29.6658 64.2988 30.2648 64.4404 30.8079 64.7124L31.0224 64.8197C31.6594 65.1387 32.2195 65.5922 32.6642 66.1488L32.7922 66.309Z" fill="#95A39A"/>
<path d="M13.0565 85.1551H11.3995C11.0387 85.1551 10.7014 85.3341 10.4992 85.6329C10.3775 85.8128 10.3125 86.025 10.3125 86.2421V86.914V88.0026C10.3125 88.4433 10.4164 88.8777 10.6158 89.2707L10.6381 89.3146C10.7603 89.5553 10.9206 89.7746 11.1129 89.964L11.5518 90.3965C11.7382 90.5801 11.9894 90.6831 12.2511 90.6831H12.2993C12.645 90.6831 12.9614 90.8773 13.1179 91.1856C13.2744 91.4939 13.5908 91.6882 13.9365 91.6882H15.1582H15.9208C16.5903 91.6882 17.2475 91.8679 17.8238 92.2086C18.086 92.3636 18.3283 92.5501 18.5453 92.7639L18.7287 92.9445L19.1441 93.3539C19.7081 93.9095 20.4035 94.3134 21.1656 94.5279L21.2981 94.5652C21.6239 94.6569 21.9607 94.7035 22.2992 94.7035H22.5233C22.713 94.7035 22.9019 94.7295 23.0845 94.7809L23.7997 94.9823C24.2698 95.1146 24.5945 95.5433 24.5945 96.0317C24.5945 96.1505 24.6139 96.2685 24.652 96.381L25.1683 97.907C25.2931 98.2761 25.5225 98.6009 25.8285 98.8421L27.2759 99.983C27.7015 100.318 28.3313 100.117 28.484 99.5975L28.4893 99.5796C28.546 99.3864 28.6808 99.2257 28.8611 99.1361C29.0651 99.0348 29.3049 99.0355 29.5082 99.1381L29.5901 99.1795C29.7167 99.2433 29.8564 99.2766 29.9982 99.2766H30.3132C30.4096 99.2766 30.5043 99.2514 30.588 99.2035C30.8192 99.0711 30.9232 98.7927 30.8353 98.5411L30.5063 97.5991C30.4757 97.5115 30.4382 97.4264 30.3941 97.3447L30.041 96.6902C29.8703 96.3737 29.6407 96.0927 29.3646 95.8623C28.8566 95.4383 28.1949 95.1174 27.889 94.5306C27.765 94.2927 27.6201 94.0378 27.3739 93.8491C27.0847 93.6275 27.0443 93.4059 27.0383 93.208C27.0273 92.8395 26.803 92.5221 26.6362 92.1934C26.4676 91.8613 26.3798 91.4941 26.3798 91.1216V90.9443C26.3798 90.7705 26.3943 90.597 26.4233 90.4256L26.6348 89.1755L26.7222 88.6588C26.8337 87.9993 26.8898 87.3316 26.8898 86.6627L26.6348 84.4013V83.4426C26.6348 83.0781 26.5894 82.7149 26.4998 82.3615C26.42 82.0472 26.3057 81.7426 26.1589 81.4534L25.8697 80.8835L25.1854 79.7036C24.9654 79.3243 24.8495 78.8936 24.8495 78.4551V77.3815C24.8495 77.0655 24.6658 76.7783 24.3788 76.6458C24.0215 76.4809 23.5974 76.5965 23.3732 76.9199L23.2007 77.1689C23.1119 77.297 23.0643 77.4492 23.0643 77.6051C23.0643 78.0279 22.7215 78.3707 22.2986 78.3707H21.9927C21.8582 78.3707 21.7249 78.3454 21.5997 78.2961L20.847 77.9995C20.6272 77.9128 20.4272 77.7827 20.2589 77.6169C20.0906 77.4511 19.8906 77.321 19.6708 77.2344L18.7287 76.8631L17.1985 76.3606L15.9158 75.9393C15.753 75.8858 15.6047 75.7954 15.4826 75.6751C15.2747 75.4703 14.9946 75.3555 14.7027 75.3555H13.3654C13.0879 75.3555 12.8629 75.5805 12.8629 75.858V76.3853C12.8629 76.9929 13.1837 77.5553 13.7068 77.8646L13.784 77.9102C14.0152 78.0469 14.2026 78.2467 14.3241 78.4862C14.5278 78.8874 14.5278 79.3617 14.3241 79.7629L14.3014 79.8076C14.194 80.0193 14.138 80.2534 14.138 80.4907V80.6704C14.138 81.1223 14.3451 81.5493 14.7 81.829C15.1374 82.1737 15.3433 82.7353 15.2326 83.281L15.1582 83.6475C14.8533 84.5486 14.0079 85.1551 13.0565 85.1551Z" fill="#95A39A"/>
</svg>
