<svg width="621" height="551" viewBox="0 0 621 551" fill="none" xmlns="http://www.w3.org/2000/svg">
<path d="M194.994 220.077C194.174 219.137 192.887 212.563 192.185 205.519C191.482 198.357 190.312 192.135 189.727 191.548C189.025 190.961 185.982 189.552 182.938 188.378C178.257 186.734 176.501 185.091 173.107 179.807C169.245 173.702 169.128 173.115 170.415 168.772C171.117 166.306 172.405 163.958 173.224 163.723C175.565 162.784 184.109 166.423 189.961 170.767C193.589 173.585 196.632 174.994 199.207 174.994C202.367 174.994 203.772 175.933 207.166 180.042C211.028 184.738 211.379 185.795 211.379 192.722C211.262 203.992 209.858 208.454 204.24 214.794C198.154 221.603 196.749 222.307 194.994 220.077Z" fill="#418F55" fill-opacity="0.7"/>
<path d="M183.524 123.455C182.236 122.633 182.236 121.576 183.407 117.702C185.513 110.305 184.577 109.249 175.916 109.249H168.425L167.606 103.261C166.904 97.9782 166.436 97.1563 162.807 95.3953C160.584 94.3387 158.711 92.8124 158.711 91.8732C158.711 89.8773 167.84 76.376 169.245 76.376C169.83 76.376 170.649 77.4326 171 78.6067C172.171 82.2462 187.854 85.8857 191.014 83.3028C192.068 82.3636 197.334 81.4243 203.304 81.0721C212.901 80.4851 213.603 80.6025 214.188 82.8331C215.476 87.5293 214.774 90.934 211.848 94.9257C208.102 99.6218 205.996 108.779 207.985 111.127C209.039 112.419 208.805 112.771 206.932 112.771C205.527 112.771 202.601 115.119 199.675 118.641C195.228 123.924 194.291 124.511 189.961 124.511C187.269 124.394 184.343 124.042 183.524 123.455Z" fill="#418F55" fill-opacity="0.7"/>
<path d="M415.731 115.474L407.655 110.073L403.324 112.656C396.887 116.295 390.684 115.826 383.545 111.247C378.629 108.077 377.692 107.021 378.044 104.555C378.395 102.442 377.107 100.211 372.309 95.2803C366.339 89.0579 365.988 88.8231 363.179 90.3494C360.136 91.8756 354.05 91.406 350.773 89.4102C348.315 87.7665 355.338 81.8964 365.871 76.4958C370.67 73.913 376.288 71.0953 378.161 70.0386C380.619 68.7472 384.715 68.1602 391.386 68.1602C403.442 68.1602 408.825 70.5082 414.209 78.3742C422.168 89.8797 424.743 91.993 434.809 95.0455C443.704 97.6284 444.406 97.7458 446.396 95.8673C449.088 93.5193 454.823 93.2845 454.823 95.5151C454.823 96.4544 454.003 97.8631 453.067 98.685C451.897 99.6242 451.311 102.207 451.311 106.316V112.539L444.757 111.952C439.256 111.482 437.5 111.834 433.872 114.182C422.636 121.696 424.626 121.579 415.731 115.474Z" fill="#418F55" fill-opacity="0.7"/>
<path d="M215.706 110.658C210.205 108.78 209.971 108.545 210.556 105.023C210.907 102.91 212.78 99.0353 214.769 96.335C218.047 91.7563 218.281 90.8171 217.695 84.5947C216.993 78.842 217.227 77.7854 218.983 77.081C220.387 76.494 222.143 77.1984 224.25 79.1942C227.176 82.1293 227.761 82.2467 238.412 81.5423C244.498 81.1901 250.701 80.7204 252.34 80.4856C254.68 80.1334 255.734 80.8378 257.255 83.4207C258.426 85.4166 260.064 86.9428 261.001 86.9428C263.575 86.9428 266.384 91.639 266.384 96.1003C266.384 99.0354 265.448 100.914 262.756 103.497C258.66 107.371 256.085 107.606 248.594 105.023L243.21 103.144L235.603 107.958C227.41 113.241 224.601 113.593 215.706 110.658Z" fill="#418F55" fill-opacity="0.7"/>
<path d="M350.89 119.349C341.994 107.961 336.025 102.208 333.45 102.208C332.163 102.208 330.407 101.386 329.588 100.447C328.418 98.9204 328.535 98.216 330.29 96.2202C332.046 94.2243 332.163 93.4025 330.993 91.5241C328.886 88.1194 330.173 86.9453 335.908 86.9453C339.302 86.9453 341.994 87.7672 344.803 89.763C349.953 93.6373 360.37 96.1028 362.945 93.9895C364.466 92.6981 365.169 92.8155 367.275 94.694C373.127 99.7423 375.117 102.677 374.415 105.847C373.947 108.548 374.532 109.369 378.628 111.6C384.012 114.652 384.714 116.296 380.852 116.296C379.448 116.296 377.107 117.353 375.702 118.762C373.596 120.64 372.659 120.875 370.787 119.936C366.339 117.47 362.594 118.292 360.604 122.049C359.668 123.927 358.38 125.806 357.795 126.158C357.21 126.51 354.05 123.458 350.89 119.349Z" fill="#418F55" fill-opacity="0.7"/>
<path d="M209.279 177.462C206.353 173.822 204.481 172.648 200.618 172.061C197.575 171.474 193.245 169.479 189.734 166.778C186.573 164.43 181.658 161.847 178.966 161.026C174.869 159.852 173.933 159.03 173.933 156.916C173.933 155.39 172.88 151.164 171.592 147.407C168.549 138.484 168.549 138.132 173.348 135.901C175.572 134.845 178.264 132.262 179.2 130.266C181.073 126.626 181.424 126.509 187.159 127.096C192.777 127.683 193.596 128.27 199.448 134.61C208.109 144.237 208.928 145.528 210.333 153.042C211.386 158.795 212.322 160.556 217.94 166.074C221.452 169.596 224.261 173.001 224.261 173.588C224.261 174.175 222.856 175.583 221.101 176.758C212.205 182.51 213.259 182.393 209.279 177.462Z" fill="#418F55" fill-opacity="0.7"/>
<path d="M248.598 192.489C245.672 190.962 243.916 188.966 242.98 186.149C242.278 183.918 240.99 181.57 240.288 181.1C239.469 180.631 237.947 178.87 236.894 177.109C235.723 175.348 233.266 173.704 231.276 173.234C229.286 172.765 226.243 170.534 224.253 168.069L220.742 163.842L224.839 163.49C228.35 163.138 229.754 162.081 233.851 156.446C236.426 152.689 239.001 149.284 239.586 148.697C240.054 148.11 241.81 149.167 243.331 150.928L246.14 154.215L251.29 152.102C254.099 151.045 257.025 149.871 257.727 149.519C258.898 149.049 271.07 163.725 271.07 165.486C271.07 165.838 268.144 168.303 264.633 170.886L258.195 175.582L258.429 184.27C258.781 192.723 258.663 193.076 255.737 193.78C253.865 194.367 251.29 193.897 248.598 192.489Z" fill="#418F55" fill-opacity="0.7"/>
<path d="M281.132 98.2128C280.781 96.804 280.43 93.9863 280.43 91.9905C280.43 88.4684 280.781 88.2335 285.58 87.4117C292.251 86.4725 293.304 87.1769 293.304 92.8122C293.304 97.978 293.07 98.0954 286.633 99.6217C282.185 100.561 281.717 100.443 281.132 98.2128Z" fill="#418F55" fill-opacity="0.7"/>
<path d="M274.111 129.561C273.877 129.209 274.345 127.33 275.165 125.335C276.569 121.93 276.335 120.991 272.59 112.772C269.196 105.259 268.61 103.145 269.313 98.4493C270.132 91.9921 267.206 84.5957 263.929 84.5957C262.875 84.5957 260.769 82.7172 259.364 80.4866L256.906 76.3774L260.769 69.3333C263.929 63.5805 265.333 62.0543 268.727 61.1151C275.399 59.2366 277.74 59.7063 280.783 63.5806C283.358 66.8678 284.879 67.4549 295.062 69.4507C309.692 72.2684 317.768 78.0211 309.692 79.8995C307.585 80.3692 306.415 82.2476 304.308 88.5874C301.85 95.6316 301.733 97.2752 302.903 101.267C303.606 103.732 305.712 107.137 307.585 108.663C311.447 111.833 311.564 112.89 308.638 119.23C306.532 123.926 306.298 124.043 297.871 125.569C293.072 126.391 285.932 127.8 281.953 128.622C277.974 129.444 274.462 129.796 274.111 129.561ZM288.624 102.324L296.232 100.21L296.583 93.8705C297.051 84.5957 295.764 83.4217 285.698 84.3609L277.505 85.1827L277.857 93.4009C278.208 102.089 278.676 104.554 280.08 104.554C280.666 104.554 284.411 103.498 288.624 102.324Z" fill="#418F55" fill-opacity="0.7"/>
<path d="M215.363 158.328C214.778 157.506 213.724 153.631 212.905 149.874C211.735 144.122 210.447 142.008 204.361 135.434C200.265 130.973 197.573 127.333 198.158 126.511C201.201 120.993 205.883 116.415 207.521 117.119C208.575 117.471 209.979 117.002 210.915 115.71C212.32 113.832 213.139 113.832 220.63 115.241L228.823 116.767L229.525 122.52C230.11 126.394 231.515 129.446 233.738 132.029C238.888 137.899 238.537 144.474 232.685 152.692C228.472 158.914 228.12 159.149 222.268 159.502C218.289 159.736 215.948 159.267 215.363 158.328Z" fill="#418F55" fill-opacity="0.7"/>
<path d="M302.784 171.12C299.155 167.481 299.038 167.481 293.654 168.89C289.792 169.946 287.919 170.064 287.685 169.124C286.749 166.424 283.589 164.428 280.078 164.428C275.279 164.311 274.694 163.959 268.256 155.623C262.404 147.992 262.053 147.287 264.628 146.348C265.565 145.996 267.671 143.061 269.31 139.774C271.182 136.017 273.172 133.669 274.928 133.316C281.131 131.79 302.315 128.033 304.539 128.033C306.997 128.033 316.477 138.952 323.032 149.401L326.426 155.036L317.765 164.193C312.966 169.359 308.519 173.703 307.699 174.173C306.997 174.525 304.773 173.116 302.784 171.12Z" fill="#418F55" fill-opacity="0.7"/>
<path d="M193.468 77.316C189.957 75.3201 190.893 62.4058 195.458 48.3174C199.203 37.0467 200.023 35.5204 206.46 29.0633C213.365 22.1365 213.482 22.1365 217.462 23.5453C220.739 24.7194 222.846 27.0674 228.23 35.9901L235.018 47.0259H243.679H252.34L257.022 53.0135C259.597 56.3008 261.703 59.3532 261.703 59.9403C261.703 61.2317 254.798 74.146 253.042 76.0245C252.106 76.9637 247.073 77.903 239.817 78.2552L227.995 79.077L225.069 75.6723L222.143 72.2676L216.525 74.8505C210.322 77.5507 196.511 79.077 193.468 77.316Z" fill="#418F55" fill-opacity="0.7"/>
<path d="M268.022 215.735C259.361 206.343 257.371 203.76 256.552 200.473C255.967 197.773 256.201 197.186 258.893 196.599C261.819 195.777 261.819 195.659 261.585 186.619C261.351 181.571 261.468 177.227 261.819 176.992C270.246 170.065 274.225 167.952 278.322 167.952C281.95 167.952 283.12 168.422 284.174 170.887C285.695 174.175 285.812 174.292 292.835 172.414C297.75 171.239 298.453 171.357 300.676 173.705L303.251 176.288L299.974 178.636L296.697 181.101L297.516 194.955L298.336 208.808L286.514 214.796C279.96 218.083 274.225 220.784 273.64 220.784C273.172 220.784 270.597 218.553 268.022 215.735Z" fill="#418F55" fill-opacity="0.7"/>
<path d="M310.745 71.2116C308.521 69.2158 304.542 67.9244 296.583 66.5155C286.4 64.6371 285.347 64.1675 282.304 60.2932C279.144 56.3015 278.793 56.184 273.76 57.0058C270.834 57.358 267.791 57.9451 267.088 58.2973C266.269 58.5321 263.226 55.597 260.183 51.7227L254.682 44.6785H246.84C242.393 44.5611 238.296 44.2089 237.594 43.7393C235.839 42.5653 225.422 25.6592 225.422 24.0156C225.422 23.1938 227.06 21.9024 228.933 21.1979C233.264 19.3195 234.2 17.6758 235.37 10.0446C236.775 0.0653883 239.701 -2.6349 243.212 2.64823C244.5 4.64409 247.66 5.81814 256.555 7.69659C262.875 9.10542 269.78 10.9839 271.887 11.8057C275.164 13.2145 276.335 13.0971 283.474 10.0446L291.316 6.63997L298.104 13.9189C303.956 20.2587 305.244 21.0805 307.234 20.0239C310.745 18.1455 312.735 18.4977 318.704 22.372C322.8 24.9548 325.609 25.8941 329.705 25.8941C334.504 25.8941 335.323 26.2463 335.909 28.7117C336.962 32.9382 334.855 37.1648 328.652 43.2697C321.747 49.9617 317.65 59.7061 320.108 63.5804C321.396 65.6937 321.161 66.5155 318.47 69.9202C316.831 72.1508 315.075 74.0293 314.607 73.9119C314.139 73.9119 312.383 72.7379 310.745 71.2116Z" fill="#418F55" fill-opacity="0.7"/>
<path d="M244.376 146.703C243.323 144.825 242.036 143.298 241.567 143.298C240.982 143.298 240.631 141.42 240.631 139.189C240.631 136.254 239.578 133.906 237.003 130.971C233.843 127.332 233.258 125.805 233.14 120.053L233.023 113.478L238.29 110.191L243.557 106.904L250.463 108.899C257.251 110.778 257.485 110.778 261.699 108.312L266.146 105.729L269.423 113.126C273.169 121.579 273.169 121.814 270.828 127.684C263.922 144.473 264.273 144.003 253.037 147.877L246.366 150.225L244.376 146.703Z" fill="#418F55" fill-opacity="0.7"/>
<path d="M317.313 136.019C308.652 125.101 309.003 126.51 312.515 118.644L315.558 111.6L311.344 107.725C305.258 102.207 304.556 99.5071 306.897 90.8193C307.95 86.7102 309.237 83.4229 309.588 83.4229C309.94 83.4229 311.812 85.3013 313.685 87.6494C316.845 91.6411 317.313 91.7585 321.995 91.0541C327.964 90.2322 329.72 91.7585 326.559 95.2806C324.57 97.3939 324.57 97.8635 326.208 100.799C327.145 102.56 329.72 104.555 331.826 105.26C337.093 106.904 354.649 126.745 352.66 128.74C351.489 129.915 324.57 142.124 323.282 142.007C322.58 142.007 319.888 139.307 317.313 136.019Z" fill="#418F55" fill-opacity="0.7"/>
<path d="M212.556 240.743C209.63 238.864 206.821 237.338 206.119 237.221C205.183 237.221 200.618 230.529 198.746 226.537C198.629 226.067 201.555 222.311 205.417 218.084C213.025 209.631 214.897 204.348 214.897 191.551V184.742L221.452 180.28C228.825 175.349 232.922 175.349 234.794 180.28C235.379 181.924 236.433 183.215 237.135 183.215C237.837 183.215 239.359 185.563 240.646 188.381C242.285 192.255 243.923 194.134 246.849 195.308C251.063 197.069 254.691 201.178 254.691 204.23C254.691 205.287 258.437 209.983 262.884 214.914C270.258 222.898 271.077 224.189 271.077 228.65C271.077 234.755 269.204 235.225 263.118 230.529C259.373 227.711 258.554 227.476 250.361 228.181C245.562 228.533 241.349 229.12 240.997 229.355C240.646 229.707 240.061 231.82 239.593 233.933C238.891 237.338 237.954 238.16 231.985 240.508C221.569 244.617 218.643 244.735 212.556 240.743Z" fill="#418F55" fill-opacity="0.7"/>
<path d="M316.246 85.7697C313.671 82.952 314.49 79.7822 319.64 73.4424C324.907 66.7504 325.141 66.1635 323.619 63.2284C321.396 59.1193 324.439 51.9576 331.461 44.9135C339.303 37.1649 341.878 37.0475 348.081 43.7394L352.762 48.6704L356.04 46.4397C358.966 44.4438 359.317 44.4439 360.721 46.3223C362.126 48.3182 364.701 63.1109 364.701 69.8029C364.701 72.8554 364.115 73.9121 362.009 74.3817C360.604 74.7339 356.625 77.5515 353.114 80.4866C348.198 84.7131 346.208 85.7697 344.336 85.0653C340.122 83.6565 325.96 84.5957 324.087 86.3567C321.747 88.7048 318.587 88.47 316.246 85.7697Z" fill="#418F55" fill-opacity="0.7"/>
<path d="M107.093 358.38C106.273 356.619 105.337 354.74 105.103 354.271C104.869 353.801 105.922 353.449 107.444 353.449C108.965 353.332 110.955 352.862 111.891 352.275C113.296 351.336 113.413 350.749 112.242 348.753C109.785 344.879 110.487 343.352 115.285 341.122C119.733 339.126 123.127 334.43 121.84 332.199C121.372 331.612 119.382 331.142 117.158 331.142C112.711 331.142 107.678 326.799 106.507 321.985C105.454 317.876 106.741 317.524 110.721 320.928C113.413 323.159 115.754 324.098 119.031 324.098C123.244 324.098 123.829 324.45 125.468 328.207C127.809 333.843 128.979 346.64 127.341 349.457C126.17 351.453 125.936 351.336 124.766 347.814C123.946 345.7 122.776 344.057 121.957 344.057C121.255 344.057 118.329 347.931 115.402 352.862C112.594 357.676 109.902 361.667 109.433 361.667C109.082 361.667 108.029 360.141 107.093 358.38Z" fill="#418F55"/>
<path d="M261.12 406.749C253.395 405.928 246.139 405.458 245.085 405.81C243.915 406.162 242.276 405.928 241.223 405.341C239.818 404.519 240.404 403.462 244.617 399.236L249.884 394.187L247.543 389.609C244.968 384.443 244.617 384.795 254.917 382.799C258.662 381.977 261.939 381.038 262.173 380.568C262.407 380.216 262.173 377.164 261.588 373.994C260.535 368.593 260.769 368.006 264.631 362.254C266.855 358.966 268.727 355.914 268.727 355.444C268.727 354.975 266.036 354.622 262.758 354.622H256.672L257.492 345.23C257.96 339.243 257.726 334.077 256.789 330.672C256.087 327.737 255.736 324.919 256.204 324.45C256.789 323.98 261.237 323.628 266.153 323.745C273.877 323.863 275.399 324.332 277.154 326.446C279.729 329.616 279.846 331.846 277.506 334.194C275.633 336.073 275.399 339.712 276.803 343.469C277.389 344.878 276.92 348.165 275.633 352.04C273.058 359.553 273.526 360.727 280.9 366.245C283.826 368.476 286.518 371.059 286.752 372.115C287.103 373.172 287.688 378.69 288.039 384.56L288.859 395.244L283.943 397.24C279.027 399.118 278.91 399.118 279.729 403.814C280.549 409.332 282.304 409.097 261.12 406.749Z" fill="#418F55" fill-opacity="0.7"/>
<path d="M167.848 452.775C166.795 450.662 166.327 448.314 166.678 447.727C167.146 447.022 173.232 442.796 180.372 438.217C193.012 429.999 193.246 429.881 195.353 432.112C196.523 433.403 198.513 434.46 199.683 434.46C203.78 434.46 202.492 438.921 197.928 441.152C194.768 442.678 193.48 444.204 192.076 448.548L190.203 454.066L181.776 454.888C177.211 455.358 172.53 455.945 171.476 456.18C170.306 456.532 169.019 455.358 167.848 452.775Z" fill="#418F55"/>
<path d="M180.49 505.721C180.139 504.313 179.788 499.382 179.788 494.92C179.788 487.172 179.554 486.467 173.819 477.78C168.552 469.679 168.084 468.27 168.786 464.396C169.723 459.112 172.297 457.938 183.299 457.938C192.077 457.938 192.194 457.821 195.003 450.307C196.057 447.724 197.929 445.024 199.334 444.32C204.484 441.854 205.654 439.976 205.303 435.749C205.069 432.11 204.484 431.405 201.792 431.171C198.632 430.701 196.993 428.94 191.726 420.135L189.151 415.908L199.217 410.39L209.282 404.755L215.603 411.095C222.508 417.904 222.976 418.843 219.933 420.017C214.198 422.013 213.73 423.422 214.549 436.806C215.369 450.894 215.486 450.307 206.59 462.048L202.143 468.035L201.792 486.702L201.441 505.487L195.589 506.778C192.429 507.6 187.864 508.187 185.523 508.304C182.012 508.422 181.076 507.952 180.49 505.721Z" fill="#418F55"/>
<path d="M162.697 443.264C162.229 442.09 162.931 440.212 164.57 438.568C166.911 436.103 167.145 434.929 166.442 429.176L165.623 422.719H174.284C184.818 422.719 189.968 423.658 190.787 425.654C191.255 426.945 186.456 430.35 166.091 443.617C163.75 445.025 163.399 445.025 162.697 443.264Z" fill="#418F55"/>
<path d="M137.179 412.975C136.009 408.984 134.136 404.522 132.731 403.113L130.391 400.531L136.243 397.595L142.095 394.543L148.415 398.065C151.809 399.944 158.129 403.348 162.46 405.696L170.302 409.805L167.961 413.797C165.62 417.671 165.62 417.789 158.832 417.084C154.15 416.732 150.171 417.084 146.308 418.376C143.265 419.432 140.456 420.372 139.988 420.372C139.52 420.372 138.349 417.084 137.179 412.975Z" fill="#418F55"/>
<path d="M219.219 410.625C213.484 405.342 212.08 403.112 210.09 396.889C208.803 392.78 205.994 385.501 203.77 380.688C201.546 375.874 199.322 369.769 198.971 367.069C198.152 362.021 191.363 348.637 187.735 344.997C186.565 343.706 183.99 342.884 181.649 342.884C178.372 342.884 177.553 342.414 177.201 340.184C176.967 338.07 176.265 337.601 173.222 337.953C171.115 338.07 169.009 337.483 168.306 336.544C167.136 335.253 167.955 334.783 172.988 334.079C176.382 333.609 180.127 332.435 181.181 331.496C182.936 329.852 183.405 330.204 186.214 334.666C187.969 337.366 189.959 341.24 190.778 343.353C193.47 350.632 194.406 351.454 201.078 351.924C207.398 352.511 207.515 352.393 209.037 348.754C210.558 345.114 210.675 344.997 216.059 345.819L221.677 346.523L226.008 339.479C228.348 335.487 229.987 331.731 229.519 331.144C229.168 330.439 226.71 329.969 224.135 329.969C220.273 329.969 219.453 329.617 219.804 327.856C220.156 326.213 221.677 325.743 228.934 325.508C235.722 325.156 238.297 324.569 240.17 322.808C242.861 320.225 244.149 320.812 244.149 324.569C244.149 328.326 246.373 330.087 249.182 328.561C253.161 326.447 254.097 329.148 254.097 343.236V356.385L258.545 356.737C260.886 356.972 262.876 357.559 262.876 358.146C262.876 358.733 261.588 361.081 259.949 363.429C258.077 366.364 257.375 368.713 257.726 370.826C259.247 378.574 259.364 378.574 251.171 380.101C247.075 381.04 243.096 382.214 242.51 382.801C241.808 383.388 242.276 385.736 243.564 388.671L245.788 393.485L240.17 398.885C234.552 404.403 234.552 404.403 237.009 406.399C240.287 409.099 240.17 409.921 235.722 412.973C228.465 417.787 226.71 417.435 219.219 410.625Z" fill="#418F55"/>
<path d="M125.593 396.776C122.901 394.663 108.973 372.473 109.793 371.651C110.027 371.417 112.836 370.008 115.996 368.716L121.731 366.251L125.359 370.595L129.104 374.939L132.967 372.943C138.234 370.36 139.17 370.478 141.394 374.352C143.266 377.404 143.266 377.639 141.394 378.813C139.521 379.987 139.521 380.457 141.394 385.388L143.266 390.788L139.755 392.197C137.882 393.019 134.488 394.897 132.381 396.424C128.519 399.006 128.402 399.006 125.593 396.776Z" fill="#418F55"/>
<path d="M126.526 366.952C124.77 364.721 122.78 362.843 121.961 362.843C121.259 362.843 117.631 364.369 114.002 366.13C110.257 367.891 106.863 369.065 106.395 368.595C105.927 368.126 103.586 367.187 101.245 366.482C96.2121 364.839 95.5099 362.49 95.5099 346.171C95.5099 337.836 94.9247 334.196 91.8816 325.626C87.2 312.242 85.2103 305.08 84.274 298.036C83.5717 292.988 83.8058 292.401 85.7955 292.401C86.9659 292.401 88.9556 293.927 90.009 295.923C92.7009 300.384 94.4565 300.267 100.894 295.688C105.692 292.166 106.395 292.049 113.534 292.753C122.429 293.575 123.366 292.87 123.834 284.652C124.185 278.312 123.834 278.547 133.782 280.073C137.177 280.66 137.528 281.013 136.942 283.948C136.006 288.409 139.049 291.462 142.794 290.053C145.018 289.231 146.072 289.583 147.827 291.579C153.211 297.801 153.211 297.801 151.104 304.141L149.115 310.011L153.445 316.468C156.839 321.517 157.659 323.865 157.308 327.269C156.956 331.613 156.839 331.731 152.041 331.731C147.593 331.731 146.774 332.2 144.082 336.075C140.688 341.123 140.571 342.414 143.029 348.754C144.901 353.216 144.784 353.45 142.443 355.446C141.156 356.62 139.283 359.673 138.464 362.256C137.411 365.191 135.538 367.656 133.197 369.065L129.686 371.178L126.526 366.952ZM116.577 357.207L121.61 349.341L123.249 353.098C125.355 358.264 127.579 357.912 129.92 351.924C131.442 347.698 131.559 345.35 130.739 338.071C128.867 323.63 126.643 320.578 117.982 320.578C116.343 320.578 113.534 319.169 111.662 317.408C108.853 314.707 108.033 314.473 105.458 315.647C101.479 317.525 101.713 322.221 106.161 328.209C108.619 331.379 110.842 333.022 113.3 333.492C118.918 334.314 118.45 336.427 111.779 339.127C105.692 341.71 105.458 342.18 107.682 347.698C108.384 349.106 107.682 349.694 104.99 350.281C102.766 350.75 101.362 351.689 101.362 352.863C101.362 356.151 107.331 365.191 109.555 365.191C110.842 365.191 113.534 362.256 116.577 357.207Z" fill="#418F55"/>
<path d="M151.676 435.749C143.951 433.753 142.781 432.579 140.674 425.535C140.089 423.304 140.674 422.835 146.058 421.543C149.452 420.839 154.602 420.369 157.528 420.487L162.795 420.956L163.146 427.766C163.497 433.988 162.21 438.215 159.986 437.862C159.635 437.745 155.889 436.806 151.676 435.749Z" fill="#418F55"/>
<path d="M171.946 419.315C168.669 418.963 168.669 418.376 171.595 413.915C174.755 408.984 174.638 408.162 169.605 405.814C167.147 404.64 160.944 401.353 155.677 398.417C146.899 393.369 146.197 392.665 145.143 387.851C144.09 383.39 144.207 382.803 145.963 382.803C149.708 382.803 149.474 380.572 145.378 374.35C143.037 370.945 141.164 367.188 141.164 366.014C141.164 363.079 143.271 359.087 146.08 356.857C148.421 354.978 148.421 354.861 146.431 348.404C144.441 342.181 144.441 341.712 146.314 338.777C147.718 336.663 149.123 335.842 151.464 335.959C153.219 336.076 155.911 335.607 157.433 334.785C159.891 333.376 160.593 333.611 165.04 338.072C168.552 341.477 170.658 342.651 172.063 342.181C173.467 341.594 174.287 342.064 174.755 343.825C175.223 345.938 176.276 346.408 180.256 346.408C184.82 346.408 185.289 346.643 189.619 353.57C192.662 358.148 194.769 363.314 195.705 367.893C196.407 371.884 198.982 378.929 201.206 383.507C206.59 394.426 208.346 400.531 206.356 402.292C205.654 402.996 201.323 405.579 196.759 408.044C186.225 413.68 185.406 414.384 186.108 417.319C186.693 419.55 186.225 419.785 180.607 419.785C177.213 419.785 173.35 419.55 171.946 419.315Z" fill="#418F55"/>
<path d="M200.262 348.99C195.932 348.403 193.825 346.759 193.825 343.824C193.825 340.772 185.866 326.448 183.759 325.627C182.823 325.274 180.95 326.331 179.663 328.092C177.322 331.027 176.62 331.144 169.48 330.91L161.639 330.557L161.054 325.861C160.702 323.278 158.596 318.582 156.489 315.412L152.627 309.66L154.616 303.555L156.723 297.332L152.392 291.932C147.828 286.414 147.243 286.062 142.561 286.414C140.454 286.649 139.869 286.179 140.22 284.535C140.571 282.774 141.742 282.422 146.072 282.422C149.115 282.422 152.275 281.718 153.095 280.779C154.733 279.135 153.212 277.491 145.253 271.621C141.859 269.156 141.859 269.038 143.966 266.69C145.604 264.812 147.594 264.225 151.339 264.225C155.904 264.225 157.191 264.929 163.628 270.799L170.768 277.491L174.396 273.382C176.386 271.151 179.897 266.69 182.121 263.638C185.164 259.411 187.388 257.533 190.899 256.593C198.39 254.363 200.613 252.719 202.018 248.023C204.242 241.331 204.944 241.096 211.615 245.323C216.765 248.493 218.404 248.962 221.915 248.375C230.693 246.614 230.459 246.497 232.332 254.598C234.321 262.816 234.438 262.581 226.011 268.451C223.67 270.095 223.67 270.095 226.362 275.143C229.054 280.192 229.054 280.309 227.065 284.535C225.075 288.645 224.724 288.879 219.34 288.879C213.488 288.879 206.7 291.462 206.7 293.575C206.7 294.28 207.519 296.511 208.572 298.389C210.094 301.441 210.211 302.968 209.157 307.194C207.402 313.886 209.391 320.93 213.722 324.1C216.18 325.861 216.765 327.035 216.297 329.853C215.829 333.375 215.946 333.492 220.744 333.492H225.543L222.851 338.306C220.159 343.12 220.159 343.12 214.658 342.415C209.391 341.828 208.923 341.945 207.285 345.233C205.178 349.224 204.71 349.459 200.262 348.99Z" fill="#418F55"/>
<path d="M281.13 325.978C279.374 321.869 277.267 321.047 265.797 320.225C261.935 319.873 250.699 321.869 249.177 323.161C247.656 324.452 247.305 323.865 246.017 317.877C245.081 313.651 243.677 313.886 239.346 318.817C235.835 322.691 235.367 322.926 227.759 322.926C217.108 322.926 214.299 321.634 212.544 316.351C211.49 313.064 211.49 310.951 212.544 307.076C213.714 302.85 213.597 301.441 211.958 298.271C209.266 292.988 210.671 292.049 221.673 291.814C226.471 291.814 226.823 291.462 229.866 286.061L232.909 280.426L230.451 275.965L227.876 271.503L232.675 267.512L237.59 263.402L236.069 256.476C235.25 252.601 234.313 248.492 234.079 247.201C233.611 245.44 234.547 244.266 237.824 242.505C242.038 240.157 243.325 238.748 244.613 234.521C245.081 232.878 246.603 232.525 252.221 232.525C256.083 232.525 259.594 233.112 260.062 233.817C260.413 234.404 262.403 236.047 264.393 237.222C266.265 238.396 269.309 241.918 270.947 244.97C273.873 250.371 274.341 250.723 282.534 253.071C287.216 254.362 291.546 256.241 292.249 257.18C293.536 259.411 293.653 267.277 292.249 271.973C290.844 276.786 292.366 279.017 297.515 279.956C300.558 280.543 302.314 281.835 304.07 284.887C305.474 287.235 308.166 289.818 310.039 290.64C312.497 291.579 314.018 293.458 315.072 296.51C315.891 298.976 316.359 301.441 316.008 301.911C315.774 302.38 311.092 305.198 305.708 308.133C294.472 314.238 293.653 315.06 293.068 320.343C292.834 323.395 291.78 324.687 287.801 327.035L282.885 329.97L281.13 325.978Z" fill="#418F55" fill-opacity="0.7"/>
<path d="M521.183 400.647C515.565 397.125 514.044 396.655 512.405 397.829C506.319 402.173 505.383 402.173 500.584 397.477C496.839 393.955 495.785 391.842 495.2 387.146C493.796 377.636 487.475 373.527 478.931 376.814C475.654 378.106 475.888 378.223 467.344 368.126L464.418 364.604L454.704 366.6C449.32 367.774 444.287 368.713 443.468 368.713C442.649 368.713 441.478 366.6 440.776 364.135C440.191 361.552 438.669 358.382 437.499 356.856C435.626 354.625 435.041 354.508 432.817 355.682C431.413 356.386 429.774 356.738 429.189 356.386C428.604 356.034 427.316 350.868 426.146 344.881C424.976 338.893 423.571 333.14 423.103 332.084C422.518 330.91 419.709 329.031 416.783 327.74C411.633 325.392 411.516 325.274 411.516 319.639C411.516 312.008 410.345 311.068 401.567 312.008L394.311 312.595L393.609 308.838C392.438 303.32 392.321 303.437 397.471 301.911C400.28 301.089 403.206 299.093 404.844 296.863C406.483 294.632 410.931 291.697 416.783 288.879C424.858 285.005 427.433 283.127 435.86 273.852C441.127 267.982 445.458 262.229 445.458 261.055C445.458 259.763 447.096 261.29 449.554 265.046C453.299 270.564 453.651 271.856 453.768 279.722C453.768 287.118 454.47 290.053 459.386 302.263C464.535 314.943 464.887 316.586 463.95 321.517C462.546 329.149 463.248 330.323 468.866 329.618C471.441 329.266 473.782 329.383 474.133 329.97C475.069 331.379 472.611 337.132 470.387 338.776C468.632 340.067 468.749 340.537 470.973 344.176C473.196 347.933 473.313 348.52 471.792 351.573C468.866 357.09 469.568 358.852 474.484 359.673C481.155 360.847 485.018 360.613 487.593 358.969C489.582 357.795 490.519 358.147 494.498 362.139C499.999 367.422 501.754 367.187 505.149 360.495C506.436 357.912 508.426 355.799 509.479 355.799C514.161 355.799 526.216 358.617 526.216 359.791C526.216 360.495 525.397 363.548 524.226 366.6L522.237 372.118L528.791 381.862C538.739 397.007 538.505 396.068 534.292 400.882C532.302 403.23 530.078 405.108 529.376 404.991C528.557 404.991 524.929 403.112 521.183 400.647Z" fill="#418F55" fill-opacity="0.7"/>
<path d="M494.282 357.909C490.419 354.739 489.483 354.387 486.908 355.561C483.865 356.97 475.672 357.439 474.502 356.265C474.151 355.913 474.385 353.8 475.087 351.569C475.906 348.986 475.906 346.756 475.204 344.995C474.385 343.116 474.619 340.651 476.14 336.072C479.183 326.68 479.183 326.445 472.512 326.445H466.777L467.362 320.223C467.947 314.705 467.362 312.591 462.564 301.321C458.233 290.989 457.18 287.35 457.18 281.714C457.18 275.375 457.648 273.966 462.681 266.452C466.543 260.582 468.416 256.473 468.884 252.716L469.469 247.198L478.247 244.498C488.781 241.21 489.717 240.506 487.727 236.749C485.387 232.522 486.44 231.348 494.282 228.296L501.538 225.596L504.464 229.47C506.805 232.64 508.444 233.462 513.242 234.166C519.446 234.988 522.02 237.336 526.234 245.789C527.17 247.667 529.277 249.663 530.916 250.25C532.554 250.955 534.895 252.364 536.182 253.538C540.63 257.529 554.324 264.456 556.665 263.869C559.591 263.047 559.591 264.926 556.782 273.027L554.675 278.897L548.004 279.249C540.981 279.601 536.182 277.605 531.501 272.439C530.33 271.148 528.692 270.091 527.755 270.091C524.829 270.091 513.359 278.544 513.359 280.658C513.359 284.297 519.446 296.977 521.435 297.564C529.394 299.912 540.63 301.79 545.195 301.556C548.238 301.438 551.164 301.673 551.515 302.025C551.983 302.495 550.93 305.195 549.174 308.13C546.248 313.178 546.014 313.296 542.62 312.122C540.63 311.417 537.938 311.183 536.417 311.535C533.373 312.357 521.552 323.275 521.552 325.271C521.552 326.093 519.211 332.432 516.168 339.359C511.955 349.456 510.316 352.156 508.327 352.508C506.805 352.626 504.815 354.504 503.411 357.205C502.123 359.67 500.602 361.666 499.9 361.548C499.314 361.548 496.74 359.905 494.282 357.909Z" fill="#418F55" fill-opacity="0.7"/>
<path d="M327.486 319.755C326.901 318.581 325.964 315.763 325.496 313.532C325.028 311.184 322.804 304.492 320.463 298.505C316.835 288.995 315.899 287.469 313.09 286.882C311.1 286.53 309.11 284.769 307.472 281.716C305.599 278.312 303.961 277.02 301.152 276.433L297.289 275.729L297.406 265.515C297.406 258.94 296.938 254.479 296.002 253.422C295.182 252.483 290.501 250.722 285.585 249.43C277.509 247.435 276.456 246.848 274.817 243.443C273.413 240.39 273.296 238.982 274.349 236.868C275.051 235.459 275.871 232.172 275.988 229.589C276.339 225.011 276.573 224.776 285.117 220.432C289.916 218.084 294.48 216.088 295.182 216.088C295.768 216.088 298.46 218.201 301.034 220.901C303.492 223.484 309.227 228.885 313.558 232.759C320.814 239.216 322.453 240.156 331.816 242.621C339.775 244.734 343.169 246.378 346.68 249.43C349.138 251.778 353.469 254.479 356.395 255.418C359.438 256.475 362.481 257.766 363.417 258.118C367.982 260.466 386.24 300.618 383.431 302.379C381.91 303.318 358.151 307.31 348.085 308.367C339.424 309.189 336.966 310.95 334.859 317.407C333.455 321.751 329.241 323.042 327.486 319.755Z" fill="#418F55" fill-opacity="0.7"/>
<path d="M384.711 292.163C382.371 284.532 373.475 266.217 370.198 262.108C369.262 260.934 369.73 260.347 371.72 259.877C374.178 259.173 374.295 258.821 373.475 250.955C372.539 240.975 372.773 240.74 384.126 240.74C391.968 240.74 392.67 240.975 398.639 245.437C402.15 248.019 405.194 250.133 405.428 250.133C405.662 250.133 408.588 247.785 411.982 244.85L418.185 239.566L420.76 243.088C423.686 247.198 425.559 247.432 428.485 244.263C431.177 241.21 432.815 241.21 436.326 244.615C438.199 246.376 439.721 249.663 440.774 254.477L442.296 261.756L433.635 271.5C423.335 283.006 424.505 282.066 415.025 286.175C410.343 288.171 405.545 291.341 402.619 294.394C399.576 297.446 396.65 299.442 395.011 299.442C393.489 299.442 391.149 299.677 389.861 300.029C387.754 300.616 387.052 299.677 384.711 292.163Z" fill="#418F55" fill-opacity="0.7"/>
<path d="M451.319 261.759C448.627 257.884 446.052 255.067 445.467 255.419C444.531 256.006 441.956 249.079 441.956 245.792C441.956 244.266 434.582 238.395 432.592 238.395C431.773 238.395 429.783 239.452 428.145 240.743L424.985 243.209L422.41 239.922C420.888 238.043 419.718 236.047 419.718 235.343C419.718 234.639 418.43 232.877 417.026 231.469C415.504 230.06 413.632 226.773 412.812 224.19C411.642 220.081 411.057 219.611 407.663 219.611C403.332 219.493 402.162 218.907 399.47 214.68C397.831 211.98 396.544 211.393 391.394 211.158C387.063 210.923 385.074 210.219 384.84 209.045C384.606 207.753 385.542 207.166 387.766 207.166C389.638 207.166 393.618 207.049 396.661 206.931L402.396 206.697L401.928 201.766L401.577 196.835L408.014 194.722C411.525 193.547 419.25 191.082 425.219 189.204L435.87 185.799L440.083 188.617C442.892 190.612 445.116 191.199 447.105 190.73C450.149 190.025 450.383 190.495 453.192 205.992C454.128 211.158 457.873 220.315 459.395 221.255C459.98 221.607 465.013 220.315 470.631 218.437C476.249 216.441 481.399 215.267 481.867 215.502C483.973 216.793 482.803 220.785 479.409 224.659C475.078 229.59 475.078 230.882 478.824 231.821C482.569 232.76 485.612 238.395 482.92 239.335C481.984 239.687 478.004 241.096 474.142 242.387L467.119 244.853L466.534 250.253C466.066 253.775 464.428 258.002 461.502 262.346C459.161 265.868 456.937 268.92 456.586 268.92C456.352 268.92 453.894 265.75 451.319 261.759Z" fill="#418F55" fill-opacity="0.7"/>
<path d="M362.012 254.242C358.852 253.303 354.17 251.19 351.596 249.429L346.797 246.376L353.585 240.271L360.491 234.166L358.969 227.122C358.15 223.248 357.682 218.082 357.916 215.499L358.267 210.803L364.587 210.451C370.322 210.099 370.907 209.746 372.078 206.577C372.78 204.698 373.95 203.172 374.653 203.172C377.345 203.172 380.973 206.811 381.324 209.864C381.558 211.625 382.494 213.151 383.431 213.269C396.422 215.03 396.305 215.03 398.061 218.434C399.582 221.252 400.636 221.956 404.03 221.956C407.658 221.956 408.36 222.426 409.999 226.3C410.935 228.766 412.925 231.936 414.213 233.462L416.787 236.162L411.286 241.445L405.669 246.728L399.465 241.915C393.613 237.571 392.677 237.219 385.654 237.219C381.558 237.219 376.174 237.806 373.599 238.51L369.152 239.684L369.854 247.785C370.79 256.942 371.141 256.708 362.012 254.242Z" fill="#418F55" fill-opacity="0.7"/>
<path d="M531.491 246.848C530.789 246.378 528.448 243.091 526.341 239.569C524.234 235.929 522.362 232.994 522.245 232.759C522.01 232.642 519.084 231.937 515.573 231.35C510.657 230.411 508.551 229.237 505.976 226.302C503.05 222.897 498.836 214.914 499.539 214.21C499.773 214.092 501.879 213.153 504.337 212.096C506.678 211.157 508.668 209.631 508.668 208.692C508.668 207.87 510.775 202.704 513.349 197.421C516.275 191.316 518.031 186.033 518.031 183.215C518.031 176.171 519.319 171.71 522.128 168.775C523.532 167.366 525.522 164.548 526.458 162.67C528.097 159.617 528.097 158.678 526.575 154.451C525.054 149.873 525.054 149.638 527.628 147.525C532.076 144.003 539.918 136.489 540.854 135.08C541.205 134.375 538.63 130.736 535.002 126.979C528.565 120.052 528.448 119.935 528.799 113.713C529.15 107.725 529.384 107.49 532.544 107.021C534.417 106.903 537.694 107.021 539.918 107.373C543.195 108.077 544.365 109.134 546.472 113.713C549.047 118.996 549.281 119.23 558.761 122.048L568.359 124.866L580.063 122.753C593.054 120.287 594.693 120.522 610.845 126.392C615.76 128.153 619.857 130.384 619.857 131.206C619.857 132.027 618.803 134.728 617.516 137.076C616.229 139.541 615.175 142.829 615.175 144.59C615.175 149.99 598.204 169.127 591.182 171.475L586.851 172.884L587.436 178.402C587.788 181.454 588.958 185.798 590.128 188.146C592.001 192.138 592.001 192.607 590.245 195.425C589.192 197.069 588.256 199.886 588.256 201.882C588.256 205.052 587.671 205.522 581.584 207.752C574.094 210.57 571.87 212.683 571.87 217.027C571.87 219.845 571.753 219.845 564.848 219.141L557.942 218.319L555.016 224.189L551.973 230.059L545.302 230.411L538.513 230.763L536.758 238.864C535.002 246.848 533.832 248.609 531.491 246.848Z" fill="#418F55" fill-opacity="0.7"/>
<path d="M333.334 239.8C322.683 236.748 321.981 236.278 311.447 226.651C305.478 221.133 300.211 215.85 299.86 215.028C299.392 214.089 299.977 212.798 300.913 212.093C302.435 210.919 302.669 208.336 302.435 196.713L302.084 182.742L305.244 181.568C309.809 179.925 322.683 188.495 327.95 196.831C332.749 204.227 333.334 204.697 336.143 202.584C338.015 201.292 339.186 201.41 344.804 203.875C354.518 208.219 354.986 209.041 355.689 222.307L356.157 233.695L350.773 238.391C347.847 240.974 345.155 242.97 344.804 242.97C344.453 242.97 339.303 241.444 333.334 239.8Z" fill="#418F55" fill-opacity="0.7"/>
<path d="M482.673 226.301C484.663 224.187 485.248 222.074 485.248 217.495C485.248 210.099 485.131 210.099 471.437 214.56C461.84 217.73 461.606 217.73 459.967 215.499C457.743 212.447 457.86 210.216 460.787 202.585C462.425 198.006 463.83 196.128 465.351 196.128C468.277 196.128 469.682 194.015 470.618 187.91C471.788 180.748 472.257 180.279 477.523 180.279C481.971 180.279 482.322 179.926 487.589 171.473C494.026 161.377 493.441 161.494 506.315 167.716L515.094 172.06L514.742 180.279C514.508 185.444 513.689 189.788 512.402 192.019C511.231 193.897 509.124 198.359 507.72 201.998C505.496 207.399 504.326 208.69 500.346 210.451C496.133 212.212 495.665 212.799 496.367 215.147C498.591 222.074 498.006 223.366 490.515 226.183C481.386 229.823 479.396 229.823 482.673 226.301Z" fill="#418F55" fill-opacity="0.7"/>
<path d="M347.384 201.648C340.127 198.126 337.318 197.304 336.382 198.244C334.158 200.357 333.573 200.005 330.179 194.252C328.072 190.612 324.561 187.208 319.06 183.568L310.867 178.168L315.315 173.354C317.773 170.654 321.518 166.427 323.742 163.962C329.711 157.387 331.115 156.918 337.904 159.148L343.639 161.027V169.245C343.639 176.172 344.224 178.285 347.267 183.803C349.257 187.325 351.246 190.495 351.832 190.73C352.3 191.082 356.513 189.438 361.078 187.208C365.759 184.977 369.739 183.216 369.973 183.216C370.207 183.216 371.494 185.329 372.782 187.912L375.24 192.608L371.729 199.652L368.217 206.697L362.599 206.579C358.62 206.462 354.406 205.17 347.384 201.648Z" fill="#418F55" fill-opacity="0.7"/>
<path d="M379.802 201.998C376.408 199.18 376.174 198.593 377.227 195.306C378.047 193.192 378.047 191.079 377.461 190.14C375.706 187.322 376.291 186.148 380.27 184.387C383.665 182.744 384.016 182.039 384.367 176.521C384.718 170.534 384.835 170.299 388.814 169.594C391.038 169.125 395.72 169.594 399.465 170.534L406.254 172.177L408.36 178.517C409.414 182.039 410.701 185.796 411.052 186.97C411.52 188.496 410.116 189.788 404.849 192.253C398.412 195.306 398.061 195.775 398.412 199.297C398.763 203.641 398.295 203.876 389.634 204.58C384.367 205.05 383.079 204.698 379.802 201.998Z" fill="#418F55" fill-opacity="0.7"/>
<path d="M455.534 201.764C455.183 200.943 453.544 192.02 451.789 182.158C449.916 172.179 447.809 163.374 447.107 162.669C445.586 161.143 427.21 156.682 424.518 157.269C423.582 157.386 421.358 158.678 419.602 159.969C417.73 161.378 416.091 162.2 415.857 161.965C415.623 161.73 415.038 159.03 414.687 156.095C414.102 151.281 414.336 150.459 418.198 146.468C420.656 143.767 422.997 142.241 424.284 142.593C425.337 142.828 427.444 143.415 428.849 143.885C430.838 144.472 432.945 143.767 436.222 141.419C438.68 139.658 440.787 137.78 440.787 137.31C440.787 136.723 437.978 134.023 434.467 131.323C430.955 128.505 428.029 125.687 428.029 124.865C427.912 124.161 430.487 121.93 433.53 119.935C438.563 116.647 440.202 116.295 447.575 116.295H456.002V108.781C456.002 102.441 456.47 101.033 458.928 98.6845C460.567 97.1583 461.854 95.1625 461.854 94.3407C461.854 93.4015 463.025 90.4663 464.312 87.7661C466.302 84.0092 466.536 82.483 465.483 80.8393C464.312 78.9609 465.131 78.2564 472.388 74.6169C476.835 72.3863 481.049 70.5078 481.634 70.5078C482.219 70.5078 483.624 71.9167 484.677 73.6777C486.667 76.6128 486.667 77.1998 484.794 84.4788C483.273 90.1142 481.634 93.4014 478.474 96.5713L474.261 101.033L475.548 107.138C477.889 118.526 480.698 126.861 482.219 126.861C483.039 126.861 486.433 124.396 489.827 121.578C493.221 118.643 496.03 116.295 496.147 116.295C496.264 116.295 500.361 117.352 505.159 118.643C509.958 119.934 516.629 120.991 519.79 120.991C525.408 121.109 525.876 121.343 531.494 127.683L537.346 134.258L529.153 141.771L521.077 149.285L522.95 154.451C524.822 159.499 524.822 159.499 521.311 164.313C519.438 166.896 517.566 169.126 517.332 169.126C516.981 169.126 514.289 167.835 511.129 166.191C500.946 161.026 493.221 158.443 491.583 159.852C490.763 160.439 487.954 164.665 485.379 169.126C480.581 177.11 480.464 177.227 475.08 177.579L469.462 177.932L467.94 185.211C466.653 190.963 465.834 192.607 464.195 192.607C461.62 192.607 459.982 194.485 458.928 198.712C457.992 202.469 456.236 203.995 455.534 201.764Z" fill="#418F55" fill-opacity="0.7"/>
<path d="M414.682 188.264C414.448 187.677 412.926 183.215 411.522 178.167C409.883 172.532 408.128 168.892 406.957 168.658C405.904 168.305 402.042 167.483 398.296 166.779L391.508 165.37L391.859 158.796L392.21 152.338L397.477 150.812C401.924 149.403 403.095 149.521 405.319 150.93C406.723 151.869 408.713 152.691 409.532 152.691C410.703 152.691 411.522 154.804 411.99 159.735C412.926 167.953 413.98 168.305 420.885 163.374L425.567 159.97L435.164 162.2C440.431 163.492 444.996 164.666 445.113 164.901C445.347 165.018 446.283 169.597 447.219 174.997C448.741 183.685 448.741 185.094 447.219 186.62C445.698 188.146 445.113 188.029 442.187 185.798C440.314 184.507 438.09 183.216 437.154 182.981C435.749 182.746 422.875 186.268 416.906 188.616C416.086 188.968 415.033 188.733 414.682 188.264Z" fill="#418F55" fill-opacity="0.7"/>
<path d="M349.486 181.103C347.614 177.346 346.443 172.767 345.975 166.78L345.39 158.092L338.25 155.979C331.111 153.865 326.312 149.639 327.6 146.352C327.951 145.647 335.675 141.655 344.805 137.429C357.796 131.441 361.776 129.093 363.063 126.51C365.053 122.871 364.819 122.871 370.671 124.632C374.767 125.806 375.352 125.689 378.512 123.106C381.438 120.64 383.662 120.053 391.855 119.466C397.356 119.114 402.857 118.175 404.261 117.236C406.602 115.827 407.422 116.062 412.22 118.644C415.146 120.288 421.701 124.984 426.85 129.093C435.98 136.255 436.097 136.607 434.107 138.838C432.117 140.951 428.021 141.068 422.754 139.073C421.818 138.72 418.657 141.068 415.614 144.356L410.114 150.226L406.953 147.878C404.027 145.647 403.676 145.647 396.303 147.643L388.695 149.756L388.344 157.74C387.993 165.371 387.876 165.723 384.599 166.897C381.321 168.071 381.087 168.541 381.087 174.293C381.087 179.694 380.736 180.633 378.044 182.042C375.352 183.568 374.884 183.451 373.48 181.69C371.607 178.99 370.788 179.107 362.127 183.216C358.147 185.095 354.168 186.738 353.583 186.738C352.88 186.738 351.008 184.155 349.486 181.103Z" fill="#418F55" fill-opacity="0.7"/>
<path d="M143.016 218.292H142.865C141.535 218.292 140.626 219.634 141.118 220.869C141.212 221.105 141.353 221.32 141.533 221.5L141.843 221.811C142.594 222.565 143.016 223.586 143.016 224.65V224.749C143.016 225.877 142.569 226.959 141.773 227.757L140.843 228.691C140.344 229.19 139.769 229.607 139.138 229.923L138.551 230.218C138.024 230.482 137.443 230.619 136.853 230.619H134.455C133.689 230.619 133.068 231.241 133.068 232.007C133.068 232.585 133.426 233.102 133.967 233.306L135.951 234.052C137.033 234.459 137.75 235.494 137.75 236.649C137.75 238.182 136.507 239.425 134.974 239.425H134.779C134.421 239.425 134.067 239.489 133.733 239.615L131.598 240.418C130.324 240.897 129.379 241.986 129.085 243.314L128.724 244.942C128.527 245.834 127.736 246.469 126.823 246.469H126.69C125.688 246.469 124.875 247.281 124.875 248.284C124.875 248.97 125.262 249.598 125.876 249.906L128.75 251.347C129.286 251.616 129.785 251.952 130.235 252.347L133.173 254.926C133.882 255.549 134.546 256.221 135.159 256.938L136.574 258.595C137.35 259.502 138.299 260.246 139.367 260.781C140.612 261.406 141.986 261.731 143.38 261.731H146.528H152.961C153.723 261.731 154.465 261.483 155.074 261.025C155.957 260.361 156.476 259.32 156.476 258.216V257.622V256.789C156.476 256.174 156.377 255.564 156.183 254.98C155.99 254.397 155.891 253.787 155.891 253.172V252.545C155.891 252.017 155.934 251.49 156.021 250.97L156.42 248.57C156.457 248.344 156.512 248.12 156.585 247.903C156.894 246.973 157.503 246.173 158.317 245.629L158.423 245.558C158.685 245.383 158.929 245.182 159.151 244.959L160.573 243.534L160.914 243.191C161.445 242.659 161.743 241.937 161.743 241.186V239.425V238.407C161.743 237.913 161.803 237.421 161.923 236.942L162.128 236.12C162.259 235.593 162.53 235.113 162.913 234.728L164.365 233.029C165.71 231.455 166.58 229.531 166.871 227.481L166.928 227.082C166.983 226.702 167.071 226.327 167.192 225.962L167.789 224.166C168.036 223.422 167.927 222.607 167.493 221.955C167.18 221.483 166.718 221.13 166.181 220.95L165.069 220.578C164.041 220.235 162.94 220.178 161.882 220.413L160.235 220.781C158.927 221.072 157.729 221.731 156.783 222.681L156.412 223.052C155.329 224.139 153.858 224.749 152.324 224.749H151.91C151.447 224.749 150.989 224.661 150.559 224.488L149.162 223.928C148.631 223.715 148.283 223.2 148.283 222.628V222.105C148.283 221.62 147.89 221.227 147.405 221.227C146.921 221.227 146.528 220.834 146.528 220.349V219.76C146.528 218.949 145.871 218.292 145.06 218.292H143.016Z" fill="#418F55" fill-opacity="0.7"/>
<path d="M158.812 249.352V250.578V254.165C158.812 255.678 159.041 257.183 159.491 258.627L161.071 263.698C161.509 265.102 162.302 266.37 163.373 267.377L163.627 267.616C167.468 271.228 173.663 270.364 176.369 265.84L180.465 260.557L182.227 258.495C183.384 257.141 184.773 256.004 186.329 255.137L189.243 253.513L193.795 251.484C194.269 251.272 194.772 251.132 195.287 251.067C197.604 250.777 199.454 248.999 199.837 246.696L200.535 242.495C200.801 240.892 200.489 239.246 199.655 237.851C199.347 237.337 199.109 236.785 198.945 236.209L198.562 234.865C198.203 233.605 197.681 232.398 197.008 231.274L195.354 228.507C194.793 227.57 194.336 226.574 193.992 225.538L193.34 223.575C192.284 220.751 189.586 218.879 186.57 218.879H185.732H182.342C181.156 218.879 180.034 219.419 179.295 220.346C178.555 221.274 177.433 221.814 176.247 221.814H175.402C173.784 221.814 172.243 222.507 171.17 223.718L170.16 224.858C168.882 226.301 168.176 228.162 168.176 230.089V231.622C168.176 233.203 167.413 234.688 166.128 235.609C164.842 236.53 164.079 238.015 164.079 239.596V241.237C164.079 242.991 163.048 244.581 161.446 245.295C159.844 246.009 158.812 247.598 158.812 249.352Z" fill="#418F55" fill-opacity="0.7"/>
<path d="M134.534 217.704H132.662C131.817 217.704 131.029 217.282 130.561 216.578C130.286 216.164 130.139 215.678 130.139 215.181V213.538C130.139 211.678 129.489 209.877 128.3 208.447L127.213 207.138L126.114 205.481C125.098 203.95 123.383 203.029 121.546 203.029H121.133C119.792 203.029 118.519 202.442 117.647 201.422L117.557 201.317C116.333 199.884 114.332 199.392 112.583 200.094L110.986 200.984C109.372 201.883 109.358 204.2 110.961 205.118C111.259 205.289 111.516 205.522 111.714 205.801L112.879 207.436C113.678 208.559 113.392 210.119 112.247 210.885C111.394 211.455 110.277 211.432 109.448 210.828L104.39 207.138L103.679 206.662C102.024 205.556 99.8345 205.688 98.3251 206.986C97.3458 207.828 96.7825 209.055 96.7825 210.347V213.523C96.7825 214.991 95.908 216.319 94.5585 216.899C93.3937 217.4 92.5693 218.466 92.377 219.719L92.1057 221.488C91.7394 223.877 92.6779 226.307 94.5316 227.857C94.8578 228.129 95.2132 228.376 95.5835 228.585L101.609 231.985C103.451 233.024 105.117 234.35 106.544 235.911L110.827 240.598L117.764 246.562C118.575 247.259 119.608 247.642 120.677 247.642C121.864 247.642 123.003 247.17 123.841 246.329L124.872 245.294L126.511 243.651C126.976 243.184 127.363 242.645 127.657 242.056C128.133 241.1 128.85 240.286 129.738 239.693L131.411 238.573C131.731 238.36 132.088 238.211 132.465 238.136L133.776 237.873C134.383 237.751 134.821 237.217 134.821 236.597C134.821 236.163 134.604 235.757 134.243 235.515L132.764 234.527C131.855 233.919 131.31 232.897 131.31 231.804C131.31 230.395 132.21 229.143 133.547 228.697L134.821 228.271L137.125 227.61C138.255 227.286 139.172 226.457 139.608 225.365C139.919 224.585 139.963 223.724 139.733 222.916L139.266 221.277C139.037 220.474 138.608 219.742 138.018 219.151C137.095 218.225 135.842 217.704 134.534 217.704Z" fill="#418F55" fill-opacity="0.7"/>
<path d="M95.615 193.637L96.0447 194.283C97.9896 197.21 98.4787 200.869 97.3706 204.203L95.9226 208.561C95.7189 209.174 95.615 209.816 95.615 210.462V212.227C95.615 213.426 94.9385 214.522 93.867 215.059C93.476 215.255 93.1299 215.53 92.8504 215.866L90.7117 218.441C90.472 218.729 90.2951 219.065 90.1923 219.426L89.6994 221.156C89.4417 222.061 88.3768 222.452 87.5947 221.929C87.4803 221.852 87.3551 221.793 87.2234 221.754L82.5969 220.361C81.916 220.157 81.2088 220.052 80.4977 220.052H79.1853C78.0895 220.052 77.0388 220.489 76.2652 221.265L75.8687 221.662C75.0536 222.48 73.8587 222.79 72.7489 222.472C71.3886 222.082 70.4512 220.838 70.4512 219.423V218.242C70.4512 217.136 70.0642 216.065 69.3574 215.214L68.4597 214.133C67.8411 213.389 67.1016 212.753 66.2721 212.254L61.6731 209.486L60.0671 208.591C57.8071 207.332 56.4062 204.947 56.4062 202.36V202.013C56.4062 201.137 56.6096 200.273 57.0004 199.489C57.7375 198.01 59.0845 196.927 60.6873 196.526L64.4319 195.586C64.9327 195.461 65.4227 195.295 65.897 195.091C68.0763 194.155 70.5242 194.052 72.7739 194.805L74.5476 195.398L76.2163 196.115C77.5787 196.701 79.1614 196.121 79.8229 194.794C80.1888 194.06 80.214 193.202 79.8917 192.448L79.6613 191.909C79.0782 190.544 79.5908 188.958 80.8625 188.192C81.3255 187.914 81.8556 187.767 82.3959 187.767H84.7293C86.5 187.767 88.2464 188.18 89.8292 188.974L90.4568 189.289C92.3129 190.22 93.9447 191.542 95.2395 193.166L95.615 193.637Z" fill="#418F55" fill-opacity="0.7"/>
<path d="M38.0559 248.672H33.235C32.1811 248.672 31.1961 249.195 30.6062 250.068C30.2518 250.593 30.0625 251.211 30.0625 251.844V253.808V256.988C30.0625 258.274 30.3654 259.542 30.9466 260.689L31.0128 260.82C31.3683 261.522 31.8351 262.161 32.395 262.714L33.6761 263.978C34.2193 264.514 34.9517 264.815 35.7148 264.815H35.8529C36.862 264.815 37.7855 265.382 38.2416 266.282C38.6977 267.182 39.6212 267.75 40.6303 267.75H44.19H46.4112C48.3644 267.75 50.2817 268.275 51.9623 269.27C52.7264 269.722 53.4323 270.266 54.0643 270.89L54.5998 271.419L55.8135 272.616C57.4561 274.237 59.4825 275.416 61.7037 276.042L62.0912 276.151C63.0409 276.419 64.0229 276.555 65.0096 276.555H65.6615C66.2156 276.555 66.7672 276.631 67.3006 276.782L69.3805 277.368C70.7534 277.755 71.7016 279.008 71.7016 280.434C71.7016 280.781 71.7582 281.125 71.8691 281.453L73.3758 285.914C73.7389 286.989 74.4064 287.936 75.2971 288.639L79.516 291.97C80.7576 292.95 82.5966 292.364 83.0417 290.846L83.0573 290.792C83.2224 290.23 83.6147 289.761 84.1399 289.5C84.735 289.203 85.435 289.206 86.0282 289.506L86.2662 289.626C86.6352 289.812 87.0428 289.91 87.4562 289.91H88.3733C88.6551 289.91 88.9319 289.836 89.1764 289.696C89.8503 289.309 90.1533 288.497 89.8975 287.764L88.9374 285.011C88.8482 284.755 88.7388 284.507 88.6103 284.268L87.5797 282.354C87.0828 281.432 86.4142 280.612 85.6101 279.94C84.1281 278.701 82.1979 277.763 81.3061 276.049C80.9446 275.355 80.5224 274.611 79.8049 274.06C78.962 273.413 78.844 272.766 78.8266 272.189C78.7941 271.112 78.1402 270.185 77.6536 269.224C77.1624 268.255 76.9065 267.183 76.9065 266.097V265.577C76.9065 265.07 76.9489 264.563 77.0335 264.063L77.65 260.412L78.1143 257.663C78.3002 256.563 78.3936 255.448 78.3936 254.332V253.074L77.65 246.47V243.67C77.65 242.606 77.5178 241.546 77.2564 240.514C77.0238 239.596 76.6905 238.706 76.2624 237.861L75.4193 236.198L73.4242 232.752C72.7829 231.644 72.4451 230.387 72.4451 229.107V225.967C72.4451 225.047 71.9101 224.21 71.0744 223.824C70.0321 223.342 68.7942 223.679 68.1408 224.623L67.6377 225.351C67.3789 225.724 67.2402 226.168 67.2402 226.623C67.2402 227.859 66.2389 228.86 65.0036 228.86H64.1167C63.7241 228.86 63.335 228.786 62.9698 228.642L60.7764 227.776C60.1352 227.523 59.5518 227.143 59.0611 226.659C58.5705 226.174 57.9871 225.794 57.3459 225.541L54.5998 224.457L50.1385 222.99L46.3992 221.76C45.9243 221.604 45.492 221.339 45.1361 220.988C44.5299 220.39 43.7125 220.055 42.8609 220.055H38.9656C38.1551 220.055 37.498 220.712 37.498 221.522V223.066C37.498 224.838 38.4332 226.479 39.958 227.381L40.1819 227.514C40.8571 227.914 41.4042 228.498 41.7589 229.198C42.3523 230.369 42.3523 231.753 41.7589 232.924L41.6923 233.056C41.3791 233.674 41.2158 234.357 41.2158 235.051V235.577C41.2158 236.896 41.8196 238.142 42.8546 238.959C44.1297 239.966 44.7302 241.604 44.4075 243.196L44.19 244.269C43.3013 246.9 40.8333 248.672 38.0559 248.672Z" fill="#418F55" fill-opacity="0.7"/>
</svg>
