<svg xmlns="http://www.w3.org/2000/svg" viewBox="0 0 24 24" fill="currentColor">
  <path d="M15.684 0H8.316C1.592 0 0 1.592 0 8.316v7.368C0 22.408 1.592 24 8.316 24h7.368C22.408 24 24 22.408 24 15.684V8.316C24 1.592 22.408 0 15.684 0zm3.692 17.123h-1.744c-.66 0-.864-.525-2.05-1.727-1.033-1.01-1.49-1.135-1.744-1.135-.356 0-.458.102-.458.593v1.575c0 .424-.135.678-1.253.678-1.846 0-3.896-1.118-5.335-3.202C4.624 10.857 4.03 8.57 4.03 8.096c0-.254.102-.491.593-.491h1.744c.44 0 .61.203.78.677.863 2.49 2.303 4.675 3.061 4.675.22 0 .322-.102.322-.66V9.721c-.068-1.186-.695-1.287-.695-1.71 0-.203.17-.407.44-.407h2.744c.373 0 .508.203.508.643v3.473c0 .372.17.508.271.678.102.17.102.254 0 .407-.102.153-.305.203-.508.203-.847 0-2.04-1.118-2.04-3.202 0-2.677 1.98-4.07 3.202-4.07.78 0 1.27.102 1.27.78 0 .254-.102.508-.203.78-.102.254-.102.407.102.61.203.203.44.203.78.203h2.44c1.017 0 1.186.44.78 1.253-.68 1.322-2.373 2.44-2.373 2.44-.22.22-.17.44-.17.78v1.744c0 .44.17.61.78.61h1.744c.44 0 .68-.17.68-.61v-3.473c0-1.017.17-1.186-.17-1.186-.17 0-.44.102-.78.203-.17.102-.17-.17-.17-.44V9.721c0-.44.17-.61.78-.61h2.44c.44 0 .68.17.68.61v3.473c0 .44-.17.61-.68.61h-1.744c-.44 0-.68-.17-.68-.61v-1.744c0-.44.17-.61.68-.61h1.744c.44 0 .68.17.68.61v3.473c0 .44-.17.61-.68.61z"/>
</svg>








