<svg width="175" height="48" viewBox="0 0 175 48" fill="none" xmlns="http://www.w3.org/2000/svg">
<path fill-rule="evenodd" clip-rule="evenodd" d="M19.7627 20.2245H19.9846C21.9841 18.0015 25.3146 15.1101 33.9767 15.1101C49.9664 15.1102 53.7429 23.9998 53.7429 32.2242C53.7429 40.6658 48.1891 47.9999 33.7548 48C25.9829 48 21.9846 45.1107 19.32 43.5583L11.7702 47.3343H8.6583V9.11082C8.65819 4.44497 6.88447 3.33158 0 3.11038V1.55636L19.7627 0V20.2245ZM30.8683 18.667C21.0972 18.6672 19.7627 25.7787 19.7627 29.558V32.4457C19.7627 36.0001 20.6504 44.4452 29.977 44.4454C40.6386 44.4454 41.5264 36.443 41.5264 31.3324C41.5264 26.6651 40.4166 18.667 30.8683 18.667Z" fill="#010F01"/>
<path fill-rule="evenodd" clip-rule="evenodd" d="M78.6139 15.1101C97.7156 15.1101 99.2679 23.5555 99.2679 28.0005H67.5118C67.512 34.8897 72.1767 44.4453 87.9451 44.4454C92.6052 44.4454 96.3828 43.7795 98.3813 43.3321V46.2233C96.1608 46.6677 90.3842 47.9988 82.6125 47.9988C65.5142 47.9988 55.2954 41.7783 55.2954 30.444C55.2956 19.7757 63.7355 15.1101 78.6139 15.1101ZM78.1712 17.331C69.9567 17.331 67.5122 22.8888 67.5118 25.3343H88.167C88.167 23.776 87.9444 17.331 78.1712 17.331Z" fill="#010F01"/>
<path fill-rule="evenodd" clip-rule="evenodd" d="M156.789 15.1101C170.285 15.1101 174.129 18.5967 175 23.8236V47.3332H164.116L163.894 43.3321C161.896 44.6673 158.123 47.9988 149.46 47.9988C140.798 47.9988 134.804 44.2233 134.804 40.2217C134.805 30.8888 156.789 30.001 164.116 30.001L163.894 26.4441C163.894 22.2213 164.116 17.331 157.009 17.331C149.46 17.331 149.017 21.3327 149.017 24.4424H135.913C137.025 19.7754 140.798 15.1101 156.789 15.1101ZM163.894 32.4457C159.896 32.4457 146.797 32.8896 146.796 39.113C146.796 42.2228 149.46 44.4454 153.681 44.4454C160.122 44.4452 164.116 40.8877 164.116 36.2206L163.894 32.4457Z" fill="#010F01"/>
<path d="M112.378 47.3343H101.272V9.11082C101.272 4.44497 99.2731 3.33158 92.6106 3.11038V1.55636L112.378 0V47.3343Z" fill="#010F01"/>
<path d="M132.585 47.3343H121.48V9.11082C121.48 4.44497 119.481 3.33158 113.039 3.11038V1.55636L132.585 0V47.3343Z" fill="#010F01"/>
</svg>
