<svg width="113" height="48" viewBox="0 0 113 48" fill="none" xmlns="http://www.w3.org/2000/svg">
<path d="M33.649 37.2229C47.2104 37.2229 60.7718 37.0797 74.3367 37.2229C77.1998 37.2544 79.567 38.1484 81.4451 39.4414C85.8321 42.4784 90.8782 44.7051 97.2815 44.838C103.455 44.9673 107.533 43.3562 108.405 39.6519C108.533 39.0997 109.263 38.8514 108.986 39.8614C107.589 44.9322 103.67 47.6092 97.9195 47.9796C92.7955 48.3152 87.2355 44.4465 81.4489 40.5569C79.2767 39.0925 77.2282 38.6414 75.5343 38.7497C66.3493 39.3473 57.1925 39.7985 48.2236 40.9692C39.6273 42.098 35.6299 40.5008 33.649 37.2229Z" fill="black"/>
<path d="M99.0971 35.8711C104.812 35.3575 108.051 37.3526 107.817 39.0999C107.414 42.081 103.569 43.7306 100.411 43.1714C97.6407 42.6892 97.7294 41.0119 99.8729 39.9494C101.556 39.1177 99.4055 37.5456 96.5248 37.486C91.7054 37.3881 88.629 38.8732 86.3256 40.7186C85.9892 40.9838 85.7134 40.7885 85.9966 40.5196C88.3141 38.3004 91.7833 36.5282 99.0971 35.8711Z" fill="black"/>
<path d="M42.949 20.5559C43.4982 20.528 44.1932 21.1638 44.5369 21.7928C46.6027 25.5253 48.7 29.2054 50.9289 32.8749C51.0564 33.0914 51.241 33.2174 51.5526 33.2489C51.9282 33.2873 52.1624 33.5465 52.0137 33.91C51.7938 34.448 50.9787 34.7942 50.001 34.8571C48.4276 34.962 46.8255 35.0039 45.2486 34.8571C43.959 34.7417 43.4597 33.994 44.1151 33.4173C44.4765 33.0922 45.0048 32.9762 44.6221 32.1794C43.7823 30.4565 42.8389 28.783 41.9034 27.109C41.6944 26.7351 41.4036 26.7659 41.1946 27.1923C40.2485 29.1387 39.4127 31.1414 38.4348 33.0844C38.247 33.4512 38.0268 33.8117 38.2215 34.1156C38.5511 34.6014 38.4239 35.0179 37.726 35.0599C36.3335 35.1507 35.0292 34.9758 34.6286 34.6055C33.8844 33.9275 33.9803 33.3955 34.7988 33.2068C35.8442 32.9688 37.5987 30.1455 40.0649 24.9317C40.3696 24.2991 40.5252 23.7049 40.2772 23.1178C40.1497 22.8103 39.9548 22.5304 39.7741 22.2473C39.2993 21.489 39.7667 21.1078 40.6561 20.7654C41.3329 20.4997 42.2438 20.5944 42.949 20.5559Z" fill="black"/>
<path fill-rule="evenodd" clip-rule="evenodd" d="M70.6586 20.6822C73.3872 20.731 76.2111 21.9232 76.4699 24.062C76.6859 25.9037 76.4382 27.7702 76.5091 29.626C76.5444 30.7023 76.5837 32.0476 77.5508 32.2224C78.2099 32.3412 78.7591 32.0756 78.3907 32.7151C77.689 33.9103 76.1438 35.0043 74.3367 35.0637C73.0047 35.109 72.5477 34.2881 72.0801 33.7464C71.6052 33.2046 70.9028 33.4179 70.2826 33.8688C69.078 34.7493 67.8198 35.1159 66.6045 34.9795C63.3128 34.616 62.3986 32.6659 62.5936 30.7788C62.7532 29.2516 64.2628 27.5815 67.2321 27.197C68.1392 27.0713 68.9934 27.2808 69.7766 27.1549C70.4781 27.0361 71.1086 26.5225 71.2364 25.4674C71.3036 24.9606 71.2612 24.4464 71.201 23.9396C70.9989 22.353 69.8082 21.5386 68.1073 22.3353C67.0974 22.8001 66.8845 24.0793 66.1014 24.7642C64.2587 26.3649 62.5688 24.3416 64.0571 23.0729C65.4498 21.8777 67.955 20.6332 70.6586 20.6822ZM71.3215 28.1441C71.2719 27.5467 70.9282 27.48 70.45 27.8571C70.2374 28.0178 69.9077 28.1995 69.4437 28.2695C68.4976 28.4057 67.7925 28.8779 67.5975 29.9542C67.5195 30.419 67.5125 30.8981 67.5975 31.3595C67.7499 32.1248 68.161 32.932 69.4437 33.0088C70.3223 33.061 71.1936 32.5297 71.3636 31.2332C71.4947 30.2128 71.4137 29.1716 71.3215 28.1441Z" fill="black"/>
<path fill-rule="evenodd" clip-rule="evenodd" d="M28.581 20.6439C31.9333 20.8606 34.9283 22.6229 35.0169 26.6594C35.0345 27.6165 34.5062 27.8825 33.5888 27.8581C31.5867 27.8057 29.5845 27.5959 27.5718 27.7356C26.5512 27.8056 25.8915 28.4941 25.9446 29.2979C26.0369 30.6468 27.0507 31.8313 29.3291 32.1353C30.9131 32.359 32.1853 31.7824 33.2626 31.0275C34.0528 30.4649 34.7505 31.2547 34.4315 31.9746C33.2727 34.5431 29.3402 35.1448 27.0332 34.9422C22.4337 34.5403 20.3605 30.9679 20.5093 27.7701C20.7504 22.9161 24.8002 20.396 28.581 20.6439ZM28.2806 22.2099C26.6117 22.2169 25.3387 23.6848 25.6079 25.8759C25.6787 26.4001 26.0055 26.8025 26.817 26.5369C27.1145 26.4391 27.4086 26.3483 27.699 26.2471C28.2802 26.0443 29.0565 26.2295 29.8714 26.2471C30.3037 26.2539 30.6261 25.8412 30.6262 25.2961C30.6404 23.4057 29.5703 22.2067 28.2806 22.2099Z" fill="black"/>
<path d="M80.2216 20.729C82.1458 20.5228 84.1056 20.5822 86.0262 20.8094C87.1884 20.9457 87.5076 21.6697 86.7389 22.0052C86.1401 22.2709 85.8558 22.5186 85.8167 23.0355C85.7352 24.1014 85.7566 25.1746 85.7354 26.2509C85.7319 26.8065 85.966 27.3517 87.2382 26.6632C88.1488 26.174 88.9963 25.2618 90.3356 23.0776C90.7888 22.3302 90.4983 21.9946 90.13 21.8024C89.5099 21.4844 89.2013 20.9178 90.2534 20.8094C91.8162 20.6557 93.4114 20.6486 94.9742 20.8094C96.5968 20.9807 96.4191 21.7781 95.7672 22.0052C95.1507 22.2217 94.5838 22.1869 94.141 22.5783C92.8796 23.6965 91.9123 24.7729 90.8847 25.8807C90.4913 26.3036 90.4771 26.7474 90.8847 27.1597C92.5465 28.8371 94.2579 30.4796 95.9374 32.143C96.1714 32.3737 96.5897 32.6295 97.4862 32.8462C98.1553 33.0138 98.3504 33.611 98.0285 34.1281C97.7843 34.5264 97.2243 34.4359 96.8204 34.4534C95.3357 34.5162 93.8434 34.6669 92.3445 34.6179C91.6251 34.5969 91.4227 34.272 91.2597 34.0449C90.0373 32.266 88.6871 30.5781 87.33 28.9286C86.9757 28.4918 86.7275 28.4249 86.3696 28.4388C85.8349 28.4564 85.8208 28.7952 85.8244 29.1027C85.8421 29.8819 85.8067 30.6613 85.8244 31.4475C85.8421 32.1429 86.1219 32.7336 86.8269 33.1006C87.5566 33.4675 87.3763 33.8906 87.001 34.1702C86.5546 34.4951 86.0514 34.702 85.5766 34.7126C83.904 34.737 82.2097 34.9363 80.5583 34.7126C78.6592 34.4435 78.549 33.6285 79.3071 33.2231C79.9875 32.8631 80.601 32.2723 80.6435 31.1261C80.7356 28.5854 80.6367 26.0549 80.5516 23.5282C80.5373 22.9448 80.303 22.5043 79.7184 22.1688C78.8363 21.6551 79.1056 20.8444 80.2216 20.729Z" fill="black"/>
<path d="M47.5856 11.1203C48.234 11.0714 49.0284 11.3367 49.5103 12.1544C53.4366 18.889 57.3169 25.8125 61.3318 32.6309C61.4665 32.8546 61.6471 33.0992 62.2492 33.2948C63.1458 33.5814 63.0604 34.5036 61.9584 34.5701C59.7968 34.7029 57.2135 34.808 55.4383 34.7346C53.5146 34.6541 53.4611 33.7702 54.0206 33.4555C54.4884 33.19 55.1051 33.2182 54.5171 32.1803C51.7601 27.3085 48.95 22.3947 46.0761 17.5893C45.5622 16.7295 45.0912 17.0233 44.8679 17.4706C44.4429 18.3057 44.1558 19.1547 43.7803 20.0211H41.6079L42.751 17.4524C43.1279 16.599 43.5005 15.744 43.8654 14.8704C44.2269 14.0212 44.1026 13.1363 43.323 12.605C42.3912 11.9656 42.3842 11.5954 43.6138 11.4101C44.9283 11.2075 46.264 11.2286 47.5856 11.1203Z" fill="black"/>
<path fill-rule="evenodd" clip-rule="evenodd" d="M1.63383 11.413C2.56929 11.2488 3.85556 11.5387 5.4181 11.5632C9.57122 11.6156 14.9826 11.7108 15.9607 11.5326C16.7366 11.3963 17.4381 11.3613 17.8031 11.8646C18.4126 12.7242 18.6749 13.5422 18.7989 14.3739C18.8804 14.8978 18.9971 15.3937 18.7989 15.7745C18.3064 16.7389 17.4457 16.9561 16.7547 16.226C15.44 14.8386 14.1884 13.8633 12.6576 13.5942C11.8603 13.5733 11.0738 13.5626 10.2766 13.5521C8.96192 13.6989 8.48743 14.4575 8.39884 15.4884V21.7125C8.4768 22.5791 8.66413 23.3869 9.982 23.4814C11.6156 23.4289 13.2572 23.0795 14.873 23.3206C17.3392 23.6842 19.6602 25.1836 19.9296 28.3881C20.2872 32.3298 16.645 34.7933 14.873 34.7308C10.2026 34.57 5.75484 34.6505 1.24737 34.7308C0.623744 34.5491 0.276508 34.3777 0.205639 34.196C-0.183994 33.6439 -0.0212314 33.3186 0.70498 33.2068C2.01257 32.5742 2.70367 31.4491 2.79226 29.824V15.7362C2.7957 14.597 2.1687 13.3567 1.20145 13.1819C0.329723 13.0177 -0.28681 11.738 1.63383 11.413ZM11.194 25.0924C10.737 25.026 10.269 24.998 9.81555 25.0924C8.84501 25.3021 8.45209 25.9204 8.39884 26.6575V30.1177C8.63626 31.278 8.72131 32.5815 9.77729 32.7562C10.3052 32.847 10.8755 32.882 11.4035 32.7562C12.4877 32.4941 13.54 31.8581 13.905 30.1177C14.0573 29.4432 14.1354 28.7335 13.9901 28.059C13.6818 26.6122 12.9054 25.3265 11.194 25.0924Z" fill="black"/>
<path d="M100.026 20.7663C102.726 20.9061 105.976 20.9134 109.346 20.8505C110.394 20.826 111.132 20.8335 111.475 21.1375C112.513 22.0705 112.875 23.087 112.981 24.062C113.116 25.2642 112.503 25.8378 111.979 25.7085C111.362 25.558 110.721 24.9565 110.6 24.4323C110.477 23.9013 110.111 23.5557 109.555 23.4823C109.208 23.4404 108.864 23.4262 108.509 23.4402C107.539 23.4893 107.404 24.1285 107.382 24.7642C107.329 26.7494 107.305 28.749 107.382 30.7377C107.411 31.5028 107.737 32.177 108.417 32.4252C109.497 32.8236 109.633 33.2465 109.264 33.7846C108.941 34.2529 108.311 34.4834 107.623 34.5289C105.824 34.6373 104.006 34.6547 102.198 34.6093C101.302 34.5883 100.643 34.3581 100.359 33.9913C99.8632 33.3343 100.218 33.0477 101.071 32.7122C101.869 32.4013 102.043 31.6987 102.032 31.1117C101.99 28.9799 102.12 26.8476 102.074 24.7193C102.056 23.9294 101.489 23.5241 100.739 23.4402C99.4733 23.3039 98.7114 23.6498 98.4389 24.4323C97.893 25.9978 96.557 25.7434 96.475 25.2158C96.3652 24.5203 96.4863 23.8069 96.6032 23.115C96.8797 21.49 97.9925 20.6615 100.026 20.7663Z" fill="black"/>
<path d="M98.1864 7.59401C98.3529 7.59401 98.4953 7.72701 98.4954 7.88771C98.4954 8.05196 98.3568 8.18523 98.1864 8.18523C98.0269 8.18502 97.8927 8.04835 97.8927 7.88771C97.8928 7.72713 98.0269 7.59422 98.1864 7.59401Z" fill="black"/>
<path fill-rule="evenodd" clip-rule="evenodd" d="M95.5433 0C101.819 7.72798e-05 106.887 4.23232 106.887 9.48151C106.887 14.7132 101.819 18.9486 95.5433 18.9487C89.2925 18.9487 84.1649 14.7135 84.1647 9.48534C84.1647 4.2326 89.2923 0 95.5433 0ZM92.4564 1.0552C88.5799 1.79264 85.0435 4.79483 84.8343 9.3868C84.6465 13.8497 88.7964 17.4458 93.9382 18.2427C90.5188 17.2782 88.4847 15.629 87.5137 13.5043L87.5596 13.4555C89.0727 15.6779 91.7975 17.4149 95.0784 17.6141C91.9072 16.6915 90.1643 14.7829 89.6718 13.046L89.6928 13.0078C91.9076 16.1112 95.0793 17.9954 99.7466 17.3453C94.4239 16.9924 92.248 13.7733 91.6844 10.8237C94.1259 9.9466 96.3581 9.19122 98.789 8.31055C99.0614 8.21969 99.1222 7.8004 98.9871 7.64663C98.5659 7.18191 97.7263 7.15055 97.3895 7.64663C97.2478 7.8563 97.159 8.20933 96.8118 8.27229C95.0968 8.63223 93.3959 8.99208 91.6844 9.34854C91.4223 5.73154 92.9102 2.86578 97.2614 1.20923C93.9057 1.15695 91.2514 2.87637 89.3379 5.94472L89.3064 5.92367C89.9193 4.57472 90.2881 3.19104 93.2006 1.47518C91.5813 1.73382 89.6746 2.59297 87.9136 4.72114L87.8715 4.6934C89.0443 2.93565 90.1072 1.74017 92.4564 1.0552ZM99.0942 2.12858C95.1928 2.12858 92.0319 5.19664 92.0317 8.87307L96.6061 7.90875C96.6699 7.89477 97.4143 6.12296 99.2214 7.32519C99.8025 7.70937 101.511 7.02469 103.786 6.66126L103.803 6.689L92.3502 11.3126C93.2397 14.1923 95.9298 16.2863 99.0942 16.2863C102.992 16.2861 106.149 13.1195 106.149 9.20886C106.145 5.30177 102.992 2.12878 99.0942 2.12858Z" fill="black"/>
</svg>
