<svg width="276" height="48" viewBox="0 0 276 48" fill="none" xmlns="http://www.w3.org/2000/svg">
<path fill-rule="evenodd" clip-rule="evenodd" d="M0 23.6416V47.2839H23.6057H47.2108L47.0227 23.8306L46.834 0.3774L23.417 0.188342L0 0V23.6416ZM62.7904 10.2242L60.3843 20.429L66.6422 20.6346C74.1149 20.8802 76.7998 19.826 78.3864 16.0234C80.5158 10.9195 77.5584 7.18063 71.3921 7.18063C69.039 7.18063 68.5713 6.96651 68.9231 6.04771C69.1619 5.42468 69.3571 4.78016 69.3571 4.61545C69.3571 4.45074 71.7703 4.31611 74.7198 4.31611C78.8727 4.31611 80.0825 4.08695 80.0825 3.30064C80.0825 2.74206 80.2777 1.77528 80.5165 1.15225C80.8962 0.161129 79.9624 0.0193355 73.0738 0.0193355H65.1972L62.7904 10.2242ZM82.3984 9.87327C81.1157 15.2851 80.0696 19.9542 80.0746 20.25C80.0789 20.5457 83.5875 20.7871 87.8712 20.7871C94.3143 20.7871 95.735 20.5916 96.094 19.6542C97.1901 16.7932 96.7118 16.4903 91.0888 16.4903C86.4226 16.4903 85.7111 16.3292 86.0837 15.3574C86.3225 14.7344 86.5177 13.7676 86.5177 13.209C86.5177 12.4291 87.6789 12.1935 91.5228 12.1935C95.3668 12.1935 96.528 11.9579 96.528 11.1781C96.528 10.6195 96.7232 9.65271 96.962 9.02967C97.331 8.0672 96.686 7.89676 92.6719 7.89676C87.9899 7.89676 87.5416 7.6411 88.3817 5.44903C88.7228 4.5596 89.9348 4.31611 94.0254 4.31611C98.1161 4.31611 99.328 4.07263 99.6691 3.18319C100.816 0.190491 100.423 0.0193354 92.4166 0.0264967L84.7301 0.033658L82.3984 9.87327ZM102.592 0.914497C102.202 1.98583 97.958 19.8203 97.958 20.3903C97.958 20.6088 99.0692 20.7871 100.427 20.7871C102.671 20.7871 102.964 20.5422 103.64 18.1016C104.05 16.6249 104.387 15.0509 104.389 14.604C104.392 14.1135 106.237 13.6752 109.059 13.4947C114.909 13.1224 117.229 11.2024 117.783 6.27472C118.079 3.64438 117.867 2.77214 116.632 1.53538C115.327 0.228445 114.278 0.0193355 109.019 0.0193355C104.789 0.0193355 102.818 0.293613 102.592 0.914497ZM122.982 6.47238C121.293 13.3193 119.466 16.4903 117.211 16.4903C116.454 16.4903 115.834 16.9472 115.834 17.5058C115.834 18.0644 115.638 19.0311 115.4 19.6542C114.727 21.408 119.483 21.1394 121.829 19.2918C124.279 17.3611 125.499 14.9356 126.971 9.07049C128.146 4.38271 128.196 4.31611 130.579 4.31611C131.907 4.31611 132.994 4.61259 132.994 4.97567C132.994 5.64167 130.367 17.2129 129.689 19.5339C129.389 20.5608 129.781 20.7871 131.86 20.7871C134.042 20.7871 134.46 20.5114 134.846 18.8177C135.093 17.7349 136.069 13.6258 137.015 9.68708C137.961 5.74837 138.862 1.96219 139.015 1.27256C139.268 0.141794 138.575 0.0193355 131.934 0.0193355H124.574L122.982 6.47238ZM142.686 0.914497C142.536 1.40719 141.55 5.51563 140.495 10.0451C139.44 14.5747 138.425 18.8442 138.24 19.5339C137.962 20.5687 138.382 20.7871 140.648 20.7871C143.252 20.7871 143.627 20.4777 147.99 14.7251C150.519 11.3915 152.672 8.7468 152.773 8.84778C152.953 9.02824 151.202 17.0575 150.443 19.5339C150.127 20.5622 150.508 20.7871 152.561 20.7871C154.33 20.7871 155.169 20.4197 155.425 19.5339C155.624 18.8449 156.619 14.7358 157.637 10.4032C158.656 6.07063 159.662 1.96219 159.875 1.27256C160.198 0.225581 159.797 0.0193355 157.442 0.0193355C154.762 0.0193355 154.403 0.303638 150.166 5.7899C147.715 8.96379 145.593 11.4437 145.45 11.3012C145.308 11.158 145.781 8.56133 146.502 5.53067L147.813 0.0193355H145.386C144.051 0.0193355 142.836 0.422516 142.686 0.914497ZM163.081 2.70482C162.688 4.1822 161.7 8.29063 160.886 11.8355C160.072 15.3803 159.233 18.8442 159.022 19.5339C158.707 20.5629 159.09 20.7871 161.162 20.7871C163.478 20.7871 163.742 20.5672 164.374 18.1016C164.752 16.6249 165.169 14.7716 165.301 13.9839C165.495 12.8237 166.189 12.5101 168.954 12.3325C172.764 12.0875 172.613 11.6006 170.867 18.4998L170.268 20.868L172.817 20.6482L175.366 20.429L177.417 11.8355C178.545 7.10902 179.636 2.51719 179.84 1.63063C180.172 0.195503 179.939 0.0193355 177.71 0.0193355C175.562 0.0193355 175.146 0.29791 174.774 1.98869C173.602 7.30953 173.434 7.52724 170.298 7.75854C166.974 8.00418 166.82 7.67118 167.972 2.70482L168.594 0.0193355H166.195C164.025 0.0193355 163.726 0.277142 163.081 2.70482ZM195.201 0.556432C195.201 0.899458 195.966 3.13521 196.901 5.52565L198.602 9.87041L194.043 15.1497L189.484 20.429L192.384 20.651C194.718 20.8301 195.539 20.5508 196.588 19.2188C197.305 18.3093 198.547 16.7589 199.348 15.7742L200.805 13.9839L201.663 17.3855C202.521 20.7849 202.523 20.7871 205.605 20.7871H208.689L206.508 15.4276L204.329 10.0673L208.776 5.0437L213.224 0.0193355H210.03C207.108 0.0193355 206.666 0.264968 204.845 2.89674C202.667 6.04413 202.366 6.02408 201.219 2.65326C200.562 0.723291 200.047 0.343742 197.823 0.1554C196.381 0.032942 195.201 0.213406 195.201 0.556432ZM214.907 0.914497C214.42 2.5308 210.217 20.0237 210.217 20.434C210.217 20.6539 213.837 20.7427 218.261 20.6317L226.305 20.429L226.53 18.4597L226.757 16.4903H221.409H216.06L216.584 14.521C217.076 12.664 217.369 12.5394 221.687 12.3339C226.272 12.1169 227.346 11.5146 227.366 9.14998C227.376 8.08152 226.68 7.89676 222.653 7.89676C218.639 7.89676 217.994 7.72632 218.363 6.76384C218.602 6.14081 218.797 5.34877 218.797 5.0036C218.797 4.65842 221.268 4.28245 224.289 4.16716C229.606 3.96449 229.797 3.89503 230.305 1.98869L230.828 0.0193355H223.003C217.362 0.0193355 215.102 0.269265 214.907 0.914497ZM232.832 1.27256C232.633 1.96219 231.638 6.07063 230.62 10.4032C229.601 14.7358 228.595 18.8442 228.382 19.5339C228.065 20.5637 228.445 20.7871 230.519 20.7871C233.289 20.7871 233.215 20.9282 235.377 11.4774L236.277 7.53869L236.93 14.1629C237.583 20.7806 237.585 20.7871 239.58 20.7871C241.347 20.7871 241.931 20.1218 244.651 15.0108C246.341 11.8333 247.828 9.54744 247.955 9.92985C248.083 10.313 247.687 12.5559 247.077 14.9148C245.592 20.6582 245.618 20.7878 248.291 20.7821L250.615 20.7763L252.647 12.0095C253.764 7.18707 254.844 2.51719 255.048 1.63063C255.394 0.121742 255.186 0.0193355 251.772 0.0193355H248.127L244.737 6.64353L241.347 13.2677L240.699 6.64353L240.052 0.0193355H236.622C233.971 0.0193355 233.112 0.303639 232.832 1.27256ZM256.827 9.56319C255.573 14.8124 254.548 19.4852 254.548 19.9471C254.548 20.4276 255.606 20.7871 257.023 20.7871C259.271 20.7871 259.905 20.26 263.975 15.0008C266.438 11.819 268.559 9.5324 268.687 9.92054C268.817 10.3087 268.423 12.5559 267.813 14.9148C266.326 20.6639 266.351 20.7871 269.06 20.7871H271.417L273.709 10.9403C274.97 5.52494 276.001 0.851478 276 0.556432C275.999 0.260671 274.792 0.0322258 273.317 0.0479806C270.903 0.0737613 270.329 0.48482 267.561 4.16572C265.87 6.41509 263.732 9.18436 262.811 10.3201L261.134 12.3855L262.483 6.73949C263.225 3.63436 263.835 0.851478 263.837 0.556432C263.84 0.260671 262.777 0.0193355 261.474 0.0193355H259.105L256.827 9.56319ZM0.715022 23.8457V46.5677H4.62905H8.54308L8.74043 35.7914L8.93778 25.0151L15.9393 35.0753C19.7897 40.6081 23.191 45.1355 23.4978 45.1355C23.8045 45.1355 27.2495 40.5437 31.1542 34.9306L38.2537 24.7258L38.451 35.6468L38.6484 46.5677H42.5624H46.4764V24.3677C46.4764 12.1577 46.2348 2.17632 45.9402 2.18706C45.6456 2.1978 42.6804 5.98469 39.3527 10.6016C36.0242 15.2192 31.0906 22.0102 28.3885 25.694L23.477 32.3905L17.995 24.8748C14.9797 20.7405 9.85873 13.7053 6.61396 9.24093L0.715022 1.12289V23.8457ZM21.9526 2.6196C21.7045 2.86881 21.8225 3.67446 22.2157 4.40992C22.609 5.1461 22.6784 5.74909 22.3695 5.74909C21.387 5.75052 21.7374 11.6908 22.7399 12.026C23.4234 12.2551 23.3283 12.5917 22.3823 13.2906C21.1704 14.1858 21.2004 14.2868 22.8807 14.9635C24.1341 15.4684 24.2943 15.6968 23.417 15.7291C22.7291 15.7534 22.1535 16.0155 22.1385 16.3113C22.1235 16.607 21.9369 18.0572 21.7231 19.5339C21.3613 22.0296 21.4614 22.2193 23.1353 22.2193H24.9357L24.9035 12.1935C24.8749 3.18892 24.7462 2.16772 23.6379 2.16772C22.9594 2.16772 22.2007 2.3711 21.9526 2.6196ZM106.528 5.1683C106.523 5.68392 106.325 6.83116 106.088 7.71773C105.702 9.15643 105.914 9.32758 108.063 9.31827C111.258 9.30324 112.435 8.45677 112.142 6.38358C111.944 4.97853 111.424 4.63479 109.22 4.45218C107.376 4.29892 106.535 4.52307 106.528 5.1683ZM181.378 9.80667C181.115 10.0688 180.901 10.8744 180.901 11.597C180.901 12.7077 181.494 12.9097 184.757 12.9097C188.493 12.9097 189.481 12.2988 189.481 9.98642C189.481 9.23878 182.108 9.07479 181.378 9.80667ZM67.2121 13.1682C67.2121 13.749 67.0169 14.7344 66.7781 15.3574C66.1739 16.9343 70.9774 16.9135 72.5554 15.333C74.3008 13.585 73.5071 12.5759 70.1952 12.3317C67.9428 12.1649 67.2121 12.3697 67.2121 13.1682ZM22.1657 24.0097C22.8292 24.8103 22.8407 25.0839 22.2107 25.0839C21.7467 25.0839 21.5651 25.4061 21.8082 25.8C22.0513 26.1939 22.8743 26.5161 23.6379 26.5161C24.6418 26.5161 25.0258 26.0206 25.0258 24.7258C25.0258 23.2713 24.674 22.9355 23.151 22.9355C21.5651 22.9355 21.4128 23.1016 22.1657 24.0097ZM156.942 28.1274C156.768 28.6201 155.317 32.7114 153.718 37.2194C150.435 46.4797 149.943 47.2839 147.565 47.2839H145.865V38.0243C145.865 28.9903 145.904 28.7569 147.473 28.454C148.359 28.2828 146.83 28.1367 144.077 28.1288C141.324 28.121 139.635 28.262 140.323 28.4418C141.337 28.7075 141.574 29.574 141.574 33.0136V37.2581H138.357H135.139V33.0136C135.139 29.574 135.377 28.7075 136.39 28.4418C137.079 28.262 135.389 28.1145 132.637 28.1145C129.884 28.1145 128.194 28.262 128.883 28.4418C129.992 28.7325 130.134 29.8103 130.134 37.9742C130.134 46.1381 129.992 47.2158 128.883 47.5066C128.194 47.6863 129.884 47.8339 132.637 47.8339C135.389 47.8339 137.079 47.6863 136.39 47.5066C135.362 47.2373 135.139 46.3572 135.139 42.5768V37.9742H138.357H141.574V42.5768C141.574 46.3572 141.351 47.2373 140.323 47.5066C139.635 47.6863 142.772 47.8496 147.295 47.8682C153.7 47.8954 155.162 47.7314 153.909 47.1263C152.262 46.3307 151.969 45.4012 152.734 43.4039C153.028 42.6376 154.074 42.271 155.969 42.271C158.318 42.271 158.883 42.5674 159.468 44.1078C160.432 46.6472 160.353 47.1299 158.914 47.5066C158.225 47.6863 162.006 47.8274 167.315 47.8195C172.624 47.8117 176.244 47.6656 175.359 47.4944C173.926 47.218 173.75 46.7589 173.75 43.295V39.4064H177.229C181.976 39.4064 184.476 37.4507 184.476 33.7361C184.476 29.2453 182.789 28.3308 174.213 28.1732C170.222 28.1002 167.52 28.2048 168.209 28.4053C169.317 28.7282 169.46 29.8268 169.46 38.0265V47.2839H167.375C165.328 47.2839 165.225 47.0934 161.953 37.2581C158.846 27.9226 157.734 25.896 156.942 28.1274ZM87.4115 28.7218C88.4876 29.3491 88.6627 30.5959 88.6627 37.6111C88.6627 45.2307 88.5576 45.8445 87.0732 46.885C85.5288 47.9692 85.5688 48 88.5205 48C91.5543 48 91.555 47.9993 90.4389 46.2927C89.5823 44.9837 89.3699 43.02 89.5286 37.8782L89.7353 31.171L92.4731 39.2203C93.9796 43.6474 95.4805 47.4357 95.8087 47.6391C96.1369 47.8425 97.6949 44.2203 99.2708 39.5898L102.135 31.171L102.192 39.1751C102.242 46.224 102.099 47.218 100.997 47.5066C100.308 47.6863 101.998 47.8339 104.751 47.8339C107.504 47.8339 109.193 47.6863 108.505 47.5066C107.395 47.2158 107.253 46.1381 107.253 37.9742C107.253 29.8182 107.396 28.7297 108.505 28.4196C109.193 28.2277 108.029 28.1231 105.918 28.1883L102.08 28.3064L99.905 34.347L97.7299 40.3875L95.5777 34.168L93.4262 27.9484L89.7932 27.9699C86.9767 27.987 86.4412 28.1561 87.4115 28.7218ZM111.365 28.454C112.933 28.7562 112.973 28.9925 112.973 37.9742C112.973 46.9559 112.933 47.1922 111.365 47.4944C110.479 47.6656 113.697 47.8489 118.515 47.9026L127.274 48V44.3771C127.274 42.1442 126.999 40.9239 126.559 41.1968C126.166 41.4403 125.844 42.0747 125.844 42.6075C125.844 44.2296 121.605 47.2839 119.354 47.2839H117.264V42.271C117.264 37.9699 117.442 37.2595 118.515 37.2688C120.164 37.2831 121.163 38.0157 121.921 39.7645C122.486 41.07 122.565 41.0235 122.809 39.2403C122.956 38.164 122.96 36.2304 122.816 34.9435C122.591 32.9119 122.474 32.7923 121.928 34.0355C121.161 35.7864 120.162 36.5169 118.515 36.5312C117.474 36.5398 117.264 35.8809 117.264 32.6032C117.264 28.8994 117.368 28.6645 119.018 28.6645C121.821 28.6645 124.136 30.0653 125.345 32.4951L126.467 34.7516L126.513 31.35L126.559 27.9484L118.157 28.0458C113.536 28.0995 110.479 28.2828 111.365 28.454ZM186.8 28.4418C187.909 28.7325 188.051 29.8103 188.051 37.9742C188.051 46.1381 187.909 47.2158 186.8 47.5066C186.112 47.6863 187.64 47.846 190.196 47.8604C192.752 47.8747 194.442 47.7243 193.95 47.5259C192.565 46.9666 192.84 45.7972 195.875 39.3284L198.695 33.3193L198.735 40.2493C198.771 46.267 198.612 47.2223 197.525 47.5066C196.837 47.6863 198.526 47.8339 201.279 47.8339C204.032 47.8339 205.72 47.6863 205.033 47.5066C203.923 47.2158 203.781 46.1381 203.781 37.9742C203.781 29.8103 203.923 28.7325 205.033 28.4418C205.72 28.262 204.032 28.1145 201.279 28.1145C198.526 28.1145 196.837 28.262 197.525 28.4418C199.355 28.9209 199.033 30.5401 195.916 36.5419L193.127 41.9129L193.091 35.3481C193.067 30.7391 193.322 28.676 193.95 28.4225C194.442 28.2241 192.752 28.0737 190.196 28.088C187.64 28.1023 186.112 28.262 186.8 28.4418ZM208.25 28.4418C209.36 28.7325 209.501 29.8103 209.501 37.9742C209.501 46.1381 209.36 47.2158 208.25 47.5066C207.562 47.6863 209.09 47.8339 211.647 47.8339C214.203 47.8339 215.731 47.6863 215.043 47.5066C214.015 47.2373 213.792 46.3572 213.792 42.5768V37.9742H217.009H220.227V42.5768C220.227 46.3572 220.004 47.2373 218.976 47.5066C218.288 47.6863 219.977 47.8339 222.729 47.8339C225.482 47.8339 227.171 47.6863 226.483 47.5066C225.374 47.2158 225.232 46.1381 225.232 37.9742C225.232 29.8103 225.374 28.7325 226.483 28.4418C227.171 28.262 225.482 28.1145 222.729 28.1145C219.977 28.1145 218.288 28.262 218.976 28.4418C219.989 28.7075 220.227 29.574 220.227 33.0136V37.2581H217.009H213.792V33.0136C213.792 29.574 214.029 28.7075 215.043 28.4418C215.731 28.262 214.203 28.1145 211.647 28.1145C209.09 28.1145 207.562 28.262 208.25 28.4418ZM229.343 28.454C230.912 28.7562 230.952 28.9925 230.952 37.9742C230.952 46.9559 230.912 47.1922 229.343 47.4944C228.458 47.6656 229.987 47.8117 232.74 47.8195C235.493 47.8274 237.181 47.6863 236.494 47.5066C235.806 47.3261 235.259 46.9609 235.279 46.6945C235.299 46.4281 236.719 43.3094 238.433 39.7645L241.552 33.3193L241.615 40.2493C241.67 46.2784 241.515 47.2216 240.426 47.5066C239.738 47.6863 241.427 47.8339 244.18 47.8339C246.933 47.8339 248.622 47.6863 247.934 47.5066C246.824 47.2158 246.683 46.1381 246.683 37.9742C246.683 29.8103 246.824 28.7325 247.934 28.4418C248.622 28.262 246.933 28.1145 244.18 28.1145C241.427 28.1145 239.738 28.262 240.426 28.4418C242.29 28.9302 241.931 30.5422 238.46 37.2581L235.314 43.3452L235.278 36.0571C235.247 29.7007 235.402 28.7275 236.494 28.4418C237.181 28.262 235.493 28.121 232.74 28.1288C229.987 28.1367 228.458 28.2828 229.343 28.454ZM173.75 33.6774C173.75 38.2664 173.876 38.6903 175.228 38.6903C178.395 38.6903 179.471 37.4192 179.471 33.6774C179.471 29.9356 178.395 28.6645 175.228 28.6645C173.876 28.6645 173.75 29.0885 173.75 33.6774ZM154.812 36.7668C153.143 40.7685 153.369 41.5548 156.189 41.5548H158.648L157.515 38.1532C156.892 36.2827 156.272 34.6213 156.138 34.4623C156.004 34.304 155.406 35.341 154.812 36.7668Z" fill="black"/>
</svg>
