<svg width="83" height="48" viewBox="0 0 83 48" fill="none" xmlns="http://www.w3.org/2000/svg">
<path fill-rule="evenodd" clip-rule="evenodd" d="M53.8447 0.0551259C53.6839 0.0771549 52.6317 0.169908 51.5064 0.261213C45.1048 0.780778 38.093 2.35831 31.1384 4.84368C23.649 7.52005 16.5641 11.3582 10.9075 15.803C9.16115 17.1754 5.76494 20.506 4.73727 21.8543C4.34239 22.3724 3.57222 23.3832 3.02579 24.1006C1.8587 25.6328 1.03606 27.1428 0.495917 28.7443C-0.01792 30.267 -0.15734 32.8773 0.195448 34.3643C1.81412 41.1847 10.4526 46.0899 23.658 47.6869C25.8546 47.9525 27.0122 47.9974 31.7041 47.9999C36.4182 48.0024 37.593 47.9576 40.1073 47.6792C43.8263 47.2674 49.4642 46.2944 51.6525 45.6867C52.0544 45.5751 53.2391 45.2558 54.285 44.9774C63.8036 42.4432 72.3662 38.0103 77.5344 32.9412C80.1117 30.4132 81.5407 28.3045 82.4395 25.7028C83.0257 24.0061 83.1673 21.7443 82.7922 20.0718C82.5037 18.7857 81.6728 17.0316 80.8099 15.8864L80.1898 15.0634L80.2107 13.3502C80.2425 10.7244 79.6933 9.07933 78.0818 6.97339C76.8881 5.41353 75.2771 4.17034 72.9686 3.02773C68.939 1.03324 63.2747 -0.03299 56.8865 0.00077809C55.3743 0.0087491 54.0054 0.0332419 53.8447 0.0551259ZM17.6367 19.386C18.058 19.567 18.6334 19.9683 18.9154 20.2777C19.3774 20.785 19.4281 20.9237 19.4281 21.6814C19.4281 22.3561 19.3464 22.6493 19.0142 23.1664C18.5631 23.8687 17.6985 24.696 16.9688 25.1234C16.7139 25.2728 16.5054 25.4299 16.5055 25.4725C16.5058 25.5151 16.8545 25.7305 17.2807 25.9514C17.7068 26.1721 18.4124 26.7112 18.8486 27.1493L19.6419 27.9457L19.6964 29.0183C19.768 30.4244 19.5701 30.9609 18.5941 32.0066C17.9988 32.644 17.474 33.024 16.5979 33.4516C15.0579 34.2034 14.0091 34.4637 12.1106 34.5656C9.97034 34.6805 9.30744 34.5601 8.60215 33.9283C7.84513 33.2501 7.852 32.9101 8.68852 29.6803C9.84246 25.2247 10.3673 23.0115 10.3673 22.6014C10.3673 22.3818 10.4462 22.1238 10.5426 22.0282C10.8003 21.7727 12.4014 21.7999 12.5027 22.0616C12.5799 22.2611 11.7729 25.7367 11.0196 28.4485C10.5007 30.3167 10.1996 31.8383 10.2503 32.3366C10.3282 33.1022 10.8972 33.3685 12.5799 33.4261C13.808 33.4683 14.1779 33.4256 14.8981 33.1585C15.9217 32.7789 16.8468 32.0311 17.2409 31.2647C17.5825 30.6011 17.6284 29.184 17.3312 28.4787C16.9241 27.5125 14.9537 26.5827 13.7756 26.8009C12.9942 26.9457 12.4133 26.8351 12.4133 26.5415C12.4133 26.1987 12.8343 25.4969 13.1359 25.3369C13.2906 25.2547 13.8108 25.1876 14.2922 25.1876C15.0558 25.1876 15.2473 25.1272 15.7954 24.7124C16.1411 24.4511 16.6394 23.9569 16.9029 23.6141C17.3099 23.0851 17.3821 22.8712 17.3821 22.1959C17.3821 21.203 17.2295 20.9163 16.5061 20.5503C16.0281 20.3085 15.6449 20.2601 14.2088 20.2601C12.7427 20.2601 12.3365 20.3134 11.4918 20.6173C10.02 21.1467 9.13265 21.6703 7.86106 22.7601C7.23309 23.2982 6.65232 23.7383 6.57033 23.7383C6.35653 23.7383 6.38678 22.7966 6.61827 22.2482C6.72656 21.9916 7.08665 21.5389 7.4184 21.2419C8.11842 20.6156 9.91743 19.6557 10.6595 19.5128C10.9409 19.4586 11.6643 19.3128 12.2671 19.1889C13.9065 18.8518 16.6249 18.9515 17.6367 19.386ZM34.5815 20.3687C34.2446 22.548 33.8268 24.5289 33.3815 26.0572C32.9286 27.6114 32.9477 27.6421 33.73 26.618C34.6697 25.3879 35.3952 24.7982 36.2976 24.5312C37.2638 24.2454 37.6287 24.2621 38.2738 24.6215C39.097 25.0803 39.353 25.6314 39.4236 27.096C39.5772 30.2809 38.2572 32.839 35.8732 33.9767C34.8704 34.4553 34.823 34.463 32.859 34.463C31.7617 34.463 30.6555 34.4216 30.4011 34.3712C29.9439 34.2805 29.9394 34.2712 30.0307 33.6103C30.0815 33.2424 30.2437 32.3869 30.391 31.7093C30.5383 31.0318 30.7943 29.7601 30.9598 28.8832C31.1253 28.0064 31.5248 25.9195 31.8473 24.2456C32.1698 22.5716 32.4757 20.8924 32.5271 20.5137L32.6207 19.8253H33.6431H34.6654L34.5815 20.3687ZM52.0179 19.9585C52.0179 20.0318 51.8535 20.9111 51.6525 21.9127C51.4516 22.9141 51.2872 23.8643 51.2872 24.0241C51.2872 24.1838 51.0856 24.9386 50.8392 25.7012C50.593 26.4638 50.4166 27.1627 50.4473 27.2541C50.4781 27.3457 50.7736 27.0576 51.1041 26.614C52.3251 24.9748 53.7038 24.188 55.0135 24.3828C56.5679 24.614 57.156 25.903 56.6325 27.9316C56.414 28.778 56.1381 30.2272 55.7334 32.6514C55.6003 33.4485 55.4682 34.1822 55.4398 34.2818C55.4053 34.4034 55.0692 34.463 54.4173 34.463H53.4461L53.541 33.7745C53.6671 32.8589 54.0155 30.9406 54.3646 29.2406C54.7347 27.439 54.7325 26.7202 54.3562 26.347C53.991 25.9848 53.7593 25.9835 53.0545 26.3402C51.9784 26.8845 50.7877 28.677 50.0241 30.9014C49.8347 31.4534 49.6796 32.016 49.6796 32.1516C49.6796 32.2874 49.5738 32.863 49.4445 33.4306L49.2095 34.463H48.2022C47.6484 34.463 47.1952 34.4353 47.1952 34.4015C47.1952 34.3676 47.3212 33.7644 47.4752 33.0609C47.789 31.6283 48.0801 30.1266 48.44 28.0861C48.5736 27.3289 48.8348 25.9919 49.0204 25.1151C49.2061 24.2383 49.507 22.6893 49.6893 21.6731L50.0204 19.8253H51.0191C51.5685 19.8253 52.0179 19.8853 52.0179 19.9585ZM25.4948 20.9866C26.3849 21.9621 24.9454 23.4076 23.845 22.6431C23.4406 22.3622 23.3915 21.3659 23.762 20.9599C24.1054 20.5835 25.1415 20.5995 25.4948 20.9866ZM29.3908 20.9347C29.7766 21.2809 29.733 22.0215 29.2997 22.4853C28.3312 23.5215 26.7848 22.2818 27.6108 21.1314C27.8722 20.7674 28.0239 20.6948 28.5239 20.6948C28.8768 20.6948 29.2335 20.7935 29.3908 20.9347ZM47.2365 24.5372L47.9355 24.627L47.8372 25.1609C47.6523 26.1643 47.5152 26.3895 47.156 26.2801C46.4624 26.0686 45.4526 26.0311 44.9433 26.1977C43.8311 26.5616 42.9512 27.6844 42.5842 29.2073C42.1601 30.967 42.4045 32.2319 43.2344 32.5728C43.7057 32.7663 45.5404 32.7227 46.07 32.5053C46.3099 32.4069 46.3293 32.4795 46.2892 33.3209L46.2453 34.2445L45.5145 34.4124C44.5522 34.6332 42.8346 34.6496 42.2116 34.4437C41.5199 34.2153 40.6668 33.3657 40.3794 32.6192C39.9034 31.3829 40.3334 28.7267 41.2647 27.1508C41.7476 26.3337 42.972 25.2289 43.7942 24.8682C44.4933 24.5615 45.7259 24.3282 46.2453 24.4043C46.406 24.4279 46.852 24.4876 47.2365 24.5372ZM63.9009 24.5206C66.7457 25.1845 66.499 28.4066 63.5184 29.5124C63.0709 29.6785 62.1253 29.8885 61.4169 29.9789C59.3753 30.2399 59.5007 30.1837 59.3943 30.8872C59.2705 31.7058 59.5938 32.4844 60.1832 32.7867C60.7863 33.096 62.1103 33.0737 63.3078 32.7341L64.2939 32.4544V33.1511C64.2939 33.5498 64.2117 33.9154 64.1018 34.0058C63.7726 34.2767 62.0757 34.6037 61.0057 34.6022C59.4959 34.6003 58.9355 34.426 58.2289 33.7383C57.2679 32.803 57.089 31.8502 57.4871 29.7867C58.0241 27.0035 59.7009 24.9937 61.9185 24.4754C62.7011 24.2924 62.9467 24.298 63.9009 24.5206ZM74.4793 24.9251C75.302 25.716 75.3796 26.4208 74.8828 28.5934C74.4718 30.3911 74.0841 32.6737 74.0847 33.2921C74.0851 33.6911 74.1792 34.0357 74.3339 34.2053C74.5751 34.4695 74.5529 34.4763 73.5817 34.434C72.6918 34.3953 72.5487 34.3474 72.2893 34.0022C72.0168 33.6392 72.009 33.5353 72.1704 32.408C72.2652 31.7447 72.4322 30.7456 72.5414 30.1876C73.2024 26.8124 73.2001 26.4469 72.516 26.1889C71.9675 25.9821 71.5433 26.1241 70.8418 26.7492C69.51 27.9361 68.5166 30.0096 67.9273 32.8325L67.5869 34.463H66.5981C66.0541 34.463 65.6091 34.4298 65.6091 34.3892C65.6091 34.3486 65.9061 32.7996 66.269 30.9472C66.632 29.0945 67.0345 26.9919 67.1637 26.2745C67.2927 25.5572 67.4212 24.8888 67.4491 24.789C67.4831 24.6677 67.8152 24.6079 68.4544 24.6079C69.5532 24.6079 69.5389 24.5798 69.1319 25.9332C68.9796 26.4398 68.8143 27.0499 68.7645 27.289C68.6878 27.658 68.6993 27.6825 68.8405 27.4506C69.4835 26.3953 71.1301 24.8398 71.8997 24.5606C72.8913 24.2009 73.8697 24.3392 74.4793 24.9251ZM23.8124 24.7274C23.8124 24.7932 23.6769 25.5921 23.5112 26.5028C22.5224 31.9392 22.4898 32.2611 22.8886 32.6566C23.0684 32.8348 23.2885 32.8795 23.7111 32.8232C25.1857 32.627 26.9714 29.8008 27.6198 26.6369C27.775 25.8796 27.9367 25.1134 27.979 24.934C28.0493 24.6364 28.1405 24.6079 29.0222 24.6079H29.9884L29.9053 25.2238C29.8598 25.5627 29.6896 26.4593 29.5271 27.2166C29.3648 27.9738 29.0628 29.5716 28.8563 30.7673C28.6498 31.963 28.4065 33.2837 28.3155 33.7021L28.1502 34.463H27.1405C26.2397 34.463 26.1398 34.4353 26.2134 34.2053C26.3418 33.8041 26.7618 32.2553 26.847 31.8689C26.9568 31.3714 26.7089 31.573 26.1078 32.4699C25.1741 33.8635 23.9803 34.609 22.6871 34.6057C21.6249 34.6031 21.2027 34.3938 20.7855 33.6631C20.3744 32.9434 20.3665 32.2874 20.7476 30.5357C21.1606 28.6373 21.7556 25.2718 21.7635 24.789C21.7655 24.6616 22.0699 24.6079 22.7894 24.6079C23.352 24.6079 23.8124 24.6616 23.8124 24.7274ZM61.8094 26.0169C60.9551 26.3351 59.9096 27.6601 59.9096 28.4245V28.8511L60.7499 28.7695C61.8733 28.6605 63.2836 28.1747 63.5994 27.7879C63.9605 27.3456 63.9292 26.5715 63.5355 26.2077C63.2218 25.9177 62.3376 25.8201 61.8094 26.0169ZM35.8669 26.2589C35.2906 26.508 34.0774 27.835 33.5579 28.7847C33.0537 29.7066 32.2886 31.9122 32.2886 32.4443C32.2886 32.7269 32.3795 32.859 32.6175 32.9224C33.3125 33.107 34.2776 33.0034 35.0094 32.6656C36.2007 32.1154 36.875 31.0467 37.2049 29.1859C37.465 27.7185 37.3513 26.5735 36.9154 26.2708C36.5456 26.0138 36.4368 26.0127 35.8669 26.2589ZM71.6362 38.8015C70.2239 39.6808 70.2239 41.7089 71.6362 42.5882C72.0137 42.8232 72.2922 42.8732 72.9796 42.8293C73.7887 42.7776 73.8837 42.7325 74.4044 42.1505C74.913 41.5821 74.9623 41.4537 74.9623 40.6948C74.9623 39.936 74.913 39.8076 74.4044 39.2392C73.8837 38.6572 73.7887 38.6121 72.9796 38.5603C72.2922 38.5164 72.0137 38.5664 71.6362 38.8015ZM73.585 39.0854C75.1034 39.7693 74.9097 41.9012 73.2805 42.4344C72.2269 42.7792 71.0158 41.8564 71.017 40.7096C71.0177 40.0263 71.488 39.2803 72.0789 39.0257C72.6981 38.7587 72.8752 38.7657 73.585 39.0854ZM71.8933 40.6948C71.8933 41.7576 71.9339 41.9992 72.1125 41.9992C72.2656 41.9992 72.3317 41.8461 72.3317 41.4919C72.3317 41.0885 72.3891 40.9847 72.612 40.9847C72.7748 40.9847 73.025 41.1974 73.2086 41.4919C73.3825 41.7709 73.6235 41.9992 73.7442 41.9992C73.8649 41.9992 73.9396 41.9503 73.9102 41.8905C73.8808 41.8306 73.7662 41.6027 73.6556 41.3838C73.4795 41.0354 73.4846 40.9528 73.6968 40.7202C74.3026 40.0564 73.749 39.3905 72.5914 39.3905H71.8933V40.6948ZM73.4278 40.1876C73.4278 40.4179 73.3152 40.4867 72.8797 40.5224C72.3744 40.564 72.3317 40.5379 72.3317 40.1876C72.3317 39.8373 72.3744 39.8112 72.8797 39.8528C73.3152 39.8885 73.4278 39.9573 73.4278 40.1876Z" fill="black"/>
</svg>
