<svg width="261" height="48" viewBox="0 0 261 48" fill="none" xmlns="http://www.w3.org/2000/svg">
<path d="M118.501 35.7151C119.298 35.697 120.089 35.8396 120.829 36.1342C121.463 36.3848 122.004 36.8239 122.381 37.3913C122.745 37.9492 122.946 38.5976 122.962 39.2635L121.453 39.3788C121.375 38.6291 121.1 38.0627 120.632 37.6801C120.165 37.2975 119.475 37.1064 118.562 37.1064C117.61 37.1064 116.917 37.2799 116.482 37.6276C116.283 37.7711 116.119 37.9597 116.006 38.1779C115.892 38.3961 115.832 38.638 115.83 38.8838C115.826 39.0813 115.866 39.2777 115.945 39.4585C116.025 39.6392 116.142 39.8002 116.291 39.931C116.596 40.2033 117.383 40.4885 118.66 40.7691C119.938 41.0498 120.815 41.3119 121.29 41.5276C121.902 41.7815 122.432 42.1998 122.821 42.736C123.151 43.2315 123.322 43.8159 123.313 44.4113C123.312 45.0464 123.123 45.6672 122.771 46.1953C122.389 46.7715 121.848 47.2246 121.213 47.4984C120.495 47.8297 119.711 48.0003 118.92 47.9972C117.998 48.0236 117.081 47.863 116.224 47.5256C115.527 47.2366 114.934 46.7438 114.522 46.1119C114.105 45.4787 113.879 44.7386 113.87 43.98L115.336 43.8479C115.38 44.3686 115.548 44.8714 115.825 45.3141C116.127 45.7311 116.541 46.0539 117.019 46.2441C117.596 46.4866 118.217 46.6067 118.842 46.5975C119.383 46.6083 119.922 46.5173 120.43 46.3294C120.835 46.1884 121.19 45.9318 121.451 45.5906C121.671 45.2964 121.789 44.9393 121.791 44.5725C121.796 44.2204 121.681 43.8769 121.466 43.5985C121.179 43.2736 120.809 43.0321 120.396 42.8991C120.077 42.7776 119.373 42.5845 118.281 42.3207C117.19 42.057 116.422 41.8104 115.978 41.5801C115.468 41.3289 115.035 40.9464 114.721 40.4719C114.443 40.029 114.297 39.5143 114.303 38.9907C114.304 38.3942 114.483 37.8112 114.814 37.3154C115.177 36.7749 115.698 36.3593 116.305 36.1257C117.003 35.8442 117.75 35.7045 118.501 35.7151Z" fill="black"/>
<path d="M104.004 42.7735C104.004 43.8053 104.101 44.5662 104.292 45.0563C104.474 45.5389 104.823 45.9406 105.276 46.1878C105.8 46.4678 106.388 46.6045 106.982 46.5853C108.131 46.5853 108.954 46.3232 109.442 45.7997C109.929 45.2761 110.176 44.2668 110.176 42.7735L110.179 35.9148H111.756V42.7782C111.756 43.9717 111.621 44.9208 111.352 45.6244C111.067 46.3415 110.551 46.9437 109.887 47.3353C109.181 47.7752 108.261 47.9972 107.116 47.9972C106.006 47.9972 105.099 47.8045 104.394 47.4206C103.709 47.0619 103.173 46.4719 102.882 45.7556C102.581 45.0297 102.429 44.0372 102.428 42.7782V35.9148H104.004V42.7735Z" fill="black"/>
<path fill-rule="evenodd" clip-rule="evenodd" d="M70.7031 39.016C71.2284 38.9982 71.7522 39.094 72.2373 39.2963C72.7222 39.4986 73.1579 39.8032 73.5148 40.1888C74.242 40.972 74.6071 42.0732 74.6085 43.4916V43.8797H68.1847C68.2413 44.8221 68.5046 45.5552 68.986 46.0472C69.2155 46.2917 69.4941 46.4848 69.8033 46.6144C70.1124 46.7439 70.4457 46.8069 70.7809 46.7991C71.2702 46.8145 71.7514 46.6669 72.1483 46.38C72.5773 46.0224 72.8899 45.5448 73.0461 45.0085L73.048 45.0225L74.5579 45.2222C74.366 46.0342 73.9011 46.7557 73.2411 47.2659C72.6004 47.7518 71.7807 47.9953 70.7827 47.9953C69.5265 47.9953 68.5309 47.6077 67.7967 46.8328C67.0624 46.0578 66.695 44.9727 66.6936 43.5779C66.6936 42.1328 67.0653 41.0114 67.8079 40.2141C68.1763 39.8185 68.6253 39.5067 69.1248 39.3001C69.6243 39.0934 70.1628 38.9963 70.7031 39.016ZM70.7115 40.2104C70.3993 40.2021 70.0887 40.257 69.7986 40.3726C69.5086 40.4882 69.2446 40.662 69.0235 40.8826C68.5573 41.3656 68.2884 42.0059 68.27 42.6769H73.0649C72.9992 41.9524 72.8161 41.4091 72.5147 41.0476C72.2995 40.7779 72.0244 40.562 71.7115 40.4166C71.3988 40.2712 71.0563 40.2011 70.7115 40.2104Z" fill="black"/>
<path fill-rule="evenodd" clip-rule="evenodd" d="M15.47 39.0038C16.0794 38.9841 16.6878 39.072 17.2667 39.2635C17.6562 39.3892 18.0059 39.6145 18.2817 39.917C18.5108 40.2074 18.6673 40.5485 18.7381 40.9116C18.8048 41.3572 18.8367 41.8074 18.8328 42.2579V44.1929C18.8111 45.0505 18.8415 45.9095 18.9246 46.7635C18.9848 47.1296 19.1054 47.4836 19.2808 47.8106H17.754C17.5967 47.4662 17.5001 47.0967 17.4691 46.7194C17.0063 47.1343 16.4759 47.4675 15.9011 47.7038C15.3858 47.8967 14.8394 47.9926 14.2891 47.9878C13.3427 47.9878 12.6153 47.7576 12.1072 47.2969C11.8591 47.0762 11.6624 46.8039 11.5308 46.4991C11.3991 46.194 11.3356 45.8637 11.3452 45.5316C11.3411 45.1288 11.4399 44.7315 11.632 44.3775C11.8139 44.0428 12.0719 43.7554 12.3855 43.5394C12.7065 43.325 13.0602 43.164 13.4324 43.0622C13.8612 42.9662 14.2961 42.8967 14.7333 42.8532C15.6159 42.7733 16.4885 42.6056 17.3379 42.3526V41.9729C17.3378 41.3804 17.1994 40.9638 16.9189 40.7166C16.5462 40.3879 15.9892 40.2245 15.2544 40.2244C14.5662 40.2244 14.0576 40.3457 13.7295 40.5873C13.4011 40.8282 13.1601 41.2555 13.0032 41.8688L11.5758 41.6588C11.6721 41.1214 11.8923 40.6142 12.2187 40.1766C12.5597 39.771 13.0078 39.4698 13.5121 39.3076C14.1425 39.0949 14.8048 38.9921 15.47 39.0038ZM17.3548 43.4813C16.5822 43.7553 15.7804 43.9391 14.9658 44.0297C14.53 44.0752 14.1008 44.1735 13.6883 44.3213C13.454 44.4169 13.2537 44.5799 13.1128 44.79C12.9449 45.0482 12.8759 45.359 12.9198 45.6638C12.9638 45.9684 13.1171 46.2465 13.3509 46.4466C13.6468 46.7049 14.0785 46.8338 14.6452 46.8338C15.1691 46.8436 15.6868 46.7168 16.1467 46.4653C16.5654 46.2415 16.9026 45.8909 17.1111 45.4641C17.2913 45.0025 17.372 44.5077 17.3463 44.0129L17.3548 43.4813Z" fill="black"/>
<path d="M27.1179 43.95C27.1015 44.4641 27.1316 44.9789 27.2079 45.4875C27.2845 45.8492 27.4917 46.1702 27.7899 46.3885C28.1084 46.6148 28.4923 46.731 28.8827 46.7194C29.3144 46.721 29.7386 46.6045 30.1096 46.3838C30.4746 46.1776 30.7607 45.8557 30.9222 45.4688C31.1038 44.9297 31.185 44.3618 31.1612 43.7935V39.1857H32.627V47.7994L31.3074 47.7975V46.516C31.0186 46.9743 30.6164 47.3503 30.1396 47.6072C29.6626 47.8641 29.1272 47.9933 28.5856 47.9822C28.098 47.986 27.6152 47.8864 27.1685 47.6906C26.7835 47.5362 26.4452 47.2833 26.1882 46.9575C25.964 46.6334 25.8111 46.2652 25.7402 45.8775C25.6882 45.5399 25.6591 45.1988 25.6521 44.8575V39.1838H27.1179V43.95Z" fill="black"/>
<path fill-rule="evenodd" clip-rule="evenodd" d="M56.04 38.9954C56.6495 38.9756 57.2578 39.0636 57.8367 39.2551C58.2123 39.3615 58.55 39.5727 58.8096 39.8645C59.0692 40.1565 59.2406 40.5173 59.3025 40.9032C59.3613 41.3481 59.3843 41.7971 59.3728 42.2457V44.1807C59.3512 45.0384 59.3826 45.8965 59.4656 46.7503C59.5239 47.1171 59.6444 47.4713 59.8218 47.7975H58.295C58.1514 47.4549 58.067 47.0903 58.0457 46.7194C57.5832 47.1306 57.054 47.4606 56.4815 47.6953C55.9662 47.8883 55.4196 47.9842 54.8694 47.9794C53.9231 47.9794 53.1956 47.7492 52.6875 47.2884C52.4391 47.0679 52.2422 46.7955 52.1102 46.4906C51.9782 46.1857 51.9145 45.8554 51.9237 45.5232C51.9203 45.1202 52.0196 44.7229 52.2124 44.3691C52.3937 44.034 52.6518 43.7465 52.9659 43.531C53.2866 43.3162 53.6404 43.1552 54.0128 43.0538C54.4416 42.9576 54.8764 42.888 55.3137 42.8447C56.1963 42.7644 57.0688 42.5967 57.9183 42.3441V41.9644C57.9182 41.372 57.7798 40.9552 57.4993 40.7082C57.1238 40.3787 56.5656 40.2146 55.8245 40.216C55.1362 40.216 54.6276 40.3373 54.2996 40.5788C53.9711 40.8197 53.7302 41.2471 53.5732 41.8604L52.1458 41.6504C52.2421 41.113 52.4623 40.6058 52.7888 40.1682C53.1297 39.7627 53.5778 39.4615 54.0822 39.2991C54.7125 39.0866 55.3748 38.9838 56.04 38.9954ZM57.9304 43.4813C57.1578 43.7552 56.3561 43.9391 55.5414 44.0297C55.1056 44.075 54.6764 44.1732 54.264 44.3213C54.0299 44.4169 53.8294 44.5799 53.6885 44.79C53.5209 45.0481 53.4528 45.3582 53.4964 45.6628C53.5399 45.9675 53.6924 46.2458 53.9256 46.4466C54.2964 46.7282 54.7565 46.8666 55.2209 46.8347C55.7449 46.8446 56.2626 46.7168 56.7223 46.4653C57.1409 46.2409 57.4786 45.8906 57.6877 45.4641C57.8679 45.0025 57.9477 44.5077 57.922 44.0129L57.9304 43.4813Z" fill="black"/>
<path d="M22.8029 39.1838H24.2687V40.3126H22.8029V45.3572C22.7852 45.6277 22.8117 45.8995 22.8807 46.1616C22.9313 46.2806 23.0188 46.3806 23.13 46.4466C23.2839 46.5244 23.4555 46.5608 23.6277 46.5516C23.8381 46.5468 24.0487 46.5272 24.2566 46.4944L24.4571 47.7825C24.0969 47.8628 23.7295 47.9068 23.3606 47.9128C22.9355 47.9355 22.5112 47.849 22.129 47.6616C21.8572 47.5146 21.6412 47.2818 21.5151 46.9997C21.3951 46.7204 21.3357 46.1449 21.3371 45.2738V40.3126H20.2593V39.1838H21.3371V37.0539L22.8029 36.1782V39.1838Z" fill="black"/>
<path d="M7.87745 45.241V35.9148H9.38734V47.7984H7.77248L1.53988 38.4695V47.7984H0.0299915V35.9148H1.64672L7.87745 45.241Z" fill="black"/>
<path d="M38.0779 39.002C38.5557 39.0133 39.0221 39.1422 39.4369 39.376L39.3788 39.1838H40.9056L42.2805 44.1535L42.7669 46.005C42.7857 45.9129 42.9357 45.3217 43.2121 44.2285L44.5842 39.1838H46.0791L47.3772 44.1844L47.7961 45.825L48.29 44.1619L49.7784 39.1838H51.1964L48.4953 47.7975H46.9854L45.6199 42.6432L45.2731 41.1769L43.5373 47.7975H41.9815L39.5147 39.6338L39.0592 40.8113C38.7375 40.621 38.3719 40.5172 37.9983 40.5113C37.6894 40.5085 37.3881 40.6095 37.1435 40.7982C36.884 41.0004 36.6957 41.2806 36.6055 41.5969C36.4373 42.1478 36.355 42.7216 36.3609 43.2975V47.7984H34.8951V39.1838H36.2119V40.5029C36.5469 39.8915 36.8569 39.4871 37.1416 39.2945C37.4155 39.1019 37.7432 38.9999 38.0779 39.002Z" fill="black"/>
<path d="M64.8032 39.002C65.3364 39.0149 65.856 39.1739 66.3046 39.4623L65.7835 40.8113C65.4617 40.6209 65.0955 40.518 64.7216 40.5123C64.4136 40.5076 64.1132 40.6062 63.8678 40.7926C63.6083 40.9946 63.4191 41.2741 63.3289 41.5904C63.1614 42.1414 63.0795 42.715 63.0862 43.291V47.7919L61.625 47.7984V39.1838H62.9353V40.5038C63.2702 39.8923 63.5802 39.4871 63.865 39.2945C64.1394 39.1014 64.4676 38.9996 64.8032 39.002Z" fill="black"/>
<path d="M80.4409 39.002C80.9315 38.9972 81.4182 39.0918 81.8711 39.2804C82.2574 39.4305 82.595 39.6842 82.8468 40.0135C83.072 40.3364 83.227 40.7031 83.3014 41.0898C83.367 41.5601 83.3937 42.0353 83.381 42.5101V47.7984H81.9152V42.5626C81.9355 42.1116 81.878 41.6601 81.7456 41.2285C81.6294 40.9329 81.4171 40.6846 81.1429 40.5244C80.8356 40.3435 80.4834 40.2526 80.1269 40.261C79.537 40.2505 78.9647 40.4618 78.5233 40.8535C78.0732 41.2451 77.8486 41.9946 77.8485 43.096V47.7956L76.3958 47.7984V39.1838H77.7061V40.4073C78.3356 39.469 79.2475 39.0006 80.4409 39.002Z" fill="black"/>
<path fill-rule="evenodd" clip-rule="evenodd" d="M95.7057 35.9148C96.7648 35.9148 97.5692 36.024 98.12 36.2354C98.6736 36.4524 99.1383 36.8502 99.4387 37.3642C99.7667 37.9033 99.9365 38.5238 99.9307 39.1548C99.9498 39.9455 99.6555 40.712 99.1125 41.2866C98.5674 41.8647 97.7249 42.2292 96.5867 42.3863C96.9283 42.5389 97.2482 42.7383 97.5351 42.9788C98.0351 43.4475 98.4723 43.9794 98.836 44.5603L100.909 47.7984H98.9457L97.3739 45.3244C96.9201 44.6083 96.5363 44.068 96.2436 43.6847C96.0219 43.3794 95.7515 43.1111 95.4451 42.8907C95.2257 42.7464 94.9834 42.6398 94.7291 42.5747C94.4397 42.5309 94.1471 42.5128 93.8546 42.5204H92.0345V47.7984H90.4393V35.9148H95.7057ZM92.0242 41.1591H95.3973C95.9642 41.1795 96.5308 41.1038 97.0731 40.9351C97.4511 40.8085 97.7757 40.5563 97.9925 40.2207C98.1988 39.9044 98.3065 39.5344 98.3055 39.1566C98.3123 38.8948 98.263 38.6345 98.1575 38.3945C98.0528 38.1545 97.8959 37.9406 97.6982 37.7682C97.2922 37.406 96.6511 37.2254 95.7741 37.2254H92.0242V41.1591Z" fill="black"/>
<path d="M236.47 26.149C236.924 25.9856 237.443 26.2551 237.727 26.6739C238.053 26.8623 238.444 27.0931 238.626 27.4699C238.453 27.5097 238.218 27.4516 238.087 27.5664C237.759 27.8784 237.409 28.1946 236.961 28.1946C236.76 28.1693 236.572 28.0828 236.421 27.9461C236.271 27.8092 236.167 27.6288 236.124 27.4305C235.903 27.3965 235.678 27.4091 235.462 27.468C235.864 28.0781 236.36 28.6219 236.928 29.0805C237.135 29.1682 237.372 29.0806 237.602 29.0805C237.719 29.0323 237.854 29.0266 237.929 28.9239C237.837 28.8171 237.703 28.6888 237.757 28.5255C237.805 28.2765 238.075 28.1259 238.284 28.0296C238.41 27.9966 238.543 27.9908 238.67 28.0136C238.799 28.0364 238.921 28.0873 239.028 28.1617C239.426 28.4926 239.633 28.9152 240.016 29.2755C240.034 29.2958 240.046 29.3217 240.049 29.3486C240.052 29.3755 240.046 29.4027 240.033 29.4264C239.493 29.3616 238.872 29.9726 238.568 29.9083C238.446 29.8865 238.332 29.829 238.243 29.7433C238.154 29.6576 238.092 29.5472 238.065 29.4264C237.985 29.3364 238.134 29.1979 237.985 29.1602C237.769 29.1661 237.559 29.2287 237.376 29.342C237.795 29.9075 238.459 30.2971 239.052 30.7558C239.29 30.7952 239.533 30.7554 239.746 30.6414C239.736 30.5577 239.619 30.5089 239.619 30.4314C239.516 30.2115 239.736 30.0484 239.885 29.9814C240.153 29.8477 240.599 30.0026 240.822 30.2664C241.011 30.3753 241.239 30.444 241.43 30.5842C241.281 30.7267 241.067 30.7814 240.912 30.9217C240.912 31.0578 240.866 31.2248 240.703 31.2667C240.613 31.2966 240.518 31.3062 240.424 31.2939C240.33 31.2815 240.239 31.2483 240.161 31.1964C239.991 31.1 240.081 30.8649 239.909 30.8167C239.734 30.8543 239.429 30.788 239.4 31.0267C239.782 31.3744 240.241 31.5269 240.686 31.7552C240.947 31.7672 241.208 31.733 241.457 31.653C241.618 31.5065 241.39 31.4286 241.389 31.322C241.43 31.0456 241.559 30.9883 241.94 30.8814C242.321 30.7748 242.715 31.2651 243.106 31.4411C242.69 31.5751 242.704 32.2345 242.176 32.1676C241.951 32.1196 241.892 31.91 241.777 31.7739C241.556 31.8136 241.293 31.8059 241.149 31.9839C241.268 32.1554 241.508 32.1888 241.687 32.2914C242.073 32.3523 242.35 32.7101 242.768 32.6242C242.834 32.6298 242.9 32.6207 242.961 32.597C243.022 32.573 243.079 32.5352 243.124 32.4864C243.142 32.4257 243.067 32.4255 243.04 32.3983C242.908 32.1995 243.083 32.0067 243.232 31.8873C243.569 31.6172 244.053 32.0988 244.472 32.1995C244.181 32.2458 244.229 32.5954 244.02 32.7545C243.672 33.014 243.496 32.3631 243.124 32.7001C243.084 32.7273 243.025 32.7936 243.101 32.823C243.71 32.9821 244.464 33.5185 245.056 32.9823C245.023 32.8778 244.859 32.8234 244.911 32.7001C244.924 32.6582 244.945 32.6187 244.974 32.5858C245.004 32.553 245.039 32.5267 245.078 32.5089C245.477 32.4452 245.885 32.5332 246.223 32.7545C245.923 32.8342 245.906 33.3234 245.532 33.1539C245.458 33.1183 245.38 32.9906 245.282 33.0723C245.211 33.1183 245.088 33.1396 245.088 33.2439C245.648 33.3773 246.222 33.4367 246.798 33.4201C246.969 33.4138 246.71 33.1873 246.849 33.0742C246.986 32.9613 246.97 32.8781 247.359 32.9617C247.805 33.0622 248.14 33.4414 248.558 33.632C248.558 33.7261 248.443 33.7887 248.349 33.8411C247.937 34.0504 247.644 34.4215 246.997 34.1786C246.822 34.1114 247.043 33.7887 246.752 33.6254C246.201 33.5787 245.65 33.5611 245.098 33.5729C245.014 33.6568 245.151 33.7159 245.169 33.7829C245.259 33.8347 245.374 33.7241 245.468 33.7595C245.562 33.7951 245.713 33.8244 245.713 33.9479C245.734 34.1051 245.661 34.2476 245.77 34.367C245.752 34.4507 245.661 34.4295 245.596 34.4504C245.294 34.461 244.87 34.5719 244.726 34.2264C244.691 34.129 244.682 34.0242 244.702 33.9226C244.774 33.7931 245.098 33.9228 244.949 33.7136L244.692 33.4745C244.175 33.374 243.641 33.2907 243.152 33.1839C243.061 33.2969 243.202 33.4164 243.25 33.5251C243.388 33.525 243.533 33.4313 243.682 33.5064C244.164 33.7304 243.682 34.1829 243.879 34.5179C243.683 34.5821 243.472 34.5878 243.272 34.5339C243.074 34.4799 242.894 34.3687 242.757 34.2142C242.619 34.078 242.472 33.6301 242.805 33.5317C242.919 33.5069 243.004 33.6544 243.073 33.5476C243.035 33.3695 242.949 33.2051 242.822 33.0742C242.272 32.8188 241.652 32.6956 241.088 32.4151C241.04 32.4067 240.956 32.4065 240.956 32.4714C240.948 32.5667 240.959 32.6629 240.99 32.7536C241.02 32.8443 241.069 32.9279 241.133 32.9992C241.201 32.9462 241.282 32.9109 241.368 32.897C241.453 32.8833 241.54 32.8909 241.623 32.9195C241.7 32.9544 241.77 33.0057 241.828 33.0695C241.885 33.1334 241.929 33.209 241.954 33.2908C241.998 33.6655 241.771 34.0385 241.935 34.3923C241.862 34.4375 241.776 34.4576 241.691 34.4504C241.606 34.4433 241.525 34.4086 241.461 34.352C241.08 33.793 240.103 34.1928 240.326 33.3405C240.379 33.1394 240.615 32.8733 240.81 32.957C240.898 32.8211 240.768 32.6748 240.741 32.5389L240.502 32.1761C240.012 31.9184 239.501 31.692 239 31.472C238.963 31.4581 238.931 31.5149 238.919 31.5358C238.882 31.7632 238.934 31.996 239.064 32.1864C239.222 32.0999 239.407 32.0711 239.585 32.1048C239.737 32.1569 239.871 32.253 239.968 32.3805C240.065 32.5077 240.123 32.6611 240.133 32.8211C240.14 33.1834 239.738 33.3785 239.543 33.6592C239.47 33.8162 239.865 34.0426 239.511 34.0426C239.02 33.9944 238.884 33.5878 238.255 33.3658C238.138 33.2637 238.047 33.1327 237.994 32.9861C237.94 32.8396 237.925 32.6816 237.95 32.5276C237.983 32.2595 238.205 31.8576 238.459 31.8995C238.58 31.9184 238.666 32.0962 238.773 31.9811C238.772 31.7159 238.705 31.4547 238.58 31.2208C238.067 30.9088 237.597 30.4988 237.078 30.2224C236.931 30.3417 236.933 30.5721 236.891 30.7605C237.01 30.846 237.2 30.7669 237.339 30.8317C237.407 30.8509 237.469 30.8858 237.52 30.933C237.573 30.9801 237.614 31.0382 237.639 31.1036C237.706 31.2664 237.728 31.4441 237.705 31.6183C237.681 31.7922 237.613 31.9569 237.505 32.0964C237.296 32.4167 236.668 32.5449 236.877 33.0601C236.755 33.0324 236.641 32.9762 236.544 32.897C236.447 32.8179 236.369 32.7177 236.316 32.6036C236.095 32.4672 235.919 32.2697 235.808 32.0355C235.697 31.801 235.655 31.5391 235.689 31.2817C235.709 31.1089 235.772 30.9439 235.873 30.8017C235.974 30.6595 236.108 30.5442 236.265 30.467C236.447 30.396 236.601 30.8628 236.714 30.5636C236.764 30.3438 236.764 30.115 236.714 29.8952C236.132 29.3758 235.52 28.8067 234.962 28.2789L234.964 26.9739C235.037 27.0535 235.111 27.133 235.188 27.2083C235.439 27.2774 235.858 27.3315 236.068 27.1577C236.019 26.9841 235.828 26.8707 235.885 26.6739C235.934 26.5468 236.013 26.4333 236.115 26.3421C236.216 26.2507 236.337 26.1845 236.47 26.149Z" fill="black"/>
<path d="M243.691 0.0295021C244.262 -0.0318813 244.839 0.00283204 245.399 0.130751C246.1 0.271063 246.865 0.40457 247.251 1.14793C247.364 1.42572 247.427 1.72183 247.436 2.02167C247.436 2.62482 247.227 2.99953 246.869 3.2676C246.534 3.51262 246.279 3.21366 246.187 3.20947C246.263 3.56742 246.426 3.90096 246.662 4.18071C247.52 4.49228 248.36 4.85577 249.175 5.2682C249.295 5.03187 249.321 4.75811 249.248 4.50321C249.085 4.45504 248.937 4.59535 248.753 4.56602C248.556 4.56664 248.361 4.50666 248.197 4.39446C248.034 4.28224 247.908 4.12305 247.838 3.9379C247.629 2.77353 248.186 2.28936 248.695 1.5773C248.779 1.45888 248.829 1.3199 248.84 1.17512C248.852 1.03019 248.824 0.884435 248.76 0.754183C249.116 0.758465 249.465 0.861393 249.767 1.05137C250.069 1.24134 250.312 1.5117 250.47 1.83136C251.019 2.35702 251.498 3.01859 251.254 3.8479C251.134 4.30852 250.856 4.71307 250.47 4.99164C250.328 5.10037 250.19 5.10045 249.949 4.95602L249.74 4.71508C249.558 4.92444 249.584 5.24878 249.543 5.53351C250.091 6.06548 250.8 6.51233 251.179 7.20975C251.323 7.4541 251.484 7.68835 251.66 7.91099C251.888 7.62155 252.014 7.26576 252.022 6.89756C251.754 6.90402 251.492 6.81278 251.286 6.64163C251.155 6.50189 251.059 6.33325 251.006 6.14945C250.953 5.9656 250.945 5.77188 250.981 5.58414C251.059 4.56419 252.179 4.24148 252.407 3.36603C252.432 3.04493 252.422 2.72207 252.376 2.40323C252.944 2.56032 253.567 2.9452 253.787 3.54603C253.959 3.99836 255.043 5.09589 254.574 6.33976C254.39 6.78594 254.037 7.1423 253.594 7.33256C253.194 7.41637 252.675 7.67818 252.366 7.16569C252.232 7.68919 251.856 8.17958 252.056 8.75755C252.319 9.36988 252.499 10.0152 252.589 10.6757C252.621 10.7363 252.707 10.7085 252.762 10.6897L253.24 10.2613C253.316 10.0309 253.031 10.0679 252.958 9.92754C252.826 9.76823 252.736 9.5788 252.695 9.37629C252.654 9.17352 252.665 8.96314 252.724 8.76505C253.143 7.68922 254.461 8.29221 255.125 7.38131C255.605 7.84 255.385 8.59822 255.722 9.14473C255.942 9.505 255.737 10.4254 255.651 10.671C255.513 11.05 255.187 11.4772 254.776 11.5925C254.597 11.6459 254.409 11.6618 254.225 11.6394C254.04 11.6171 253.862 11.5575 253.701 11.4631C253.609 11.4166 253.529 11.3472 253.471 11.2616C253.413 11.1758 253.378 11.0761 253.369 10.9728C253.35 10.8262 253.42 10.6711 253.353 10.5538C253.066 10.7018 252.818 10.9173 252.633 11.1819C252.685 12.0908 252.452 12.9061 252.242 13.7103C252.393 13.7959 252.575 13.7248 252.73 13.6934C253.043 13.6473 252.78 13.3982 252.826 13.2181C252.826 12.7993 252.912 12.3449 253.349 12.171C253.977 11.9029 254.461 12.3802 254.899 12.7991C255.154 12.9289 255.588 12.6488 255.736 12.7494C255.885 12.8504 255.63 13.4194 255.527 13.6831C255.249 14.4308 255.272 15.1827 254.545 15.6875C254.371 15.8059 254.17 15.8822 253.961 15.9106C253.752 15.939 253.539 15.9184 253.339 15.8506C253.139 15.7828 252.957 15.6693 252.809 15.5197C252.66 15.37 252.548 15.1884 252.481 14.9881C252.391 14.6657 252.55 14.3596 252.659 14.0769C252.363 13.966 252.108 14.1749 251.893 14.3675C251.419 15.262 250.734 16.0284 249.899 16.5987C249.941 16.7199 250.091 16.7536 250.192 16.789C250.37 16.8617 250.562 16.8975 250.755 16.894C250.979 16.5883 251.004 16.1544 251.395 15.9303C251.508 15.8441 251.638 15.7873 251.778 15.7653C251.917 15.7433 252.059 15.7571 252.191 15.8047C252.892 15.9826 253.389 16.7197 253.779 17.3018C253.94 17.4799 254.07 17.3316 254.17 17.4509C253.899 17.9305 253.709 18.4624 253.192 18.8393C252.6 19.2581 251.819 19.6055 251.099 19.2453C250.571 18.9751 250.111 18.4435 250.146 17.8259C250.168 17.7143 250.213 17.6084 250.278 17.5156C250.344 17.4229 250.429 17.3455 250.527 17.2878C250.131 17.1133 249.713 16.99 249.286 16.9212C248.618 17.3212 247.841 17.4507 247.125 17.7584C247.035 17.836 247.148 17.9261 247.175 17.9993C247.304 18.1512 247.478 18.2598 247.671 18.3096C247.755 18.1154 247.897 17.9511 248.076 17.839C248.257 17.7269 248.466 17.6721 248.678 17.6815C248.869 17.6755 249.059 17.7124 249.234 17.7903C249.409 17.8683 249.565 17.985 249.688 18.1315C250.125 18.7389 250.163 19.6101 250.008 20.3618C250.008 20.7429 250.275 21.0025 250.552 21.2224C250.57 21.25 250.581 21.283 250.581 21.3162C250.581 21.3492 250.57 21.3815 250.552 21.409C249.436 22.0141 248.737 21.147 247.47 21.0968C246.79 21.0673 246.256 20.1419 246.214 19.4215C246.185 19.2972 246.188 19.1677 246.222 19.0446C246.255 18.9215 246.319 18.8081 246.407 18.7156C246.59 18.5479 246.832 18.4573 247.08 18.4625C247.144 18.4352 247.112 18.3706 247.08 18.335C246.916 18.1558 246.723 18.0061 246.507 17.8943C245.877 17.9938 245.256 18.134 244.644 18.3134C244.132 19.2868 243.765 20.3298 243.552 21.409C243.611 21.6896 243.898 21.7815 244.107 21.9134C244.134 21.92 244.162 21.9171 244.185 21.904C244.209 21.8907 244.227 21.868 244.235 21.8421C244.151 21.3187 244.279 20.7553 244.788 20.4621C244.933 20.3734 245.099 20.3236 245.269 20.3178C245.438 20.3119 245.606 20.3507 245.757 20.4293C246.18 20.7275 246.537 21.1092 246.805 21.5515C247.267 22.278 247.68 22.3892 248.206 22.609C247.841 23.2079 247.205 23.4633 246.648 23.7565C246.162 24.2884 245.499 24.7305 244.762 24.4708C244.367 24.3241 243.884 23.9387 243.849 23.478C243.81 23.0781 243.827 22.6407 244.099 22.3559C243.934 22.1721 243.726 22.0306 243.494 21.9434C243.34 22.203 243.349 22.5127 243.308 22.8059C243.117 24.5568 244.292 25.8698 245.612 26.8605C245.952 27.0689 246.316 27.2374 246.696 27.363C246.82 27.2904 246.927 27.1945 247.014 27.0799C247.1 26.9654 247.162 26.8345 247.197 26.6955C247.08 26.6349 246.93 26.6951 246.779 26.6721C245.733 26.5863 245.768 25.653 245.941 25.3783C246.604 24.2243 247.946 24.0542 248.924 23.2709C249.067 23.2146 249.105 23.2417 249.159 23.3271C249.314 23.6035 249.116 23.8133 249.147 24.2046C249.202 24.9376 249.48 25.02 249.676 25.443C249.753 25.63 249.784 25.8325 249.765 26.0336C249.747 26.2349 249.68 26.4291 249.57 26.5989C249.17 27.045 248.63 27.3322 248.041 27.1877C247.849 27.133 247.673 27.0314 247.529 26.8924C247.343 27.0452 247.28 27.2943 247.165 27.5036C247.262 27.6081 247.453 27.608 247.609 27.6414C249.074 27.8822 250.33 27.2942 251.507 26.6177C251.691 26.4502 251.949 26.3248 252.046 26.0861C252.062 25.7029 252.045 25.3049 251.819 25.0033C251.629 25.1961 251.643 25.6163 251.291 25.6521C251.002 25.7125 250.702 25.6565 250.454 25.4955C250.298 25.3797 250.176 25.2227 250.102 25.0427C249.703 24.205 250.102 23.3507 250.444 22.6409C250.461 22.3602 250.539 22.0865 250.674 21.8393C250.807 21.5921 250.994 21.3768 251.218 21.2084C251.62 21.3446 251.7 21.8158 251.924 22.1215C252.288 22.4102 252.762 22.4792 253.052 22.8705C253.261 23.1343 253.454 23.432 253.405 23.8108C253.424 23.966 253.404 24.124 253.348 24.2702C253.293 24.4163 253.203 24.5468 253.086 24.6499C252.968 24.7532 252.826 24.8264 252.675 24.8627C252.522 24.8989 252.364 24.8971 252.212 24.858C252.227 25.1841 252.309 25.5039 252.453 25.7965C253.144 25.3543 253.757 24.8028 254.271 24.1633C254.558 23.8412 254.816 23.4941 255.042 23.1265C255.054 22.8082 254.732 22.4039 254.564 22.1965C254.474 22.2342 254.443 22.3853 254.443 22.4712C254.37 22.6279 254.239 22.7502 254.078 22.8124C253.64 22.921 253.32 22.5759 253.107 22.2724C252.763 21.8012 252.866 21.1637 252.914 20.5962C252.959 20.2575 253.096 19.9378 253.312 19.6728C253.414 19.4818 253.565 19.3228 253.751 19.2125C253.961 19.4365 254.17 19.6585 254.379 19.8846L254.978 19.9099C255.163 19.9743 255.336 20.0714 255.485 20.1968C255.924 20.4736 255.679 21.3845 255.309 21.6462C255.147 21.7559 254.969 21.838 254.78 21.889C254.872 22.0986 255.152 22.6234 255.382 22.7262C255.391 22.7114 255.981 21.7215 256.132 21.4887C256.539 20.8604 256.723 20.5357 256.733 19.9765C256.733 19.7231 256.281 19.4359 256.043 19.2978C255.909 19.2265 255.832 19.5348 255.705 19.6081C255.336 19.8173 255.004 19.4694 254.883 19.2978C254.541 18.8349 254.76 18.3514 254.53 17.6834C254.497 17.5721 254.493 17.4534 254.521 17.3403C254.548 17.2274 254.605 17.1238 254.686 17.0403C254.824 17.0781 254.955 17.1379 255.075 17.2165C255.341 17.2159 255.607 17.2345 255.871 17.2728C256.197 17.3524 256.654 17.5784 256.69 18.1334C256.697 18.2502 256.678 18.3678 256.635 18.4765C256.591 18.5852 256.524 18.6825 256.438 18.7615L256.154 18.9312C256.234 19.1803 256.489 19.559 256.678 19.5031C257.342 19.3041 257.388 18.1981 257.501 17.5447C257.554 17.2369 257.053 17.017 256.797 16.7993C256.672 16.6828 256.672 17.0084 256.502 17.044C255.812 17.2074 255.382 16.3996 255.382 16.1356C255.382 15.6413 255.545 15.3982 255.705 14.6337C255.782 14.2694 256.384 14.8542 256.725 14.9694C257.066 15.085 257.608 15.7947 257.143 16.3222L256.934 16.4562C256.913 16.5545 256.996 16.6447 257.068 16.7347C257.139 16.8246 257.294 16.8224 257.388 16.9184C257.826 17.3016 257.785 15.6892 257.843 15.1091L257.537 14.7453C257.436 14.649 257.388 14.5358 257.255 14.45C257.12 14.3641 257.045 14.6589 256.863 14.6778C256.641 14.6679 256.434 14.5722 256.281 14.4116C256.199 14.3455 256.131 14.2624 256.083 14.1678C256.036 14.0731 256.01 13.969 256.006 13.8631C255.992 13.4319 256.142 13.0466 256.197 12.6069C256.197 12.5064 256.35 12.6207 256.442 12.6228L256.712 12.8328L257.145 12.9566C257.331 13.0775 257.478 13.2505 257.565 13.4544L257.591 13.6644C257.533 13.8589 257.336 13.997 257.308 14.1434C257.271 14.332 257.519 14.4179 257.682 14.5625C258.1 14.9682 257.943 13.4198 257.849 12.7766C257.808 12.4896 257.522 12.3576 257.157 12.2675C256.999 12.2302 257.109 12.4766 256.739 12.3678C256.557 12.3029 256.53 12.1874 256.425 12.0219C256.379 11.8478 256.349 11.6699 256.335 11.4903C256.356 11.2858 256.403 11.0847 256.477 10.8932C256.613 10.5497 257.106 11.103 257.42 11.2747C257.549 11.3501 257.519 11.5616 257.489 11.7144C257.451 11.824 257.386 11.9227 257.303 12.0031C257.179 12.1456 257.526 12.2296 257.654 12.3322C257.667 12.3413 257.684 12.3466 257.699 12.3472C257.715 12.3479 257.732 12.3439 257.746 12.336C257.759 12.3278 257.771 12.3157 257.779 12.3013C257.786 12.287 257.789 12.2705 257.788 12.2544C257.869 11.6986 257.823 11.1316 257.654 10.596C257.592 10.3866 257.281 10.275 257.078 10.1975C256.982 10.1608 257.047 10.3616 257.03 10.4432C256.965 10.713 256.641 10.4699 256.442 10.2585C256.339 10.1482 256.262 10.015 256.22 9.86941C256.178 9.72375 256.173 9.56995 256.201 9.42129C256.201 9.36267 256.201 9.27036 256.259 9.23473L256.442 9.34348C256.624 9.36004 256.843 9.26014 257.041 9.33129C257.168 9.37337 257.188 9.50947 257.211 9.65379C257.223 9.75841 257.152 9.86309 257.145 9.97816C257.139 10.0932 257.294 10.1481 257.42 10.1732C257.884 10.2799 257.188 9.1824 257.087 8.70692C257.048 8.51845 256.794 8.41348 256.614 8.31505C256.478 8.23762 256.613 8.59756 256.442 8.66286C256.37 8.69197 256.288 8.69195 256.216 8.66286C256.104 8.60135 256.003 8.52023 255.918 8.4238C255.728 8.09267 255.654 7.7069 255.709 7.32881C255.755 7.20315 255.891 7.47711 256.401 7.40381C256.61 7.36256 256.787 7.69744 256.706 7.83974L256.576 8.08068C256.714 8.1498 256.7 8.30469 256.904 8.25036C257.17 8.17707 256.616 7.25563 256.289 6.71944C256.235 6.6294 256.128 6.91573 255.974 6.88444C255.974 6.88444 255.554 6.97475 255.492 6.0932C255.488 5.92462 255.502 5.75603 255.536 5.5907C255.583 5.58977 255.406 4.99763 255.402 4.98321C255.611 4.9834 255.82 5.12318 256.029 5.19227C256.318 5.2928 256.426 5.4937 256.731 5.59633C256.794 5.63064 256.849 5.67869 256.891 5.73601C256.934 5.79328 256.964 5.8593 256.979 5.92914C256.995 5.99898 256.994 6.07123 256.978 6.14101C256.963 6.2109 256.933 6.27696 256.89 6.33413C256.8 6.46594 256.443 6.45322 256.495 6.58069C256.81 7.32599 257.082 7.82479 257.157 8.07412C257.223 8.11804 257.34 8.00774 257.368 7.93443C257.395 7.86112 257.256 7.76442 257.191 7.68693C257.162 7.63496 257.145 7.5767 257.141 7.51725C257.139 7.45797 257.148 7.39878 257.17 7.34381C257.252 7.17636 257.501 7.20528 257.62 7.07569L257.923 7.54068C257.93 7.56081 258.127 8.17019 257.845 8.25693C257.709 8.2988 257.636 8.16647 257.528 8.07224C257.422 7.978 257.357 8.2566 257.357 8.37599C257.357 9.00426 257.709 9.57204 257.9 10.1375C257.946 10.298 258.096 9.80392 258.109 9.65941C258.121 9.51512 257.654 9.4185 257.878 9.02098C257.921 8.93858 257.993 8.87486 258.08 8.84098C258.167 8.80727 258.261 8.80514 258.349 8.8363C258.46 8.7767 258.552 8.68811 258.616 8.57942L258.894 9.03598C259.019 9.28743 259.054 9.57362 258.994 9.84785C258.963 9.97351 258.946 10.1647 258.784 10.2547C258.722 10.2937 258.651 10.3159 258.577 10.3185C258.504 10.321 258.432 10.3033 258.366 10.2688C258.26 10.1998 258.28 10.0601 258.26 9.95754C258.222 9.74816 258.05 10.2926 258.012 10.5125C257.975 10.7328 258.178 11.4762 258.2 11.9535C258.2 12.0759 258.449 11.7982 258.552 11.706C258.655 11.6138 258.402 11.4965 258.402 11.3478C258.396 11.2597 258.415 11.1716 258.456 11.0938C258.499 11.0162 258.562 10.9517 258.638 10.9082C258.844 10.8133 259.071 10.7758 259.296 10.7994C259.424 10.7993 259.505 10.6359 259.578 10.5416C259.771 10.3321 259.672 11.1053 259.756 11.3985C259.815 11.6078 259.657 11.8172 259.593 12.0266L259.364 12.3069L258.872 12.4494C258.781 12.4492 258.711 12.372 258.663 12.2778C258.616 12.1837 258.729 12.0078 258.641 11.9197C258.505 11.7795 258.341 12.081 258.307 12.2506C258.224 12.7053 258.325 13.8552 258.431 14.6572C258.462 14.8659 258.747 14.4099 258.908 14.2381C259.019 14.1125 258.614 13.9132 258.623 13.7038L258.663 13.3166L258.793 13.0925C258.964 12.9606 259.158 12.8629 259.365 12.8038H260.066L260.328 12.6884C260.402 12.8548 260.441 13.0345 260.446 13.2163C260.51 13.5471 260.386 13.8739 260.343 14.2109L260.167 14.6028C260.077 14.7201 259.969 14.8236 259.849 14.9103C259.759 14.9578 259.661 14.9871 259.56 14.9966C259.46 15.0059 259.357 14.9949 259.26 14.9647L259.095 14.7969L259.078 14.5128C258.869 14.4566 258.768 14.7025 258.614 14.7969L258.355 15.1681C258.334 15.7503 258.286 16.3181 258.238 16.9212C258.224 17.0649 258.554 16.8471 258.657 16.73L258.588 16.4328C258.58 16.1916 258.654 15.9544 258.797 15.7606C258.883 15.647 258.996 15.5552 259.125 15.4934C259.253 15.4316 259.394 15.4011 259.537 15.4044C259.847 15.4567 260.187 15.5028 260.51 15.5656L260.889 15.4569C261.015 15.6663 260.933 15.9071 260.902 16.1019C260.818 16.6777 260.521 16.7743 260.45 17.2118C260.383 17.6119 259.941 17.8574 259.547 17.8615C259.22 17.8615 258.869 17.8107 258.709 17.5259C258.614 17.3603 258.887 17.0406 258.557 17.1453C257.985 17.3171 258.052 17.7945 257.946 18.1756C257.776 18.7891 257.657 19.185 257.527 19.6981C257.498 19.8403 257.796 19.6979 257.917 19.6746C257.987 19.6665 258.055 19.6406 258.112 19.5996C258.17 19.5586 258.217 19.5039 258.247 19.4403C258.283 19.3483 258.132 19.2834 258.1 19.1956C258.055 19.0501 258.059 18.8933 258.111 18.7503C258.163 18.6074 258.261 18.4854 258.389 18.4034C258.602 18.2649 258.852 18.1924 259.105 18.1943C259.404 18.1818 259.631 18.4565 259.893 18.5759C260.198 18.7173 260.535 18.774 260.87 18.7409C261.208 18.6865 260.799 19.4238 260.647 19.7065C260.364 20.2132 260.018 20.8265 259.367 20.9187C259.128 20.9573 258.883 20.9201 258.667 20.8127C258.45 20.7053 258.272 20.5328 258.158 20.3196C258.065 20.1773 258.159 20.0184 258.182 19.8762C258.24 19.5811 257.498 19.8904 257.37 20.1771C257.289 20.2023 256.741 21.6437 256.423 22.339C256.377 22.4541 256.572 22.3742 256.647 22.414L257.225 22.3427C257.288 22.2298 257.133 22.1546 257.17 22.0249C257.273 21.7066 257.236 21.3711 257.527 21.1868C258.592 20.5591 259.174 22.0853 260.274 21.9349C260.891 21.8553 260.031 23.2121 259.436 23.5765C259.141 23.7597 258.777 23.8217 258.475 24.0321L258.287 24.1812C257.956 24.3983 257.427 24.1796 257.131 23.9224C256.996 23.8237 256.891 23.6878 256.83 23.5315C256.77 23.3752 256.755 23.2044 256.789 23.0402C256.821 22.9023 256.999 22.8307 257.058 22.7009C257.157 22.4271 256.39 22.586 256.22 22.7974C255.713 23.4257 254.815 24.7538 254.109 25.713L254.292 25.7608C254.597 25.7483 254.92 25.843 255.184 25.6924C255.116 25.4425 255.133 25.1765 255.233 24.9377C255.357 24.702 255.56 24.5179 255.807 24.4174C256.053 24.3171 256.328 24.307 256.58 24.3893C257.142 24.5766 257.657 24.8842 258.088 25.2902C258.281 25.468 258.622 25.4284 258.89 25.3615C259.83 25.1313 257.937 27.135 257.11 27.7549C256.814 27.9511 256.467 28.0591 256.112 28.0661C255.757 28.0731 255.408 27.9795 255.104 27.7952C254.783 27.5606 254.549 27.4217 254.517 26.9233C254.501 26.5925 254.783 26.3639 254.829 26.1461C254.446 26.2152 254.051 26.0376 253.704 26.2155C253.075 26.9234 252.207 27.5102 251.528 28.128C251.752 28.2722 251.998 28.3783 252.257 28.4421C252.382 28.1279 252.496 27.715 252.885 27.5768C253.186 27.4738 253.511 27.4637 253.818 27.5477C254.125 27.6318 254.4 27.8063 254.606 28.0483C255.006 28.5277 255.203 29.1055 255.839 29.5305C255.711 29.8195 255.398 29.8766 255.211 30.1174C254.644 30.7644 253.858 31.0182 252.974 30.9827C252.685 30.9717 252.403 30.8827 252.158 30.7258C251.915 30.5688 251.717 30.3493 251.586 30.0902C251.513 29.9201 251.476 29.737 251.476 29.552C251.476 29.3671 251.514 29.184 251.586 29.0139C251.687 28.8526 251.913 28.8855 251.955 28.6971C251.798 28.5764 251.62 28.4883 251.429 28.4374C251.238 28.3864 251.039 28.3734 250.844 28.3999C249.923 28.8034 248.945 29.0624 247.945 29.1667C248.16 29.4208 248.39 29.6608 248.636 29.8849C248.739 29.7259 248.86 29.5805 248.998 29.4517C249.193 29.3388 249.411 29.267 249.635 29.2417C249.86 29.2165 250.087 29.2379 250.303 29.3045C250.555 29.4091 250.775 29.5801 250.938 29.7986C251.102 30.0171 251.203 30.2755 251.232 30.5467C251.28 31.041 251.652 32.0127 252.244 32.2117C251.955 32.4708 251.606 32.655 251.23 32.7489C250.853 32.8426 250.46 32.843 250.084 32.7498C249.351 32.4671 248.331 32.8735 247.78 31.952C247.571 31.5897 247.36 31.1999 247.48 30.7455C247.512 30.6363 247.57 30.5365 247.649 30.4539C247.727 30.3713 247.824 30.308 247.931 30.2702C248.051 30.2229 248.174 30.1838 248.3 30.153C248.09 29.7174 247.646 29.3717 247.253 29.1058C246.516 28.9827 245.795 28.772 245.108 28.4777C245.083 28.5147 245.07 28.5585 245.07 28.6033C245.07 28.648 245.083 28.6918 245.108 28.7289C245.157 28.9253 245.249 29.1088 245.374 29.267C245.729 29.156 246.188 29.1222 246.487 29.342C246.834 29.6289 247.057 30.0103 246.941 30.4605C246.87 30.8562 246.597 31.1833 246.639 31.5873L246.811 32.147C246.069 32.3271 245.577 31.6941 244.878 31.6858C244.6 31.6276 244.336 31.5136 244.103 31.3502C243.87 31.1867 243.672 30.9774 243.522 30.7352C243.435 30.5419 243.4 30.3286 243.421 30.1174C243.441 29.9059 243.518 29.7029 243.642 29.5305C243.887 29.2834 244.16 29.0579 244.545 29.1124C244.673 29.1228 244.813 29.2757 244.893 29.1836C244.786 28.8213 244.743 28.438 244.474 28.1364C243.796 27.6875 243.199 27.1287 242.704 26.4836C242.557 26.6791 242.484 26.9199 242.495 27.1643C242.713 27.2423 242.925 27.3407 243.124 27.4577C243.281 27.593 243.397 27.7702 243.459 27.9686C243.521 28.1672 243.525 28.379 243.471 28.5799C243.36 29.2082 242.665 29.6276 242.139 29.9355C242.011 30.0025 241.894 30.3105 241.894 30.3105C241.446 30.1492 241.285 29.642 240.966 29.3299C240.239 28.8608 240.015 28.0275 240.167 27.1961C240.301 26.8821 240.473 26.5194 240.841 26.3852C241.033 26.3064 241.243 26.2796 241.449 26.3083C241.655 26.3371 241.849 26.4199 242.012 26.5483C242.13 26.6175 242.098 26.7856 242.249 26.8024C242.388 26.6014 242.473 26.3684 242.5 26.1255C242.007 25.2725 241.679 24.3338 241.535 23.359C241.464 23.2877 241.402 23.3841 241.343 23.403C241.134 23.5936 240.873 23.7066 240.715 23.9496C240.715 24.1192 240.961 24.0754 241.058 24.1821C241.363 24.4523 241.649 24.7685 241.521 25.1936C241.442 25.6732 240.96 25.9263 240.586 26.1546C240.259 26.297 239.805 26.1256 239.539 26.3852C239.315 26.6763 239.007 26.737 238.701 26.8418C238.519 26.7936 238.45 26.5966 238.347 26.4583C237.91 25.5473 237.69 24.0812 238.017 23.3168C238.227 22.7976 238.976 22.5526 239.417 22.563C239.803 22.5631 240.285 22.6704 240.464 23.1143L240.517 23.5849C240.642 23.6435 240.726 23.5014 240.836 23.449L241.494 22.6868C241.604 21.8492 241.723 21.026 241.849 20.2156C241.849 20.0942 241.934 19.9139 241.807 19.8509C241.493 19.895 241.196 20.021 240.946 20.2156C241.126 20.4878 241.325 20.7954 241.231 21.1577C241.217 21.5158 240.887 21.7277 240.642 21.9349C239.406 22.9983 238.306 21.4077 237.01 21.9771C236.931 21.8257 236.894 21.6553 236.903 21.4849C236.911 21.3146 236.964 21.1495 237.058 21.0068C237.686 20.1398 237.686 18.8682 238.893 18.3237C239.111 18.2248 239.349 18.1718 239.59 18.1671C239.83 18.1624 240.07 18.2061 240.293 18.2965C240.489 18.302 240.678 18.3706 240.833 18.4915C241.192 18.8602 241.126 19.3629 240.923 19.7881C241.277 19.8236 241.574 19.5556 241.82 19.3315C242.288 18.7368 242.1 17.9557 242.251 17.2709C241.413 16.4185 240.533 15.5424 239.594 14.8784C239.453 14.91 239.323 14.9818 239.222 15.0847C239.121 15.1875 239.052 15.3174 239.022 15.4587C239.271 15.4441 239.52 15.5041 239.735 15.6312C239.95 15.7585 240.122 15.9475 240.23 16.1731C240.323 16.3563 240.364 16.5617 240.349 16.7665C240.334 16.9713 240.263 17.1681 240.144 17.3356C239.725 17.8884 239.058 17.9239 238.411 17.9909C237.936 18.1208 237.378 18.2888 237.137 18.7831C236.94 18.5203 236.824 18.2059 236.802 17.8784C236.748 17.3736 236.95 16.8875 236.758 16.3953C236.612 15.8948 236.598 15.2667 236.94 14.8541C237.078 14.7134 237.253 14.6132 237.444 14.5662C237.636 14.5192 237.837 14.527 238.026 14.5878C238.321 14.6895 238.573 14.8911 238.737 15.1578L239.195 14.63C239.101 14.4206 238.864 14.3682 238.706 14.2447L237.625 13.8106C236.749 13.5564 235.815 13.5815 234.953 13.8819V13.8725C234.829 13.9218 234.708 13.9808 234.592 14.0478C234.298 14.2696 233.609 14.4121 233.754 14.9628C233.807 15.2156 233.916 15.4539 234.072 15.6603C234.171 15.5205 234.302 15.4061 234.453 15.3256C234.604 15.2453 234.772 15.201 234.943 15.1972V18.9143C234.83 18.8431 234.714 18.7789 234.599 18.7203C234.39 18.6743 234.3 18.8097 234.018 18.7428C233.796 18.7026 233.579 18.6389 233.371 18.5525V18.5253C233.336 18.5076 233.3 18.4886 233.266 18.4662V16.0456C233.301 16.0294 233.336 16.0146 233.371 16.0015V15.995C233.507 15.9561 233.647 15.9326 233.789 15.9256C233.856 15.8189 233.762 15.6958 233.724 15.5787C233.627 15.3949 233.507 15.2243 233.366 15.0716V15.0462H233.277C233.277 15.0462 233.266 15.0479 233.266 15.0594V13.0738C233.298 13.0467 233.332 13.0212 233.366 12.9969V12.9922L233.425 12.9481C233.407 12.9323 233.387 12.9179 233.366 12.9059V12.8863C233.333 12.8674 233.3 12.8498 233.266 12.8347V12.5225L233.389 12.5478V12.5581L233.952 12.6697C234.211 12.6132 234.431 12.4411 234.692 12.3866C234.773 12.3616 234.858 12.3382 234.939 12.3172L234.953 13.2575V12.3088C235.5 12.1891 236.056 12.1129 236.614 12.0791C236.697 12.0416 236.615 11.9723 236.614 11.9263C236.41 11.6473 236.136 11.426 235.82 11.285C235.687 11.6473 235.313 11.7034 235.025 11.8081L234.961 11.825L234.962 11.8297C234.798 11.8702 234.626 11.8649 234.465 11.8147C234.304 11.7645 234.159 11.6711 234.047 11.5447C233.646 11.0945 233.645 10.4385 233.389 9.92754V9.90691C233.357 9.86612 233.319 9.83008 233.277 9.80004V9.4841L233.389 9.39692V9.38285C233.842 9.03234 234.382 8.81358 234.951 8.74911L234.955 9.73254V8.74911C235.3 8.71922 235.646 8.77327 235.965 8.90755C236.477 9.12742 237.039 9.58625 237.066 10.1788C237.075 10.3726 237.03 10.5656 236.933 10.7338C236.825 10.9661 236.575 11.0481 236.461 11.2175C236.846 11.5484 237.232 11.9615 237.682 12.171C238.396 12.2464 239.018 12.5395 239.675 12.7803C239.734 12.6463 239.637 12.4746 239.617 12.3322C239.557 12.1147 239.461 11.9083 239.336 11.721C239.152 11.9302 238.882 11.9113 238.628 11.9113C238.425 11.8833 238.234 11.799 238.076 11.6675C237.919 11.5361 237.802 11.3627 237.739 11.1678C237.606 10.8747 237.642 10.5097 237.624 10.1788C237.642 9.55074 238.327 9.05647 237.89 8.42005C238.413 8.22752 239.146 8.2649 239.591 8.62911C240.06 8.93697 240.703 8.86167 241.058 9.4166C241.211 9.64346 241.311 9.90208 241.353 10.1732C241.394 10.4442 241.373 10.721 241.294 10.9832C241.122 11.3455 240.935 11.8212 240.512 11.9825C240.304 12.0311 240.084 11.9995 239.897 11.8944C239.982 12.3856 240.175 12.8516 240.464 13.2575C241.147 13.7455 241.855 14.1835 242.529 14.7237C242.582 14.745 242.671 14.8406 242.719 14.7453C242.831 14.4195 242.84 14.067 242.746 13.7356C242.328 13.7524 241.719 13.8148 241.411 13.3859C241.281 13.2025 241.201 12.9882 241.177 12.7644C241.154 12.5407 241.189 12.3144 241.279 12.1081C241.548 11.5196 242.052 11.023 242.506 10.5266C242.769 10.2397 242.592 9.68881 242.805 9.34535C243.852 9.55497 244.217 10.7256 244.752 11.5025C244.975 11.8751 245.078 12.3072 245.047 12.74C245.017 13.173 244.853 13.5865 244.581 13.9241C244.453 14.0718 244.28 14.1732 244.089 14.2137C243.898 14.2542 243.698 14.2315 243.521 14.1481C243.387 14.1473 243.26 13.7526 243.186 14.0534C243.172 14.5037 243.122 15.0212 243.356 15.394C243.652 15.6752 243.971 15.9325 244.309 16.1628C245.05 16.1335 245.703 15.8987 246.402 15.7709C246.833 15.6244 247.353 15.6097 247.757 15.3669C247.787 15.2247 247.782 15.0774 247.743 14.9375C247.704 14.7975 247.633 14.6688 247.533 14.5625C247.418 14.5123 247.418 14.6816 247.324 14.7237C246.95 15.0337 246.511 15.3209 245.994 15.1156C245.188 14.7909 245.331 13.5026 245.444 13.2303C245.582 12.8787 245.957 12.6399 245.967 12.2235C245.95 11.7282 245.963 11.2323 246.005 10.7385C246.128 10.6446 246.235 10.7591 246.352 10.7675C247.08 10.8283 247.361 11.6551 248.266 11.7725C248.544 11.7998 249.199 12.307 249.271 12.7803C249.342 13.2535 249.239 13.8988 248.644 14.2025C248.387 14.3324 248.106 14.347 247.872 14.4537C248.01 14.6757 248.082 14.9434 248.216 15.1737C248.659 15.1088 248.963 14.7177 249.367 14.5691C250.593 13.6747 251.176 12.3443 251.193 10.8763C251.122 10.4574 251.122 9.9838 250.928 9.60691C250.701 9.3976 250.33 9.43338 250.052 9.45223C250.036 9.62764 250.084 9.80311 250.185 9.94629C250.26 10.1194 250.292 10.3086 250.277 10.4966C250.263 10.6845 250.203 10.866 250.102 11.0253C249.827 11.4253 249.394 11.4547 248.986 11.4547C248.216 11.4065 247.656 10.78 247.156 10.2313C246.85 10.0171 246.481 9.91135 246.109 9.93035C246.093 9.92401 246.078 9.9135 246.066 9.90035C246.054 9.88722 246.045 9.87146 246.04 9.85441C246.035 9.83735 246.035 9.81927 246.038 9.80191C246.042 9.78456 246.05 9.76801 246.061 9.7541C246.216 9.17195 246.722 8.64181 247.236 8.28786C247.543 7.89834 247.931 7.42056 248.505 7.521C249.231 7.61943 249.551 7.76023 249.803 8.24193C249.996 8.57471 249.892 8.83656 249.876 9.14004C250.122 9.20152 250.381 9.18754 250.619 9.09879C250.69 8.98575 250.563 8.87649 250.531 8.76973C249.877 7.43564 248.536 6.27956 247.181 5.72664C246.914 5.77862 246.665 5.9004 246.461 6.08007C246.43 6.16175 246.306 6.17698 246.316 6.29007C246.404 6.35499 246.51 6.28993 246.616 6.33601C246.778 6.37498 246.927 6.45625 247.048 6.57132C247.169 6.68633 247.258 6.83127 247.305 6.99131C247.286 7.72853 246.557 8.30684 245.958 8.60005C244.986 8.94127 243.948 8.79261 242.987 8.78005C243.17 8.38646 243.648 7.91547 243.615 7.64943C243.555 7.04421 243.485 6.19979 244.116 5.76414C244.317 5.62071 244.551 5.52553 244.795 5.48664C245.04 5.44777 245.291 5.46626 245.527 5.54008C245.642 5.56368 245.747 5.62387 245.825 5.71164C245.903 5.79961 245.951 5.91125 245.96 6.02851C246.261 5.94873 246.528 5.76985 246.716 5.52133C246.042 5.21356 245.25 5.16121 244.545 4.98321C244 4.90254 243.45 4.86343 242.899 4.86602C242.647 5.10944 242.433 5.39195 242.271 5.7032C242.468 5.8163 242.69 5.55287 242.943 5.73508C243.197 5.91724 243.248 5.98221 243.26 6.41569C243.28 7.09201 242.943 7.33462 242.385 7.64662C241.965 7.88118 241.584 8.18524 241.109 8.28786C240.797 8.35275 240.454 8.28751 240.148 8.33568C240.027 8.21235 240.225 8.12669 240.24 8.00755C240.378 7.22432 239.525 6.63575 240.016 5.85882C240.316 5.26402 241.017 5.17532 241.614 5.22977C241.79 5.28896 241.936 5.41615 242.018 5.58226C242.252 5.38908 242.413 5.12126 242.474 4.82383C241.553 4.68987 240.721 4.93296 239.794 4.9204C239.534 4.98525 239.185 4.96844 239.07 5.28039C238.974 5.44736 238.899 5.62608 238.848 5.81195C238.916 5.88735 238.999 5.7872 239.091 5.79976C239.453 5.83337 239.525 6.06156 239.539 6.32944C239.55 6.51249 239.517 6.6955 239.444 6.86381C239.371 7.03214 239.26 7.18181 239.119 7.29975C238.669 7.58359 238.184 7.80727 237.675 7.96537C237.778 7.6533 237.675 7.41228 237.6 7.08975C237.531 6.80322 237.27 6.8385 237.259 6.47663C237.273 6.28607 237.35 6.10502 237.477 5.96289C237.605 5.82086 237.776 5.72535 237.964 5.69101C238.167 5.64915 238.379 5.68814 238.552 5.79976C238.713 5.62256 238.811 5.39888 238.835 5.16133C238.729 5.05038 238.563 5.16123 238.416 5.16133L237.122 5.49602C236.88 5.582 236.846 5.8461 236.704 6.02195C236.606 6.18894 236.528 6.36663 236.472 6.55163C236.587 6.63118 236.693 6.4495 236.838 6.52257C237.133 6.67964 237.122 7.16344 237.001 7.47131C236.617 8.05108 235.881 7.88993 235.389 8.27099C235.331 8.28356 235.219 8.31268 235.196 8.24568C235.485 7.84788 235.016 7.53406 235.058 7.12163C235.037 6.88565 235.106 6.65012 235.249 6.46163C235.345 6.36123 235.469 6.29077 235.604 6.25913C235.74 6.22752 235.883 6.23583 236.013 6.28351C236.105 6.31926 236.155 6.46758 236.256 6.41944C236.416 6.19964 236.503 5.93562 236.507 5.66383C235.98 5.79666 235.463 5.97023 234.962 6.18226V5.55883C234.944 5.56673 234.927 5.57529 234.909 5.5832V5.5757C235.361 5.3789 235.816 5.20323 236.239 4.98133C236.016 4.76838 235.732 4.62934 235.427 4.58477C235.345 4.64542 235.389 4.74816 235.337 4.81727C235.252 4.95964 235.118 5.06398 234.962 5.11727V5.11914L234.952 5.12008C234.941 5.12389 234.93 5.13094 234.918 5.13414V5.12664L234.88 5.13414C234.716 5.14249 234.554 5.10798 234.407 5.03477C234.26 4.96137 234.133 4.85127 234.042 4.71508C233.727 4.41769 233.743 3.98586 233.509 3.65291C233.475 3.61705 233.432 3.59166 233.385 3.57978V3.57134C233.345 3.56263 233.305 3.552 233.266 3.5376V3.48322C233.304 3.44357 233.345 3.40721 233.389 3.37447C233.706 3.12948 234.069 3.08137 234.473 2.84479C234.625 2.76733 234.792 2.7272 234.962 2.7276L235.086 2.73229C235.375 2.75199 235.657 2.83584 235.91 2.97885C236.243 3.18826 236.287 3.52322 236.312 3.80384C236.325 3.90705 236.309 4.01227 236.265 4.10665C236.221 4.2009 236.152 4.2812 236.065 4.33821C235.981 4.38626 235.875 4.30229 235.789 4.37759C235.999 4.65404 236.368 4.68551 236.65 4.84258C237.324 4.61647 238.012 4.39908 238.714 4.20228C238.745 4.18552 238.745 4.13873 238.745 4.10103C238.581 3.89998 238.363 3.75028 238.116 3.66978C238.04 3.83065 237.922 3.96904 237.775 4.07009C237.629 4.17113 237.457 4.23105 237.28 4.2454C236.861 4.24516 236.651 3.8037 236.505 3.5001C236.398 3.11898 236.534 2.75237 236.219 2.45292C236.088 2.28537 235.799 2.12401 235.699 1.91667C236.357 1.75124 236.955 1.43706 237.683 1.49761C237.984 1.56501 238.269 1.69161 238.521 1.86886C238.778 2.08198 238.956 2.37771 239.02 2.70604C239.055 2.95736 239.103 3.30169 238.783 3.41478C238.67 3.45242 238.548 3.35598 238.483 3.48791C238.703 3.73453 238.975 3.92784 239.281 4.05322C240.097 3.88148 240.992 3.89179 241.825 3.76822C241.727 3.51063 241.511 3.17989 241.226 3.1401C241.155 3.25836 241.056 3.3577 240.937 3.42885C240.819 3.50001 240.684 3.54126 240.546 3.54885C240.324 3.5573 240.104 3.50021 239.914 3.38478C239.724 3.26935 239.572 3.10021 239.478 2.89916C239.371 2.6444 239.319 2.37003 239.324 2.09386C239.329 1.81768 239.393 1.54552 239.509 1.29512C239.58 1.02076 239.323 0.798302 239.163 0.609809C239.578 0.440358 240.026 0.369075 240.473 0.400749C240.939 0.415143 241.4 0.508761 241.835 0.677309C242.081 0.778881 242.297 0.94389 242.458 1.15543C242.619 1.36684 242.721 1.61719 242.755 1.88105C242.782 2.39626 242.755 2.92893 242.219 3.09229C242.01 3.12579 241.876 2.98905 241.701 2.99948C241.701 3.22774 241.952 3.37682 242.076 3.56947L242.37 3.79353C243.649 3.81867 244.931 3.90457 246.187 4.02603C246.137 3.71177 245.982 3.42389 245.747 3.20947C245.328 3.39793 244.91 3.62802 244.418 3.50666C243.659 3.24278 243.481 2.42775 243.395 1.72824C243.364 1.10003 243.867 0.65565 243.691 0.0295021Z" fill="black"/>
<path d="M67.1697 22.8799C70.3772 22.8801 72.8999 24.9952 72.8999 27.6968C72.8999 30.436 70.3437 32.5556 67.1697 32.5558C63.9955 32.5558 61.4826 30.4362 61.4826 27.6968C61.4826 25.0013 63.9935 22.8799 67.1697 22.8799Z" fill="black"/>
<path d="M182.642 2.5926C185.856 2.5926 188.463 3.32975 191.549 5.06383L188.727 12.4944C186.336 10.8838 184.644 10.2782 182.642 10.2782C181.246 10.2783 180.339 10.8839 180.339 11.8428C180.339 12.4942 180.856 12.9299 181.985 13.1853L185.379 13.8847C190.022 14.9298 192.535 17.7912 192.535 22.0971C192.535 28.1351 187.325 32.4301 179.985 32.4301C176.254 32.4301 172.475 31.5234 168.867 29.7892L172.083 21.5731L173.219 22.4449C174.906 23.7476 177.332 24.6124 179.29 24.6124C180.812 24.6123 181.903 23.921 181.903 22.9221C181.903 22.097 181.331 21.6091 179.983 21.3996L176.949 20.8381C172.558 20.0505 169.87 17.1456 169.87 13.1056C169.87 7.01977 175.211 2.59278 182.642 2.5926Z" fill="black"/>
<path d="M207.734 2.5926C210.953 2.5926 213.56 3.32971 216.64 5.06383L213.817 12.4944C211.439 10.8839 209.75 10.2782 207.744 10.2782C206.355 10.2783 205.443 10.8839 205.443 11.8428C205.443 12.4941 205.966 12.9299 207.094 13.1853L210.488 13.8847C215.142 14.9298 217.655 17.7912 217.655 22.0971C217.655 28.1351 212.433 32.4301 205.092 32.4301C201.357 32.4301 197.578 31.5233 193.97 29.7892L197.189 21.5731L198.317 22.4449C199.993 23.7475 202.431 24.6124 204.389 24.6124C205.905 24.6123 206.992 23.921 206.992 22.9221C206.992 22.097 206.428 21.6091 205.082 21.3996L202.042 20.8381C197.654 20.0506 194.962 17.1457 194.962 13.1056C194.963 7.0197 200.31 2.59269 207.734 2.5926Z" fill="black"/>
<path d="M96.8763 12.4466L91.0532 12.1456V32.0045H80.7165V12.1456L74.7613 12.4466V3.01635H96.8763V12.4466Z" fill="black"/>
<path d="M110.608 12.8431H117.077V3.01635H127.193V32.0045H117.077V21.9152H110.608V32.0045H100.486V3.01635H110.608V12.8431Z" fill="black"/>
<path d="M151.224 10.97H142.241V13.6681H150.403V21.2684H142.241V24.0452H151.525V32.0045H131.678V3.01635H151.224V10.97Z" fill="black"/>
<path d="M165.699 32.0017H155.146V3.01635H165.699V32.0017Z" fill="black"/>
<path d="M11.1559 3.01635C12.0767 3.01569 12.9971 3.06141 13.9132 3.15416V12.2103C13.2771 11.993 12.6088 11.8845 11.9366 11.8897H10.4586V23.1321H11.9432C12.6161 23.1361 13.2849 23.0242 13.9198 22.8012C16.0113 22.0534 17.3744 20.0993 17.3744 17.5653C17.3744 14.9225 16.0511 12.9436 13.9198 12.2V3.1476C22.6863 4.04408 27.8827 9.36876 27.8827 17.6581C27.8826 22.6527 26.4487 25.9995 23.189 28.6446C20.5762 30.7937 17.3026 31.9777 13.9198 31.9961H0V3.01635H11.1559Z" fill="black"/>
<path d="M44.2871 10.9785H44.2909V10.9869C44.1957 10.976 44.0999 10.9702 44.0041 10.97H42.1802V15.9237H43.6151C43.8403 15.9243 44.065 15.9058 44.2871 15.8694V26.6552L44.2909 26.6636L42.7482 23.5221C42.5901 23.2326 42.457 22.9299 42.3517 22.6174L42.1802 22.6971V31.9961H31.9334L31.9381 3.01635H44.2871V10.9785Z" fill="black"/>
<path d="M45.0032 3.00791C48.1248 3.00795 50.0444 3.44582 51.9518 4.66259C55.08 6.57683 56.5986 9.35583 56.5986 13.0063C56.5986 15.2598 55.9468 17.3038 54.7701 18.6106C54.0436 19.4797 52.9988 19.9989 51.0015 20.6084V20.8681C51.8285 21.3895 52.1757 21.6936 52.5254 22.2171L59.0336 31.9961H46.917L44.2909 26.6636V15.8694H44.2871V15.8675C45.5935 15.6432 46.3996 14.761 46.3996 13.4919C46.3996 12.1154 45.5324 11.1142 44.2909 10.9785V3.01635H44.2871V3.00791H45.0032Z" fill="black"/>
<path d="M234.962 23.179C235.38 23.1497 235.852 23.4883 236.219 23.8465C236.57 24.1103 237.227 24.2992 237.383 24.8308C236.587 25.0591 236.288 26.1337 235.416 26.1068C235.258 26.1019 235.103 26.062 234.962 25.9896C234.748 25.8727 234.566 25.7032 234.436 25.4974C234.291 25.2273 234.224 24.9214 234.243 24.6152C233.983 24.473 233.682 24.424 233.389 24.4755C233.366 24.4813 233.343 24.4884 233.32 24.498C233.341 24.5608 233.364 24.6222 233.389 24.6808C233.593 25.071 233.816 25.4507 234.057 25.818C234.346 26.2032 234.633 26.6156 234.962 26.9861V28.2846L234.84 28.1674C234.747 28.1593 234.769 28.2551 234.736 28.3033C234.695 28.496 234.619 28.7878 234.77 28.9511C234.833 28.9396 234.898 28.9396 234.962 28.9511V31.0455C234.83 31.1429 234.723 31.2691 234.647 31.4139C234.571 31.5588 234.527 31.7191 234.522 31.8827C234.087 31.7424 233.478 31.4599 233.389 31.0267V28.6746C233.477 28.567 233.603 28.4967 233.741 28.4777C233.879 28.4587 234.019 28.4919 234.133 28.5714C234.24 28.6342 234.261 28.7687 234.4 28.7814C234.537 28.5002 234.598 28.1884 234.577 27.8767C234.139 27.4088 233.741 26.9039 233.389 26.3683L233.27 26.2005V24.0855C233.306 24.1041 233.342 24.1212 233.379 24.1362L233.389 24.1296C233.535 24.1677 233.683 24.1982 233.831 24.2215C233.975 24.2215 234.147 24.293 234.277 24.2074C234.221 24.1462 234.181 24.072 234.16 23.9918C234.139 23.9114 234.138 23.8268 234.158 23.7462C234.228 23.5998 234.334 23.4731 234.465 23.3777C234.595 23.2824 234.749 23.2211 234.909 23.1996L234.962 23.179Z" fill="black"/>
<path d="M234.973 28.953C235.165 29.0106 235.333 29.1293 235.452 29.2905C235.693 29.5669 235.837 30.08 235.59 30.4464C235.406 30.6747 235.195 30.8794 234.962 31.0558L234.973 28.953Z" fill="black"/>
<path d="M233.379 30.9423C233.37 30.8079 233.331 30.6769 233.266 30.5589V28.8546C233.297 28.7954 233.335 28.7403 233.379 28.6896V30.9423Z" fill="black"/>
<path d="M233.26 30.5711L233.182 30.4202V30.3995C233.05 30.1415 233.004 29.8476 233.05 29.5614C233.073 29.3784 233.117 29.1986 233.182 29.0261V29.0383C233.207 28.9818 233.232 28.9247 233.26 28.8724V30.5711Z" fill="black"/>
<path d="M231.579 25.908C231.751 25.8679 231.931 25.8743 232.099 25.9277C232.165 25.9464 232.225 25.9793 232.276 26.0243V28.7871L232.278 28.7861V28.7955C232.154 28.8417 232.034 28.8967 231.918 28.9605C231.694 29.1154 231.66 29.3793 231.556 29.5886C231.35 29.4626 231.176 29.2899 231.051 29.0842C230.768 28.7597 230.74 28.3344 230.753 27.9217C230.556 27.3186 230.609 26.5752 231.122 26.1565C231.249 26.0341 231.408 25.9482 231.579 25.908Z" fill="black"/>
<path d="M233.26 15.0687L233.182 15.1606V15.1484C232.807 15.5304 232.502 15.9743 232.279 16.4609L232.28 16.4722C231.799 17.5192 231.692 18.7191 231.809 19.9756C231.928 20.1384 232.091 20.2642 232.278 20.3403V20.5934L232.28 20.5943V20.6065C232.163 20.5619 232.04 20.5331 231.916 20.5221C231.865 20.6751 231.86 20.8402 231.903 20.9956C232.017 21.4118 232.138 21.8281 232.278 22.2443L232.428 22.6784C232.589 23.1087 232.779 23.5285 232.995 23.9346C233.051 23.9824 233.114 24.0225 233.182 24.0537L233.18 26.1002C233.131 26.0227 233.1 25.9593 233.029 25.8902C232.957 25.8218 232.899 25.9256 232.879 25.9905L232.724 26.5521C232.884 26.6395 233.036 26.7407 233.18 26.8539V28.3342C232.904 28.5306 232.6 28.6832 232.278 28.7861V26.0261L232.276 26.0243V26.0158C232.414 26.1352 232.435 26.3175 232.5 26.3449C232.52 26.3239 232.559 26.3969 232.606 26.2399C232.621 25.9467 232.78 25.6515 232.696 25.3605L232.28 24.5627V24.5965L231.799 23.6805C231.602 23.1864 231.409 22.6884 231.17 22.2152C231.082 22.2152 231.05 22.3089 231.025 22.3718C230.967 22.6126 230.72 22.8178 230.758 23.0984C230.986 23.2086 231.174 23.3859 231.301 23.6055C231.427 23.8252 231.483 24.0778 231.463 24.3302C231.492 24.791 231.312 25.2583 230.864 25.4383C230.173 25.5923 229.535 25.9221 229.009 26.3955C228.781 26.1552 228.619 25.8598 228.538 25.5386C228.002 23.8018 228.337 23.1667 228.421 22.9943C228.543 22.7483 228.722 22.5346 228.944 22.3718C229.165 22.2089 229.422 22.1011 229.694 22.0577C229.815 22.0335 229.942 22.0538 230.05 22.1149C230.158 22.176 230.241 22.2738 230.282 22.3905C230.344 22.5015 230.271 22.7405 230.454 22.7112C230.698 22.337 230.871 21.921 230.965 21.484C230.723 20.593 230.562 19.6816 230.486 18.7615C230.429 18.6632 230.335 18.7197 230.277 18.7615C230.132 18.9437 229.849 19.0276 229.799 19.2621C230.242 19.5617 230.232 20.1706 230.131 20.6562C230.052 21.0415 229.681 21.2832 229.344 21.4193C228.821 21.639 228.437 21.3662 227.854 21.2196C227.56 21.1568 227.249 21.5405 226.999 21.7624C226.941 21.6204 226.894 21.4739 226.858 21.3246C226.677 20.4937 226.799 19.6248 227.202 18.8759C227.483 18.319 228.046 17.8147 228.687 17.8147C229.051 17.8147 229.459 17.8337 229.633 18.2337C229.649 18.4158 229.74 18.5687 229.688 18.7634C229.75 18.8385 229.809 18.7443 229.859 18.7212C230.14 18.5673 230.369 18.3333 230.515 18.049C230.614 17.1203 230.85 16.2114 231.216 15.3519C230.835 15.3419 230.458 15.4233 230.115 15.59C230.22 15.795 230.263 16.0267 230.239 16.2556C230.215 16.4843 230.125 16.701 229.98 16.88C229.575 17.4684 228.735 17.2075 228.197 17.1068C227.9 17.0084 227.623 16.7 227.271 16.8697C226.986 17.0079 226.712 17.1546 226.433 17.3075C226.318 16.5848 226.423 15.7167 226.913 15.3247L227.119 15.1822C227.613 14.7977 227.785 14.0061 228.641 13.8097C228.954 13.7341 229.282 13.7541 229.584 13.8659C229.886 13.9778 230.148 14.1773 230.337 14.4387C230.384 14.6803 230.368 14.9304 230.289 15.1634C230.764 15.0922 231.249 15.0543 231.624 14.7153C231.837 14.4766 232.056 14.2398 232.278 14.0094V14.0066C232.564 13.7056 232.866 13.4187 233.182 13.1478V13.1459L233.26 13.0831V15.0687Z" fill="black"/>
<path d="M233.379 28.6896V28.683L233.389 28.6764C233.385 28.6806 233.382 28.6853 233.379 28.6896Z" fill="black"/>
<path d="M233.204 26.8933C233.225 26.917 233.243 26.9433 233.26 26.9711V28.2817C233.239 28.2943 233.209 28.3196 233.182 28.3427V26.8746L233.204 26.8933Z" fill="black"/>
<path d="M233.266 26.9693C233.308 27.0318 233.347 27.0978 233.379 27.1661L233.389 27.1605L233.446 27.2993C233.495 27.4414 233.517 27.5918 233.513 27.7427C233.494 27.8733 233.449 27.9987 233.379 28.1111L233.389 28.1046C233.354 28.1616 233.312 28.2151 233.266 28.2639V26.9693Z" fill="black"/>
<path d="M233.26 24.1043V26.2193C233.239 26.1711 233.209 26.1309 233.182 26.0974V24.0743L233.26 24.1043Z" fill="black"/>
<path d="M234.106 19.2978C234.35 19.3188 234.585 19.3953 234.794 19.5218C234.85 19.5661 234.903 19.6145 234.951 19.6662L234.962 19.6606C235.575 20.249 236.185 21.4738 236.66 22.458C236.66 22.458 235.838 22.1587 235.628 22.2884C235.394 22.3713 235.171 22.4809 234.962 22.6137C234.579 22.8355 234.191 23.032 233.731 22.8565C233.612 22.8097 233.497 22.7524 233.389 22.6849C233.348 22.6598 233.308 22.6317 233.266 22.6024V19.4609C233.302 19.4372 233.339 19.4175 233.379 19.4009L233.389 19.3943V19.4009C233.617 19.3121 233.862 19.2767 234.106 19.2978Z" fill="black"/>
<path d="M233.26 22.6062L233.182 22.5649V22.5434C233.049 22.4497 232.936 22.3302 232.852 22.1918C232.767 22.0532 232.711 21.8981 232.688 21.7371C232.671 21.4597 232.728 21.1828 232.856 20.9356C232.683 20.792 232.489 20.6762 232.28 20.5943V20.3421L232.278 20.3403V20.3299C232.488 20.4241 232.718 20.4762 232.935 20.539C233.077 20.4322 232.863 20.2918 232.902 20.1453C232.909 19.923 232.994 19.7103 233.142 19.5443C233.154 19.5355 233.168 19.5282 233.182 19.5218C233.206 19.5013 233.232 19.4817 233.26 19.4646V22.6062Z" fill="black"/>
<path d="M234.962 15.1869C235.017 15.1873 235.073 15.1931 235.128 15.2037C235.459 15.3687 235.741 15.6152 235.95 15.92C236.493 16.6362 236.057 17.5658 236.057 18.3762C236.065 18.8831 236.119 19.3088 235.761 19.5706C235.531 19.3067 235.261 19.08 234.962 18.8984V15.1869Z" fill="black"/>
<path d="M233.263 18.4718C233.235 18.4558 233.208 18.4376 233.182 18.4175V18.409C233.036 18.2847 232.921 18.1297 232.843 17.9553C232.728 17.7212 232.669 17.4632 232.671 17.2025C232.673 16.9419 232.737 16.6854 232.856 16.4534C232.932 16.3065 233.044 16.1809 233.182 16.0887C233.208 16.0724 233.236 16.0577 233.263 16.0447V18.4718Z" fill="black"/>
<path d="M234.962 15.1869C234.958 15.1868 234.955 15.1869 234.951 15.1869L234.962 15.1803V15.1869Z" fill="black"/>
<path d="M232.11 10.5782C232.166 10.5823 232.223 10.5909 232.278 10.6035V10.6138C232.507 10.6668 232.71 10.7964 232.856 10.9803C232.981 11.1144 233.066 11.2807 233.103 11.4603C233.14 11.6399 233.126 11.826 233.065 11.9985C232.995 12.1751 232.867 12.3231 232.702 12.4175C232.842 12.4511 233.01 12.4843 233.182 12.5178L233.26 12.531V12.845L233.182 12.8281V12.8197L232.992 12.7813C232.799 12.7522 232.603 12.7501 232.41 12.7738C232.313 12.8994 232.441 13.027 232.384 13.1694C232.353 13.241 232.318 13.3109 232.278 13.3784V13.37C231.981 13.8432 231.513 13.9625 231.001 13.9353C230.406 13.8851 230.021 13.2572 229.62 12.8572C229.413 12.7407 229.177 12.6857 228.94 12.6997C228.882 12.6577 228.94 12.5686 228.974 12.5225C229.24 11.9362 229.886 11.8643 230.267 11.4163C230.473 11.1267 230.753 10.8968 231.077 10.7497C231.4 10.6027 231.756 10.5432 232.11 10.5782Z" fill="black"/>
<path d="M231.153 6.10538C231.25 6.11821 231.343 6.15264 231.425 6.20663C231.506 6.26061 231.574 6.33244 231.624 6.41663C231.624 6.54229 231.738 6.69541 231.624 6.8085C231.571 6.9174 231.458 6.90488 231.382 6.97819C231.661 7.11411 231.982 7.13858 232.278 7.04569L232.277 7.05131L232.271 7.05413V8.68724L232.269 9.28629L231.904 9.49535C231.952 9.15847 231.536 9.03277 231.444 8.73973C231.427 8.67705 231.427 8.61013 231.445 8.54755C231.464 8.48515 231.498 8.42871 231.546 8.38536C231.86 8.10056 232.152 8.49452 232.152 8.06099C232.177 7.92486 232.246 7.72569 232.139 7.64193C231.624 8.09851 230.601 8.33354 230.686 9.21317C230.684 9.2523 230.698 9.29085 230.725 9.32004C230.852 9.28858 230.962 9.15707 231.113 9.23848C231.199 9.31172 231.285 9.36789 231.285 9.4766C231.246 9.91851 230.783 10.2498 230.408 10.4047C230.318 10.1136 229.837 9.97531 230.046 9.60879C230.119 9.37224 230.412 9.43265 230.537 9.28817C230.537 9.171 230.577 9.02482 230.494 8.94317C230.081 9.39541 229.265 9.71776 229.332 10.4422C229.35 10.53 229.296 10.6641 229.392 10.7103C229.471 10.7103 229.568 10.656 229.658 10.7103C229.701 10.7466 229.733 10.796 229.746 10.851C229.759 10.9059 229.755 10.9637 229.734 11.016C229.658 11.2799 229.392 11.4919 229.183 11.6656C229.162 11.4794 228.898 11.5252 228.873 11.316C228.795 11.0772 229.055 10.8863 229.215 10.8003C229.194 10.6559 229.296 10.4756 229.193 10.3541C228.782 10.7206 228.559 11.2259 228.263 11.6656C228.209 11.7739 228.17 11.8895 228.148 12.0088C228.297 12.0318 228.467 12.0613 228.536 12.2413C228.561 12.45 228.505 12.6608 228.381 12.83C228.065 13.165 227.595 13.1084 227.313 13.5125C227.239 13.121 227.083 12.675 227.206 12.2563C227.263 12.1111 227.367 11.9903 227.503 11.915C227.661 11.8543 227.789 11.9314 227.923 11.9628C228.223 11.387 228.601 10.8446 228.955 10.2875C228.972 10.2394 228.928 10.2019 228.896 10.1872C228.453 10.072 228.575 10.8359 228.098 10.5678C228.035 10.4826 227.672 10.7793 227.854 10.4047C228.035 10.03 228.222 9.5125 228.628 9.5666C228.72 9.63984 228.854 9.68615 228.88 9.79066C228.905 9.89524 228.735 9.94382 228.789 10.0316C229.434 10.1153 229.591 9.32999 230.046 8.98442C230.136 8.89655 230.269 8.81697 230.269 8.68724C230.111 8.62425 229.937 8.61173 229.771 8.65161C229.844 8.87568 229.683 9.03512 229.562 9.20473C229.512 9.23463 229.456 9.25432 229.397 9.26192C229.339 9.26947 229.279 9.26485 229.222 9.24879C228.98 9.16911 229.015 8.72318 228.685 8.82973C228.689 8.74475 228.717 8.66277 228.765 8.59255C228.813 8.52231 228.879 8.46695 228.957 8.43224C229.212 8.14328 229.55 7.83061 229.982 7.99162C230.031 8.02521 230.065 8.07588 230.079 8.13318C230.091 8.19045 230.082 8.25066 230.053 8.30193C230.037 8.37929 229.924 8.44201 229.982 8.51099C230.099 8.56004 230.228 8.57515 230.352 8.55411C230.477 8.53297 230.594 8.47672 230.689 8.39193C231.079 8.03172 231.458 7.6669 231.865 7.32975C231.775 7.27197 231.673 7.23406 231.567 7.21819C231.462 7.20232 231.353 7.20894 231.249 7.23787C231.168 7.4096 231.146 7.62511 230.937 7.73193C230.42 7.9288 230.182 7.21517 229.7 7.15444C229.763 6.91777 229.99 6.80032 230.199 6.67257C230.486 6.41091 230.753 6.10562 231.153 6.10538Z" fill="black"/>
<path d="M233.26 9.81598L233.182 9.76629V9.75973C233.136 9.73083 233.099 9.68803 233.078 9.63785L233.182 9.55066V9.55629L233.26 9.49348V9.81598Z" fill="black"/>
<path d="M233.26 7.02225L233.182 7.07475V7.07288L232.591 7.38881C232.346 7.59828 232.313 7.96503 232.323 8.26443C232.424 8.19741 232.495 8.09425 232.688 8.18005C232.927 8.29517 232.897 8.44417 232.922 8.61786C232.942 8.86919 232.698 9.04941 232.503 9.18973L232.271 9.32004V8.68724L232.277 7.05131L232.378 7.01569C232.627 6.81895 232.897 6.64905 233.182 6.50757L233.26 6.46538V7.02225Z" fill="black"/>
<path d="M233.266 4.3279C233.309 4.34403 233.352 4.36566 233.389 4.39259V4.39071C233.58 4.54235 233.72 4.74837 233.791 4.98133C233.812 5.05098 233.812 5.125 233.794 5.19508C233.775 5.26519 233.737 5.32875 233.684 5.37883C233.63 5.41636 233.556 5.43766 233.532 5.49602C233.786 5.73464 234.158 5.72687 234.473 5.78757C234.617 5.71474 234.764 5.64866 234.909 5.5832V6.20382C234.927 6.19636 234.944 6.18963 234.962 6.18226V6.18695L234.625 6.31726C234.394 6.55394 234.234 6.85106 234.164 7.17412C234.26 7.22229 234.341 7.07944 234.449 7.07944C234.524 7.09246 234.593 7.12519 234.65 7.17412C234.707 7.22311 234.749 7.28666 234.773 7.35787C234.818 7.46796 234.833 7.58816 234.816 7.70568C234.8 7.8231 234.753 7.93417 234.681 8.02818C234.327 8.3527 233.783 8.51673 233.389 8.75755V8.77161C233.357 8.79052 233.324 8.81162 233.293 8.83442C233.292 8.74175 233.283 8.64912 233.266 8.55786V7.28287C233.304 7.25742 233.346 7.23769 233.389 7.22569V7.1985H233.423C233.662 7.14003 233.823 7.4267 233.976 7.10006C234.052 6.96864 234.1 6.822 234.115 6.67069C234.074 6.58985 233.976 6.63726 233.93 6.67069L233.389 6.95569V6.95194L233.266 7.01663V6.46538L233.389 6.39507V6.39226C233.603 6.27471 233.807 6.13956 233.998 5.9882C234.009 5.88992 233.892 5.90271 233.831 5.85882C233.685 5.83995 233.54 5.74995 233.389 5.7332V5.72851C233.349 5.72242 233.307 5.72241 233.266 5.72851V4.3279Z" fill="black"/>
<path d="M233.26 8.56349L233.182 8.16411V8.16786C233.113 7.84352 233.053 7.53802 233.182 7.35787V7.35319C233.203 7.32333 233.229 7.29684 233.26 7.27537V8.56349Z" fill="black"/>
<path d="M233.26 4.32696V5.73883H233.237C233.218 5.8162 233.203 5.87719 233.182 5.94414V5.95632C233.168 6.02864 233.137 6.09664 233.092 6.15507C233.047 6.21353 232.989 6.26139 232.922 6.29382C232.821 6.33641 232.711 6.35847 232.6 6.35851C232.49 6.35851 232.38 6.33633 232.278 6.29382V6.26851C232.195 6.23694 232.114 6.19816 232.038 6.1532C231.673 5.92072 231.738 5.44283 231.293 5.31508C231.63 5.12449 231.943 4.82361 232.278 4.60165V4.61759C232.529 4.42925 232.835 4.32697 233.148 4.32509H233.182V4.31196C233.208 4.31482 233.234 4.32008 233.26 4.32696Z" fill="black"/>
<path d="M233.26 3.55634C233.26 3.55634 233.236 3.54094 233.228 3.53478C233.24 3.52586 233.251 3.51498 233.26 3.50197V3.55634Z" fill="black"/>
</svg>
