<svg width="146" height="48" viewBox="0 0 146 48" fill="none" xmlns="http://www.w3.org/2000/svg">
<path d="M39.4711 39.4926C39.4711 43.2323 42.541 44.4244 45.8371 44.4244C46.7227 44.4243 47.6085 44.3006 48.4735 44.0952V26.3422H53.0056V47.28C50.5747 47.7321 48.1027 48 45.61 48C39.162 48 34.7947 45.8418 34.7947 39.0816V26.3422H39.4711V39.4926Z" fill="#010F01"/>
<path d="M110.913 25.7464C113.529 25.7464 115.445 26.3013 116.97 26.9794L115.446 30.8418C114.065 30.1021 112.541 29.7119 111.181 29.7118C106.773 29.7118 105.268 33.6576 105.268 36.9863C105.268 41.3833 108.173 43.993 111.51 43.9932C113.179 43.9932 114.683 43.4796 115.733 42.8632L116.99 46.4793C115.465 47.26 112.973 47.9384 110.913 47.9384C104.486 47.9382 100.427 43.3353 100.427 37.1095C100.427 31.2124 103.806 25.7467 110.913 25.7464Z" fill="#010F01"/>
<path fill-rule="evenodd" clip-rule="evenodd" d="M81.1889 26.2806C85.3915 26.2806 90.3156 27.0002 90.3156 32.3221C90.3154 35.2191 88.4201 37.2124 85.6392 37.8083L91.3663 47.4658H85.7624L81.8693 40.0066C81.3954 39.0408 80.9421 38.9584 80.4683 38.9584H79.0057V47.383H74.3293V26.2806H81.1889ZM79.0057 35.5474H81.5604C83.3526 35.5473 85.4535 35.0128 85.4535 32.6705C85.4532 30.2668 83.1458 29.9582 81.2919 29.9582H79.0057V35.5474Z" fill="#010F01"/>
<path d="M72.5195 30.144H66.0304V47.4446H61.3338V30.144H54.8446V26.3422H72.5195V30.144Z" fill="#010F01"/>
<path d="M97.9978 47.4446H93.3215V26.3422H97.9978V47.4446Z" fill="#010F01"/>
<path d="M123.894 47.4446H119.218V26.3422H123.894V47.4446Z" fill="#010F01"/>
<path fill-rule="evenodd" clip-rule="evenodd" d="M138.832 26.3018C142.787 32.7741 144.764 40.2121 146 47.4446H140.85C140.644 45.76 140.336 44.0342 139.924 42.3291H131.828C131.436 44.0343 131.106 45.7805 130.859 47.4446H126.162C127.316 40.3558 129.376 32.4866 133.29 26.3018H138.832ZM135.844 29.8562C134.464 32.6095 133.351 35.63 132.507 38.8352H139.223C138.399 35.6915 137.307 32.6301 135.906 29.8562H135.844Z" fill="#010F01"/>
<path d="M33.6198 0C47.6899 0 59.7415 8.77379 64.7475 21.2256C59.9887 10.4382 48.9468 2.87687 36.0715 2.87687C18.8701 2.87691 4.92375 16.3971 4.92366 33.0613C4.92366 38.2598 6.2828 43.1505 8.67243 47.4244H2.63645C0.947227 43.3354 0 38.835 0 34.1296C0.000153428 15.2875 15.0589 0.00018835 33.6198 0Z" fill="#010F01"/>
<path d="M25.7528 37.1913C26.9065 38.8351 27.5864 40.0483 27.71 40.5619H27.7716V26.3018H32.0775V47.4244H27.8129L20.1913 36.9247C19.0994 35.4658 18.5427 34.1711 18.3572 33.6985V33.6783H18.3159V47.4042H13.9696V26.3018H18.2543L25.7528 37.1913Z" fill="#010F01"/>
</svg>
