<svg width="81" height="48" viewBox="0 0 81 48" fill="none" xmlns="http://www.w3.org/2000/svg">
<path d="M58.2139 19.7578C58.9853 19.7579 59.5789 20.2914 59.5791 21.1221C59.5791 22.1301 59.1623 23.1404 58.9258 24.1484H55.3652C55.722 22.7837 56.3746 19.7578 58.2139 19.7578Z" fill="#010F01"/>
<path d="M15.9629 14.0605C17.3872 14.0605 18.1571 14.596 18.1572 16.0781C18.1572 19.0454 16.6752 24.2664 13.1143 24.207L12.1064 24.1484L15.0723 14.0605H15.9629Z" fill="#010F01"/>
<path fill-rule="evenodd" clip-rule="evenodd" d="M40.4111 0C54.297 0 81 6.34824 81 23.9697C80.9999 41.9477 54.1194 47.9999 40.293 48C34.0617 48 27.7719 47.1095 21.8379 45.2705C22.3122 42.5412 23.3211 39.9901 24.0928 37.3203L29.0771 20.4102H32.7559L29.4922 31.5645H34.4775L38.1562 18.8076H29.5518C30.5018 15.6036 31.5693 5.99355 36.3164 5.99316C37.3245 5.99316 38.4534 6.348 38.9277 7.29785C37.3845 7.3573 36.0793 8.187 36.0791 9.9082C36.0791 11.3323 37.2666 12.4598 38.6895 12.46C40.4112 12.46 41.6572 10.9165 41.6572 9.25586C41.6571 6.2887 38.4534 5.22076 36.0195 5.2207C29.0774 5.2207 26.6447 11.1543 24.9824 16.8496L17.209 43.6094H17.1494C8.95997 40.2272 0.000223441 33.5824 0 23.793C0 6.28917 26.8211 0.000110619 40.4111 0ZM58.2734 18.2148C53.4664 18.2148 49.6689 22.131 49.6689 26.8779C49.6692 30.4975 52.2797 32.2177 55.6621 32.2178C58.8663 32.2178 62.3082 30.2594 63.2568 27.0557H58.1543C57.7394 28.242 57.1444 30.6152 55.543 30.6152C54.6527 30.6151 54.1192 30.1407 54.1191 29.1924C54.1191 28.0642 54.5339 26.7588 54.8906 25.6914H63.6719C63.9097 24.8604 64.0879 23.9692 64.0879 23.0801C64.0877 19.6389 61.299 18.2149 58.2734 18.2148ZM8.12988 12.5195L8.07031 12.5791L7.6543 14.0605H9.85059V14.1201L4.80664 31.5645H9.79102L11.6895 25.6914H13.0547C18.6333 25.6914 23.3212 23.9115 23.3213 17.3838C23.3213 13.6463 20.5917 12.5196 17.2686 12.5195H8.12988ZM40.1738 18.8076L39.6992 20.3506H44.209L36.4951 31.5645H47.5322L48.0068 30.1406L43.4375 30.0811L51.1523 18.8076H40.1738ZM76.1943 18.5713C74.4726 18.5713 73.0484 19.6987 72.1592 21.0635L72.8115 18.8076H66.0469L65.5127 20.3506L67.4707 20.4102L64.207 31.5645H69.1914C69.9036 29.2494 71.0904 22.4878 73.6416 20.5879H73.7607C73.7013 20.8257 73.6416 21.123 73.6416 21.3594C73.6418 22.6049 74.7699 23.7332 76.0156 23.7334C77.4994 23.7334 78.6864 22.4875 78.6865 21.0039C78.6865 19.6392 77.5593 18.5713 76.1943 18.5713Z" fill="#010F01"/>
</svg>
