<svg width="24" height="24" viewBox="0 0 24 24" fill="none" xmlns="http://www.w3.org/2000/svg">
<path fill-rule="evenodd" clip-rule="evenodd" d="M12 3C15.3939 3 17.0914 2.99989 18.1453 4.05469C18.6547 4.56318 18.9182 5.22301 19.0541 6.15C18.6211 6.14929 18.1921 6.23396 17.792 6.39961C17.3918 6.56534 17.0282 6.80916 16.7224 7.11592L12.0018 11.8374C11.759 12.0802 11.5601 12.278 11.3848 12.5027C11.179 12.7661 11.004 13.0494 10.8601 13.3518C10.7377 13.6092 10.6482 13.8759 10.5393 14.2017L10.5208 14.2605L9.84668 16.282C9.73652 16.6123 9.72012 16.9671 9.8001 17.306C9.88008 17.6448 10.0531 17.9545 10.2993 18.2007C10.5455 18.4469 10.8552 18.6199 11.194 18.6999C11.5329 18.7799 11.8877 18.7635 12.218 18.6533L14.2983 17.9599C14.588 17.8713 14.872 17.7642 15.1482 17.6399C15.45 17.4971 15.7353 17.3211 15.9981 17.1152C16.222 16.9399 16.4207 16.741 16.6635 16.4982L19.2 13.9617C19.2 17.2485 19.183 18.9085 18.1453 19.9453C17.0914 21.0001 15.3939 21 12 21H10.2C6.8061 21 5.10949 20.9992 4.05469 19.9453C2.99989 18.8914 3 17.1939 3 13.8V10.2C3 6.8061 2.99989 5.10859 4.05469 4.05469C5.10859 2.99989 6.8061 3 10.2 3H12ZM7.5 15.825C7.32098 15.825 7.14934 15.8962 7.02275 16.0228C6.89617 16.1493 6.825 16.321 6.825 16.5C6.825 16.679 6.89617 16.8507 7.02275 16.9772C7.14934 17.1038 7.32098 17.175 7.5 17.175H8.85C9.02902 17.175 9.20066 17.1038 9.32725 16.9772C9.45383 16.8507 9.525 16.679 9.525 16.5C9.525 16.321 9.45383 16.1493 9.32725 16.0228C9.20066 15.8962 9.02902 15.825 8.85 15.825H7.5ZM7.5 12.225C7.32098 12.225 7.14934 12.2962 7.02275 12.4228C6.89617 12.5493 6.825 12.721 6.825 12.9C6.825 13.079 6.89617 13.2507 7.02275 13.3772C7.14934 13.5038 7.32098 13.575 7.5 13.575H9.75C9.92902 13.575 10.1007 13.5038 10.2272 13.3772C10.3538 13.2507 10.425 13.079 10.425 12.9C10.425 12.721 10.3538 12.5493 10.2272 12.4228C10.1007 12.2962 9.92902 12.225 9.75 12.225H7.5ZM7.5 8.625C7.32098 8.625 7.14934 8.69617 7.02275 8.82275C6.89617 8.94934 6.825 9.12098 6.825 9.3C6.825 9.47902 6.89617 9.65066 7.02275 9.77725C7.14934 9.90383 7.32098 9.975 7.5 9.975H13.35C13.529 9.975 13.7007 9.90383 13.8272 9.77725C13.9538 9.65066 14.025 9.47902 14.025 9.3C14.025 9.12098 13.9538 8.94934 13.8272 8.82275C13.7007 8.69617 13.529 8.625 13.35 8.625H7.5Z" fill="black"/>
<path d="M16.5615 9.18574C16.647 9.09934 16.7961 9.13912 16.8366 9.25342C17.0299 9.81088 17.3477 10.317 17.7665 10.7326C18.1823 11.1516 18.6889 11.4701 19.2466 11.6634C19.3607 11.7039 19.4003 11.8521 19.3143 11.9376L15.7529 15.4998C15.4676 15.7851 15.3242 15.9285 15.1667 16.0509C14.9801 16.1961 14.7794 16.3198 14.5664 16.4218C14.3865 16.5081 14.1938 16.5709 13.8105 16.6986L13.3157 16.8647L12.5282 17.1275L11.7899 17.3728C11.6974 17.4034 11.5982 17.4075 11.5034 17.3851C11.4087 17.3626 11.3218 17.3142 11.2529 17.2453C11.1842 17.1764 11.1356 17.0895 11.1132 16.9948C11.0908 16.9001 11.0949 16.8007 11.1255 16.7083L11.7996 14.6886C11.9274 14.3052 11.9918 14.1118 12.0773 13.9318C12.1787 13.719 12.3025 13.5189 12.4482 13.3324C12.5705 13.1751 12.7135 13.032 12.9984 12.7471L16.5615 9.18574Z" fill="black"/>
<path d="M19.0523 7.49912C19.5687 7.49904 20.0644 7.70445 20.4296 8.06953C20.7947 8.43459 20.9999 8.92961 21 9.4459C21.0001 9.96227 20.7947 10.458 20.4296 10.8231L20.3145 10.9374C20.2606 10.9913 20.1945 11.0312 20.122 11.0543C20.0491 11.0775 19.9714 11.0831 19.8961 11.0701C19.7998 11.0521 19.6582 11.0205 19.4892 10.962C19.1517 10.845 18.7086 10.6236 18.2921 10.207C17.8755 9.7904 17.6541 9.3474 17.5371 9.00996C17.4787 8.84176 17.447 8.69928 17.429 8.60303C17.4154 8.52781 17.4208 8.45 17.4439 8.37715C17.4672 8.30431 17.5079 8.23812 17.5626 8.18467L17.676 8.06953C18.041 7.70443 18.5361 7.49929 19.0523 7.49912Z" fill="black"/>
</svg>
