<svg width="24" height="24" viewBox="0 0 24 24" fill="none" xmlns="http://www.w3.org/2000/svg">
<path d="M7.92578 2.05762C8.52154 2.11691 9.08173 2.38055 9.50879 2.80762C9.99692 3.29584 10.2715 3.95804 10.2715 4.64844V7.25195C10.2714 7.65595 10.1777 8.05466 9.99707 8.41602C9.83896 8.73224 9.61784 9.01268 9.34863 9.24023L9.22949 9.33496L8.8291 9.63379C9.92712 11.8628 11.731 13.6665 13.959 14.7656L14.2627 14.3682L14.3574 14.249C14.585 13.9798 14.8654 13.7587 15.1816 13.6006C15.543 13.4199 15.9417 13.3262 16.3457 13.3262H18.9492C19.6397 13.3262 20.3018 13.6007 20.79 14.0889C21.2783 14.5771 21.5527 15.2392 21.5527 15.9297V18.5332C21.5527 19.2237 21.2783 19.8858 20.79 20.374C20.3018 20.8622 19.6397 21.1367 18.9492 21.1367C14.5763 21.1367 10.3831 19.3988 7.29102 16.3066C4.2955 13.3111 2.57063 9.28225 2.46582 5.05762L2.46094 4.64844C2.46094 3.95802 2.73548 3.29584 3.22363 2.80762C3.71186 2.31938 4.37399 2.04493 5.06445 2.04492H7.66797L7.92578 2.05762Z" fill="black"/>
</svg>
