<svg xmlns="http://www.w3.org/2000/svg" width="96" height="72" viewBox="0 0 96 72" fill="none">
<path fill-rule="evenodd" clip-rule="evenodd" d="M1.85385 0.587477C-0.0840605 1.85133 0.0213382 0.559015 0.0103457 23.1943C-0.000970059 46.1334 -0.119301 44.8049 2.0404 45.9735C2.95019 46.4656 4.4484 46.5501 14.7859 46.6911L26.5003 46.851L27.498 47.8386C28.7486 49.0765 29.0822 50.4852 29.0822 54.5263C29.0822 58.5673 28.7486 59.976 27.4977 61.214L26.5 62.2015L14.7859 62.3614C4.4484 62.5024 2.95019 62.5869 2.0404 63.079C0.418038 63.9569 0 64.7983 0 67.1866C0 69.6222 0.65082 70.7633 2.46878 71.5145C4.04782 72.1672 29.6109 72.1419 32.747 71.4844C39.4158 70.0865 44.1549 65.3017 45.4375 58.6709C46.1355 55.0626 46.1216 16.2373 45.4213 12.952C44.0815 6.66787 39.681 2.09534 33.4201 0.482261C31.887 0.0873058 28.9439 0.000319792 17.1483 0.0022386C3.75684 0.00415742 2.6854 0.0450927 1.85385 0.587477ZM51.654 0.803343C50.8095 1.37099 50.3579 1.97766 50.1148 2.87118C49.8839 3.71866 49.8002 10.6558 49.861 23.9087C49.9612 45.8791 49.8422 44.7246 52.1364 45.9648C53.0672 46.4679 54.4911 46.5491 64.8709 46.6911C75.9772 46.843 76.5931 46.8827 77.2707 47.49C78.6959 48.7669 78.8873 49.5997 78.8873 54.5263C78.8873 59.7499 78.6296 60.662 76.8508 61.7346C75.8808 62.3198 75.156 62.3592 65.3083 62.3637C59.5292 62.3662 54.258 62.4573 53.5945 62.5658C52.9165 62.6764 51.8545 63.2194 51.1697 63.8047C49.9796 64.8223 49.9512 64.8981 49.9567 67.042C49.9635 69.6762 50.5373 70.7108 52.4018 71.4486C54.203 72.1614 79.4799 72.1928 82.8501 71.4863C87.6609 70.478 92.1378 67.0532 94.119 62.8651C95.9101 59.079 96 57.7854 96 35.8178C96 14.717 95.8872 12.7697 94.4808 9.59406C93.1112 6.5019 90.0169 3.28597 86.9144 1.73109C83.6092 0.0741933 82.7647 0 67.2553 0H52.8493L51.654 0.803343Z" fill="#53B053" fill-opacity="0.1"/>
</svg>