<svg width="24" height="24" viewBox="0 0 24 24" fill="none" xmlns="http://www.w3.org/2000/svg">
<path d="M10.8906 3.03685C11.5623 2.58928 12.4377 2.58928 13.1094 3.03685L20.1094 7.70384C20.6656 8.07471 20.9999 8.69938 21 9.36791V19.2976L20.9893 19.5017C20.8937 20.4432 20.1456 21.1914 19.2041 21.2869L19 21.2976H14V15.2976C13.9998 14.1932 13.1045 13.2976 12 13.2976C10.8955 13.2976 10.0002 14.1932 10 15.2976V21.2976H5L4.7959 21.2869C3.85441 21.1914 3.10626 20.4432 3.01074 19.5017L3 19.2976V9.36791C3.00012 8.74109 3.29391 8.15272 3.78906 7.77611L3.89062 7.70384L10.8906 3.03685Z" fill="black"/>
</svg>
