<svg width="24" height="24" viewBox="0 0 24 24" fill="none" xmlns="http://www.w3.org/2000/svg">
<path fill-rule="evenodd" clip-rule="evenodd" d="M12.55 10.3571C14.6778 10.3571 16.4 12.0346 16.4 14.1071C16.4 15.6038 15.4994 16.893 14.2 17.4956V18.9286C14.2 19.5212 13.7084 20 13.1 20H10.9C10.2916 20 9.8 19.5212 9.8 18.9286V17.4956C8.50063 16.893 7.6 15.6038 7.6 14.1071C7.6 12.0346 9.32219 10.3571 11.45 10.3571H12.55ZM14.2 15.5267C14.5437 15.1484 14.75 14.6529 14.75 14.1105C14.75 13.5681 14.5438 13.0691 14.2 12.6941V15.5267ZM9.8 12.6876C9.45628 13.0659 9.25001 13.5614 9.25 14.1037V14.1071C9.25 14.6495 9.45628 15.145 9.8 15.5233V12.6876Z" fill="black"/>
<path fill-rule="evenodd" clip-rule="evenodd" d="M5.95 9.82143C6.77496 9.82143 7.53809 10.0725 8.1637 10.501V10.5044C7.14276 11.385 6.5 12.6741 6.5 14.1071C6.5 15.2556 6.9125 16.3103 7.6 17.1373V17.8571C7.6 18.4498 7.10844 18.9286 6.5 18.9286H4.3C3.69156 18.9286 3.2 18.4498 3.2 17.8571V16.9599C1.90063 16.3572 1 15.0681 1 13.5714C1 11.4989 2.72219 9.82143 4.85 9.82143H5.95ZM3.2 12.1552C2.85629 12.5302 2.65 13.029 2.65 13.5714C2.65 14.1138 2.85628 14.6126 3.2 14.9876V12.1552Z" fill="black"/>
<path fill-rule="evenodd" clip-rule="evenodd" d="M19.15 9.82143C21.2778 9.82143 23 11.4989 23 13.5714C23 15.0681 22.0994 16.3572 20.8 16.9599V17.8571C20.8 18.4498 20.3084 18.9286 19.7 18.9286H17.5C16.8916 18.9285 16.4 18.4498 16.4 17.8571V17.1373C17.0875 16.3103 17.5 15.2556 17.5 14.1071C17.5 12.6741 16.8572 11.3849 15.8363 10.501C16.4619 10.0725 17.225 9.82144 18.05 9.82143H19.15ZM20.8 14.991C21.1437 14.6127 21.35 14.1172 21.35 13.5748C21.35 13.0324 21.1438 12.5334 20.8 12.1584V14.991Z" fill="black"/>
<path d="M12 5C12.5835 5 13.1432 5.22566 13.5557 5.62753C13.9683 6.02939 14.2 6.57454 14.2 7.14286C14.2 7.71118 13.9683 8.25632 13.5557 8.65819C13.1432 9.06005 12.5835 9.28571 12 9.28571C11.4165 9.28571 10.8568 9.06005 10.4443 8.65819C10.0317 8.25632 9.8 7.71118 9.8 7.14286C9.8 6.57454 10.0317 6.02939 10.4443 5.62753C10.8568 5.22566 11.4165 5 12 5Z" fill="black"/>
<path d="M5.4 5C5.91054 5 6.4003 5.19742 6.7613 5.54905C7.12231 5.90069 7.325 6.37772 7.325 6.875C7.325 7.37228 7.12231 7.84931 6.7613 8.20095C6.4003 8.55258 5.91054 8.75 5.4 8.75C4.88946 8.75 4.3997 8.55258 4.0387 8.20095C3.67769 7.84931 3.475 7.37228 3.475 6.875C3.475 6.37772 3.67769 5.90069 4.0387 5.54905C4.3997 5.19742 4.88946 5 5.4 5Z" fill="black"/>
<path d="M18.6 5C19.1105 5 19.6003 5.19742 19.9613 5.54905C20.3223 5.90069 20.525 6.37772 20.525 6.875C20.525 7.37228 20.3223 7.84931 19.9613 8.20095C19.6003 8.55258 19.1105 8.75 18.6 8.75C18.0895 8.75 17.5997 8.55258 17.2387 8.20095C16.8777 7.84931 16.675 7.37228 16.675 6.875C16.675 6.37772 16.8777 5.90069 17.2387 5.54905C17.5997 5.19742 18.0895 5 18.6 5Z" fill="black"/>
</svg>
