<svg width="24" height="24" viewBox="0 0 24 24" fill="none" xmlns="http://www.w3.org/2000/svg">
<path d="M11.3691 15.5566C11.6674 15.5567 11.8995 15.8144 11.8398 16.1064C11.3561 18.3769 9.3397 20.0791 6.9248 20.0791C4.51012 20.0789 2.49444 18.3768 2.01074 16.1064C1.94794 15.8144 2.18316 15.5567 2.48145 15.5566H11.3691ZM6.9248 10.0293C9.33956 10.0295 11.3552 11.7316 11.8389 14.002C11.9017 14.294 11.6665 14.5518 11.3682 14.5518H2.48047C2.18227 14.5516 1.95012 14.2939 2.00977 14.002C2.49346 11.7314 4.50987 10.0293 6.9248 10.0293ZM12.7578 6.29199C12.9211 6.04389 13.2671 6.02493 13.4775 6.23535L19.7646 12.5225C19.975 12.7329 19.9591 13.082 19.708 13.2422C18.9229 13.7541 17.9836 14.0488 16.9756 14.0488C14.1995 14.0488 11.9513 11.8006 11.9512 9.02441C11.9512 8.01634 12.246 7.08025 12.7578 6.29199ZM16.9756 3.99902C19.7515 3.99924 22 6.2483 22 9.02441C22 10.0325 21.7043 10.9686 21.1924 11.7568C21.029 12.0046 20.684 12.0237 20.4736 11.8135L14.1865 5.52539C13.9763 5.31495 13.992 4.96676 14.2432 4.80664C15.0314 4.29478 15.9676 3.99902 16.9756 3.99902Z" fill="black"/>
</svg>
