<svg width="24" height="24" viewBox="0 0 24 24" fill="none" xmlns="http://www.w3.org/2000/svg">
<path fill-rule="evenodd" clip-rule="evenodd" d="M21.7 16.3375C21.7 18.2467 20.1385 19.792 18.2091 19.792C16.308 19.7919 14.7651 18.2899 14.7183 16.4209L3.26072 19.5113C2.72781 19.653 2.18237 19.3446 2.0359 18.8173C1.88948 18.2899 2.20432 17.7502 2.73719 17.6052L12.7235 14.9124V5.974C12.7235 4.88528 13.6181 4.0001 14.7183 4H21.7V16.3375ZM18.2094 14.857C17.8126 14.857 17.4321 15.0131 17.1516 15.2907C16.8711 15.5684 16.7133 15.9449 16.7133 16.3375C16.7133 16.7301 16.8711 17.1066 17.1516 17.3843C17.4321 17.6619 17.8126 17.818 18.2094 17.818C18.6062 17.818 18.9868 17.6619 19.2674 17.3843C19.5479 17.1066 19.7055 16.7301 19.7055 16.3375C19.7055 15.9449 19.5479 15.5684 19.2674 15.2907C18.9868 15.0131 18.6062 14.857 18.2094 14.857Z" fill="black"/>
<path d="M7.9954 7.92029C8.52833 7.77848 9.07367 8.09311 9.21705 8.6174L10.5074 13.3828C10.6507 13.9101 10.3329 14.4498 9.80316 14.5917L4.98448 15.8717C4.45154 16.0135 3.90595 15.6989 3.76258 15.1746L2.47226 10.4063C2.32891 9.87896 2.64693 9.33909 3.17671 9.19717L4.62288 8.81476L5.26816 11.1989C5.33983 11.461 5.614 11.6184 5.87887 11.5476L6.84217 11.2914C7.10702 11.2204 7.26595 10.949 7.19427 10.6868L6.54899 8.3027L7.9954 7.92029Z" fill="black"/>
</svg>
