<svg width="48" height="48" viewBox="0 0 48 48" fill="none" xmlns="http://www.w3.org/2000/svg">
<path fill-rule="evenodd" clip-rule="evenodd" d="M17.6128 0.652889C9.11955 3.16204 3.08827 9.24161 0.658077 17.7441C-0.219359 20.8133 -0.219359 27.1634 0.658077 30.2325C3.10933 38.8083 9.18724 44.8892 17.7588 47.3416C20.8265 48.2195 27.1735 48.2195 30.2412 47.3416C38.8128 44.8892 44.8907 38.8083 47.3419 30.2325C48.2194 27.1634 48.2194 20.8133 47.3419 17.7441C44.8907 9.16838 38.8128 3.08751 30.2412 0.635066C27.2548 -0.219465 20.5337 -0.209743 17.6128 0.652889ZM42.7863 14.9155C42.9852 15.2875 43.0937 16.8971 43.0406 18.6888C42.9434 21.9617 42.5842 22.733 41.3725 22.2679C40.9272 22.0968 40.8426 21.5051 40.8426 18.5543C40.8426 15.0775 41.0671 14.2667 42.0297 14.2667C42.2548 14.2667 42.5956 14.5587 42.7863 14.9155ZM9.97075 16.5915C10.8508 17.4188 10.8832 17.622 10.238 18.2675C9.85577 18.6499 9.56361 18.6774 8.82837 18.3997C7.68436 17.9677 6.83349 18.2568 6.83349 19.0776C6.83349 20.0449 7.72226 20.6315 8.47499 20.1613C9.29478 19.6489 9.90921 19.6745 10.3792 20.241C10.9528 20.9325 10.2946 21.9205 8.96894 22.358C5.67394 23.4462 3.06787 19.2805 5.51296 16.8342C6.72822 15.6183 8.81444 15.5049 9.97075 16.5915ZM16.8992 16.8342C17.7501 17.6855 17.846 17.9933 17.846 19.8732C17.846 21.2511 17.6944 22.0907 17.4013 22.334C16.9436 22.7138 15.9026 22.5055 15.9026 22.0343C15.9026 21.8888 15.4576 21.9918 14.9137 22.2631C12.3873 23.524 10.0893 20.2944 11.53 17.5073C12.1681 16.2729 12.8512 15.9087 14.551 15.8967C15.6755 15.8889 16.1394 16.074 16.8992 16.8342ZM24.1331 16.8841C24.8438 17.7289 24.9717 18.1968 24.9717 19.9513C24.9717 21.6383 24.8603 22.081 24.3686 22.3441C23.3477 22.8908 22.7423 22.1069 22.6364 20.0997C22.5538 18.5319 22.4547 18.3051 21.8137 18.2137C21.1338 18.1171 21.0849 18.2296 21.0849 19.892C21.0849 21.0796 20.9152 21.8434 20.5761 22.183C19.4376 23.3218 18.8177 22.4449 18.8177 19.6962C18.8177 17.773 18.9236 17.3721 19.6128 16.6825C20.2188 16.0759 20.7503 15.887 21.8513 15.887C23.0652 15.887 23.4277 16.0455 24.1331 16.8841ZM31.518 16.8261C32.3653 17.5834 32.5687 18.0112 32.5687 19.0387C32.5687 21.5006 30.6515 23.1494 28.8403 22.2456C27.9357 21.7942 27.9214 21.8019 27.8239 22.8068C27.7417 23.652 27.5862 23.8263 26.9151 23.8263C26.116 23.8263 26.104 23.7861 26.012 20.8162C25.9204 17.8589 25.9356 17.7892 26.8778 16.8465C28.2087 15.5153 30.0426 15.5069 31.518 16.8261ZM38.8325 16.6906C41.2468 18.7234 39.8829 22.3681 36.7081 22.3681C35.5689 22.3681 35.0986 22.1801 34.3397 21.4209C31.3673 18.4467 35.611 13.9786 38.8325 16.6906ZM35.8647 18.4324C35.2279 19.1366 35.4543 19.9905 36.3534 20.2763C37.6956 20.7024 38.5371 18.8287 37.3011 18.1667C36.4885 17.7318 36.5005 17.7296 35.8647 18.4324ZM13.4115 18.6855C13.1385 19.3981 13.7069 20.2384 14.5477 20.3638C15.0504 20.4386 15.2859 20.2504 15.4359 19.6531C15.5479 19.2059 15.5444 18.6862 15.4281 18.4979C15.0964 17.9606 13.6376 18.0964 13.4115 18.6855ZM28.2495 18.7309C27.5829 19.9772 29.2355 21.045 30.1411 19.9532C30.3558 19.6943 30.4368 19.1839 30.3208 18.819C30.0562 17.9843 28.6803 17.9256 28.2495 18.7309ZM6.77324 25.3879C6.85616 26.3915 6.95883 26.5561 7.31771 26.258C7.56096 26.0561 8.30236 25.9365 8.96505 25.9926C10.5269 26.1248 11.5154 27.3757 11.5154 29.2202C11.5154 32.08 7.8855 33.5158 5.83686 31.4665C4.92444 30.5537 4.89011 30.4082 4.89011 27.47C4.89011 25.7927 4.99343 24.3169 5.11975 24.1905C5.24607 24.0645 5.64673 24.0036 6.01047 24.0557C6.5219 24.129 6.69454 24.4303 6.77324 25.3879ZM22.0566 25.4466C22.159 26.2664 22.3148 26.5941 22.4806 26.3377C22.9435 25.6225 24.9241 25.8555 25.796 26.7282C26.9944 27.9269 26.9219 30.1881 25.6444 31.4665C23.8938 33.218 20.9774 32.5816 20.0935 30.2552C19.6433 29.0705 19.7129 24.8425 20.1903 24.3649C20.4109 24.1442 20.8848 24.0055 21.243 24.057C21.7382 24.128 21.9335 24.4618 22.0566 25.4466ZM17.8048 26.6119C18.2055 26.9855 18.6703 27.6511 18.8374 28.0912C19.1811 28.9953 19.2413 31.1289 18.9449 31.9011C18.7221 32.4821 17.3494 32.5965 17.0187 32.0615C16.862 31.8078 16.7026 31.8078 16.449 32.0615C15.8009 32.7099 13.9825 32.4666 13.1349 31.6182C11.9365 30.4195 12.009 28.1583 13.2865 26.8799C14.4914 25.6744 16.6608 25.5457 17.8048 26.6119ZM29.4807 26.388C29.7171 26.6731 29.823 27.7817 29.7634 29.3514C29.6637 31.9792 29.229 32.7498 28.0928 32.3136C27.6574 32.1464 27.5629 31.5981 27.5629 29.2374C27.5629 27.6573 27.66 26.2674 27.7789 26.1488C28.1481 25.7794 29.0852 25.9109 29.4807 26.388ZM35.9191 26.5898C36.3068 26.9512 36.7149 27.6093 36.8263 28.0523C37.1457 29.3252 36.4729 29.82 34.4061 29.8317C32.7552 29.8411 32.6409 29.8855 33.1951 30.3054C33.6188 30.6263 34.2416 30.7092 35.2195 30.5751C36.5001 30.3994 36.632 30.4448 36.632 31.0621C36.632 31.9633 35.7134 32.4137 33.8753 32.4137C32.6451 32.4137 32.1991 32.2413 31.4247 31.4665C29.3061 29.3469 30.7672 25.9327 33.793 25.9327C34.7731 25.9327 35.4332 26.1365 35.9191 26.5898ZM42.4968 26.5435C43.1199 27.0484 43.1805 27.2396 42.8449 27.644C42.5159 28.0406 42.225 28.0675 41.309 27.7862C40.5045 27.5393 40.0785 27.5396 39.8311 27.7872C39.583 28.0354 39.7945 28.2007 40.5676 28.3621C42.3014 28.7244 43.1099 29.391 43.1099 30.4584C43.1099 31.7005 42.0715 32.4137 40.2635 32.4137C38.5297 32.4137 37.6037 31.9503 37.6037 31.0828C37.6037 30.4697 37.7339 30.4389 39.4308 30.6512C41.3952 30.8968 41.7016 30.3981 39.8178 30.0212C37.4106 29.5397 36.7926 27.423 38.7373 26.3199C39.7472 25.747 41.6533 25.8604 42.4968 26.5435ZM32.9612 27.7691C32.4728 28.2574 32.8116 28.5251 33.9184 28.5251C34.9247 28.5251 35.0345 28.4557 34.6886 28.039C34.2714 27.5364 33.3392 27.3906 32.9612 27.7691ZM7.17002 28.5018C6.587 29.5916 7.47577 30.6998 8.58998 30.2721C9.71422 29.8404 9.33624 27.877 8.12907 27.877C7.78542 27.877 7.35367 28.1579 7.17002 28.5018ZM15.1654 28.2445C14.4561 28.6417 14.4363 30.1003 15.1369 30.3693C16.3897 30.8502 17.49 28.8777 16.3188 28.2503C15.935 28.0448 15.5259 28.0429 15.1654 28.2445ZM22.4576 28.2535C21.5193 29.1923 22.5363 30.9386 23.6223 30.2533C24.4188 29.7507 24.3372 28.064 23.5103 27.9457C23.152 27.8942 22.6782 28.0329 22.4576 28.2535Z" fill="black"/>
</svg>
