<svg width="134" height="48" viewBox="0 0 134 48" fill="none" xmlns="http://www.w3.org/2000/svg">
<path fill-rule="evenodd" clip-rule="evenodd" d="M42.2601 33.7654C46.2336 33.7655 47.885 36.7978 47.885 39.1408C47.8849 41.523 46.3901 44.6928 41.9838 44.6928C39.8597 44.6928 38.7978 44.0038 37.3815 42.9598V48H35.7884V34.0808H37.3815V35.6352C38.8573 34.4347 39.8999 33.7654 42.2601 33.7654ZM41.8467 35.1244C40.1356 35.1244 38.3651 36.2471 37.3815 37.3107V41.3073C38.326 42.2911 39.6638 43.3349 41.8864 43.3349C44.0108 43.3348 46.292 42.2325 46.292 39.1011C46.2918 36.9748 44.6396 35.1244 41.8467 35.1244Z" fill="#010F01"/>
<path fill-rule="evenodd" clip-rule="evenodd" d="M27.349 33.7654C29.6897 33.7654 32.3647 34.4547 32.3647 37.0934V42.7833C32.3647 43.3941 32.4424 43.827 32.5416 44.3784H30.9485C30.8696 44.0632 30.7518 43.5504 30.7518 43.1374C29.2571 44.1018 27.585 44.6928 25.6177 44.6928C23.9262 44.6928 21.4278 44.2196 21.4278 41.5622C21.4283 37.9987 26.7591 37.8611 30.7716 37.388V36.9942C30.7716 35.5966 29.0991 35.0648 27.4662 35.0648C24.7326 35.0649 23.7684 36.2066 23.2575 36.7978L22.0579 35.9705C22.6478 35.2424 23.7685 33.7654 27.349 33.7654ZM30.7716 38.6885C26.0902 39.1413 22.9425 39.5745 22.9424 41.5632C22.9424 43.1775 24.7525 43.3944 25.5392 43.3944C27.7619 43.3943 29.749 42.3308 30.7716 41.7795V38.6885Z" fill="#010F01"/>
<path fill-rule="evenodd" clip-rule="evenodd" d="M68.9821 33.7654C71.3227 33.7655 73.9978 34.4549 73.9978 37.0934L73.9968 42.7833C73.9968 43.3941 74.0753 43.827 74.1737 44.3784H72.5806C72.5025 44.0632 72.3849 43.5504 72.3849 43.1374C70.8903 44.1018 69.2171 44.6928 67.2498 44.6928C65.5583 44.6927 63.061 44.2195 63.061 41.5622C63.0614 37.9987 68.3912 37.8611 72.4037 37.388V36.9942C72.4037 35.5966 70.7315 35.0648 69.0993 35.0648C66.3658 35.0649 65.4023 36.2066 64.8906 36.7978L63.6911 35.9705C64.281 35.2423 65.4029 33.7654 68.9821 33.7654ZM72.4037 38.6885C67.7223 39.1413 64.5757 39.5745 64.5755 41.5632C64.5755 43.1775 66.3856 43.3944 67.1724 43.3944C69.3951 43.3943 71.3814 42.3308 72.4048 41.7795L72.4037 38.6885Z" fill="#010F01"/>
<path d="M128.721 7.81981L128.725 7.82399C128.727 7.82628 128.73 7.82951 128.733 7.83339C128.741 7.84145 128.752 7.8531 128.765 7.86786C128.792 7.89771 128.83 7.94183 128.879 7.99843C128.977 8.11163 129.116 8.27787 129.286 8.49461C129.627 8.92814 130.093 9.56493 130.602 10.3853C131.555 11.9225 132.662 14.1112 133.373 16.8242L133.511 17.3736L133.514 17.3872L133.516 17.3998C134.346 21.9101 134.366 27.1632 131.482 32.5662C128.802 37.5852 125.815 39.7063 122.721 41.7178L122.696 41.7325C119.823 43.3868 117.051 44.0947 114.998 44.3888C113.97 44.536 113.12 44.5803 112.524 44.5873C112.227 44.5908 111.992 44.5847 111.829 44.5779C111.748 44.5745 111.685 44.5704 111.641 44.5675C111.619 44.566 111.602 44.5653 111.59 44.5643C111.584 44.5639 111.58 44.5636 111.576 44.5633C111.574 44.5631 111.572 44.5623 111.571 44.5623H111.569L111.081 44.5194V44.0306L111.07 34.0265L111.651 34.0756C111.654 34.0758 111.659 34.0763 111.665 34.0766C111.677 34.0774 111.695 34.0785 111.721 34.0798C111.772 34.0823 111.85 34.0849 111.952 34.086C112.156 34.0883 112.457 34.0834 112.831 34.0537C113.58 33.9941 114.618 33.8359 115.769 33.4415C118.061 32.6563 120.81 30.9322 122.623 27.1364C124.232 23.7683 123.717 19.9821 122.662 17.5846C122.248 16.6473 121.795 15.908 121.447 15.4056C121.274 15.1549 121.128 14.9631 121.026 14.8363C120.975 14.773 120.935 14.7258 120.908 14.6953C120.896 14.6805 120.886 14.6697 120.88 14.6629C120.877 14.6598 120.875 14.6569 120.874 14.6556L120.504 14.2503L128.368 7.44376L128.721 7.81981Z" fill="#010F01"/>
<path fill-rule="evenodd" clip-rule="evenodd" d="M7.06097 30.0644C11.5065 30.0644 14.7123 32.4072 14.7123 37.0934C14.7121 42.9212 10.2871 44.3784 6.51041 44.3784H0V30.0644H7.06097ZM1.73123 42.8418H6.78674C8.20373 42.8418 12.9433 42.6648 12.9434 37.0339C12.9434 32.8404 9.9724 31.5999 7.06202 31.5999H1.73123V42.8418Z" fill="#010F01"/>
<path d="M19.0215 44.3784H17.4284V34.0808H19.0215V44.3784Z" fill="#010F01"/>
<path d="M51.9765 35.5767C53.0586 34.6312 54.4756 33.7654 56.3046 33.7654C57.5831 33.7654 60.5531 34.0608 60.5531 37.5844V44.3774H58.96V37.8998C58.9997 35.4586 57.2289 35.1244 56.1078 35.1244C54.3579 35.1244 52.9019 36.2063 51.9776 37.1916V44.3784H50.3835V30.0644H51.9765V35.5767Z" fill="#010F01"/>
<path d="M83.3029 33.7664C83.6569 33.7664 83.9517 33.7853 84.247 33.8447V35.4388C84.0509 35.4192 83.6579 35.302 82.969 35.302C80.7073 35.302 79.0752 37.9181 79.0146 38.2153V44.3784H77.4216V34.0808H79.0146V36.2264C79.9389 35.1832 81.2375 33.7665 83.3029 33.7664Z" fill="#010F01"/>
<path d="M99.5528 33.7654C100.497 33.7654 103.33 33.9617 103.33 36.9346V44.3774H101.737V37.5259C101.737 36.8956 101.737 35.1236 99.4753 35.1233C97.6855 35.1233 96.3666 36.3043 95.6978 36.9346V44.3774H94.1048V37.5259C94.1048 36.8956 94.1047 35.1233 91.8826 35.1233C90.0542 35.1235 88.7356 36.3043 88.0675 36.9346V44.3774H86.4744L86.4733 34.0808H88.0067V35.5171C89.1872 34.513 90.4062 33.7655 92.0983 33.7654C94.3406 33.7654 94.9506 34.8481 95.3639 35.5965C96.9772 34.2381 98.0387 33.7654 99.5528 33.7654Z" fill="#010F01"/>
<path d="M19.1199 31.8945H17.2913V30.0644H19.1199V31.8945Z" fill="#010F01"/>
<path d="M90.7585 17.8865L100.446 19.655L100.366 20.169L100.365 20.1721C100.365 20.1742 100.365 20.1774 100.364 20.1815C100.363 20.1903 100.36 20.2036 100.358 20.2212C100.353 20.2566 100.346 20.3092 100.337 20.3758C100.319 20.5091 100.295 20.6986 100.272 20.9221C100.237 21.2599 100.205 21.668 100.195 22.0722L100.193 22.4723C100.202 22.9999 100.255 23.4898 100.305 23.848C100.331 24.0266 100.355 24.172 100.373 24.2711C100.382 24.3201 100.389 24.3579 100.394 24.3828C100.397 24.3954 100.398 24.4052 100.4 24.411C100.4 24.414 100.401 24.4161 100.402 24.4173L100.517 24.9532L90.321 26.8836L90.1619 26.4626L90.1608 26.4605V26.4584C90.1602 26.4567 90.1595 26.4543 90.1587 26.4522C90.1572 26.4479 90.1545 26.4425 90.1525 26.4365C90.1483 26.4245 90.1438 26.4086 90.1378 26.3895C90.1258 26.3507 90.1097 26.2965 90.0918 26.2255C90.0559 26.0833 90.0102 25.8719 89.9641 25.5758C89.8948 25.1315 89.8237 24.494 89.7819 23.6088L89.7516 22.6384C89.7268 21.2201 89.8217 20.138 89.9253 19.4043C89.9771 19.0375 90.0312 18.7574 90.0729 18.5666C90.0937 18.4713 90.1122 18.398 90.1252 18.3472C90.1317 18.3219 90.137 18.3018 90.1409 18.2877C90.1428 18.2808 90.1439 18.2751 90.1451 18.2709C90.1457 18.2689 90.1468 18.2671 90.1472 18.2657V18.2636L90.1483 18.2626L90.2843 17.8009L90.7585 17.8865Z" fill="#010F01"/>
<path d="M103.292 14.2608L102.957 14.6661L102.952 14.6713C102.949 14.6755 102.944 14.6823 102.937 14.6911C102.922 14.7093 102.9 14.7369 102.871 14.7737C102.813 14.8472 102.73 14.9571 102.627 15.0975C102.472 15.3085 102.274 15.5887 102.059 15.9217L101.838 16.2716C101.549 16.7422 101.304 17.2695 101.13 17.686C101.044 17.8926 100.976 18.0688 100.93 18.1926C100.907 18.2545 100.889 18.303 100.878 18.3357C100.872 18.352 100.868 18.3643 100.865 18.3723C100.864 18.376 100.863 18.3788 100.862 18.3806L100.861 18.3827L100.688 18.8977L90.9082 15.4526L91.0505 14.9669V14.9638C91.0509 14.9625 91.052 14.9606 91.0526 14.9585C91.0539 14.9543 91.0556 14.9483 91.0578 14.9408C91.0625 14.9254 91.0699 14.9034 91.0788 14.875C91.0966 14.8176 91.1224 14.7342 91.1573 14.6295C91.227 14.4202 91.3315 14.1234 91.4692 13.7677C91.7097 13.1463 92.0553 12.3397 92.5065 11.5083L92.7064 11.151C93.2523 10.2014 93.8292 9.39 94.2691 8.81635C94.4894 8.52903 94.6767 8.30038 94.8092 8.14259C94.8754 8.06373 94.9275 8.00178 94.9641 7.95978C94.9823 7.93885 94.9971 7.92292 95.007 7.91173C95.0118 7.90632 95.0158 7.90225 95.0185 7.8992C95.0199 7.89767 95.0209 7.89592 95.0217 7.89502L95.0238 7.89293L95.3723 7.50539L103.292 14.2608Z" fill="#010F01"/>
<path d="M108.291 10.4637L108.464 10.9536L107.979 11.1406L107.977 11.1416C107.975 11.1423 107.972 11.1435 107.969 11.1447C107.962 11.1476 107.95 11.1514 107.936 11.1573C107.906 11.1691 107.862 11.1873 107.806 11.2106C107.693 11.2571 107.531 11.3255 107.338 11.4122C106.951 11.5861 106.443 11.8301 105.952 12.1152C105.465 12.3984 105.052 12.6956 104.76 12.9216C104.615 13.0342 104.501 13.1289 104.424 13.1942C104.386 13.2269 104.356 13.2517 104.337 13.2684C104.328 13.2768 104.321 13.2833 104.316 13.2872L104.312 13.2914L103.904 13.6653L97.0962 5.75779L97.4772 5.40785L97.4824 5.40262C97.4857 5.39965 97.4902 5.3954 97.496 5.39009C97.5081 5.37918 97.5258 5.36321 97.5484 5.34308C97.5935 5.30284 97.6591 5.24501 97.7431 5.17281C97.9111 5.02823 98.1536 4.82633 98.4517 4.59202C99.0461 4.12476 99.8717 3.52405 100.787 3.00529C101.798 2.43245 102.718 2.00338 103.386 1.71731C103.72 1.57416 103.992 1.4668 104.181 1.39453C104.276 1.3584 104.35 1.33049 104.401 1.31201C104.426 1.30285 104.446 1.29594 104.46 1.29111C104.467 1.28869 104.473 1.28721 104.476 1.28589C104.478 1.28529 104.48 1.28416 104.481 1.2838H104.483L104.986 1.1104L108.291 10.4637Z" fill="#010F01"/>
<path d="M119.283 1.29216L119.285 1.2932C119.286 1.29356 119.287 1.29367 119.289 1.29425C119.293 1.29559 119.299 1.29805 119.306 1.30052C119.32 1.30556 119.342 1.31283 119.369 1.32245C119.423 1.34171 119.501 1.37002 119.6 1.40706C119.798 1.48133 120.081 1.59133 120.42 1.73298C121.095 2.01565 122 2.42928 122.913 2.95201C123.83 3.47738 124.67 4.08068 125.277 4.54919C125.581 4.78392 125.829 4.9866 126.002 5.13103C126.088 5.2033 126.156 5.2612 126.203 5.3013C126.226 5.32123 126.244 5.33649 126.256 5.34726C126.262 5.35247 126.266 5.35687 126.27 5.3598L126.275 5.36502L126.665 5.71182L120.297 13.2318L119.937 13.658L119.526 13.2809L119.525 13.2799C119.524 13.2789 119.522 13.2777 119.519 13.2757C119.514 13.271 119.505 13.2636 119.494 13.2538C119.472 13.2341 119.439 13.2045 119.395 13.1671C119.307 13.0921 119.179 12.9852 119.021 12.862C118.704 12.6144 118.273 12.3059 117.807 12.0483C117.323 11.7811 116.825 11.554 116.446 11.3934C116.258 11.3134 116.1 11.2501 115.99 11.2074C115.935 11.1861 115.892 11.1701 115.863 11.1594C115.849 11.154 115.838 11.1505 115.831 11.1479C115.828 11.1466 115.825 11.1453 115.824 11.1447L115.821 11.1437L115.323 10.964L118.779 1.12085L119.283 1.29216Z" fill="#010F01"/>
<path d="M111.919 0C113.018 1.19507e-05 114.018 0.0946441 114.743 0.189071C115.107 0.236363 115.402 0.28386 115.608 0.319645C115.711 0.337519 115.791 0.352851 115.847 0.363518C115.874 0.368807 115.896 0.37307 115.91 0.376053C115.918 0.377545 115.924 0.378348 115.928 0.379187C115.93 0.379606 115.932 0.379984 115.933 0.380231L116.446 0.487824L114.667 10.238L114.571 10.7687L114.04 10.6684C114.039 10.6681 114.035 10.6669 114.032 10.6663C114.025 10.6651 114.014 10.6636 113.999 10.6611C113.97 10.656 113.926 10.6482 113.869 10.6392C113.756 10.6211 113.592 10.5966 113.392 10.5723C112.991 10.5234 112.451 10.4752 111.889 10.4752C111.324 10.4752 110.779 10.5175 110.375 10.5598C110.173 10.5808 110.007 10.6016 109.893 10.6172C109.836 10.625 109.791 10.6316 109.761 10.636C109.747 10.6382 109.736 10.6401 109.729 10.6412C109.725 10.6418 109.722 10.642 109.72 10.6423L109.201 10.7259L109.107 10.2119L107.305 0.474244L107.825 0.371874H107.828C107.829 0.371663 107.83 0.371162 107.832 0.37083C107.836 0.370042 107.842 0.369103 107.85 0.367696C107.865 0.364806 107.888 0.360355 107.917 0.355161C107.974 0.344776 108.058 0.329789 108.165 0.312333C108.378 0.277402 108.684 0.23111 109.057 0.184893C109.802 0.0925611 110.823 0 111.919 0Z" fill="#010F01"/>
</svg>
