<svg width="221" height="48" viewBox="0 0 221 48" fill="none" xmlns="http://www.w3.org/2000/svg">
<path fill-rule="evenodd" clip-rule="evenodd" d="M177.731 1.41616C179.341 1.50266 180.887 1.90273 182.32 2.52341C186.638 4.48061 189.666 8.77659 189.784 13.7975V46.646C189.774 47.3946 189.167 47.9998 188.415 48C188.114 48 187.84 47.8994 187.615 47.7352C181.117 42.0588 167.658 29.3201 164.384 24.515C161.716 20.6022 160.891 15.9452 161.958 12.0705C163.601 5.70766 169.761 0.99417 177.731 1.41616ZM184.565 29.1486C183.23 29.1486 182.151 30.2305 182.151 31.5617C182.151 32.8948 183.23 33.9788 184.565 33.9788C185.897 33.9788 186.977 32.8948 186.977 31.5617C186.977 30.2306 185.896 29.1487 184.565 29.1486Z" fill="#010F01"/>
<path d="M133.547 25.2442C133.955 25.2476 134.1 25.5763 133.874 25.9893L124.278 47.2909C124.053 47.6815 123.568 47.998 123.167 47.998H119.992C119.581 47.9978 119.411 47.6559 119.62 47.2478L123.127 39.5071L116.559 25.9984C116.322 25.5832 116.476 25.2442 116.888 25.2442L120.3 25.2472C120.715 25.2474 121.242 25.5829 121.475 25.9924L125.482 34.7972L129.182 25.9914C129.415 25.5831 129.942 25.2476 130.352 25.2442H133.547Z" fill="#010F01"/>
<path d="M193.876 43.242C195.017 43.242 195.943 44.1683 195.943 45.3111C195.943 46.454 195.017 47.3792 193.876 47.3792C192.731 47.3792 191.806 46.454 191.806 45.3111C191.806 44.1683 192.731 43.242 193.876 43.242Z" fill="#010F01"/>
<path d="M145.566 24.7487C149.623 24.7487 151.327 27.0016 151.825 28.7444C151.894 29.1125 151.688 29.4908 151.317 29.605L148.944 30.1375C148.557 30.248 148.227 30.0113 148.112 29.631L148.107 29.6361C147.789 28.8494 147.056 28.0977 145.6 28.0975C144.442 28.0975 143.512 28.7925 143.512 29.7193C143.513 30.5179 144.108 31.0155 145.005 31.1816L147.326 31.6801C150.544 32.3423 152.168 34.3051 152.168 36.6928C152.168 39.3432 150.112 42.0624 145.83 42.0626C141.516 42.0626 139.688 39.6061 139.176 37.7509C139.1 37.3722 139.318 36.9867 139.693 36.8793L142.467 36.2685C142.643 36.2482 142.81 36.3503 142.86 36.5243L142.865 36.5213C143.092 37.6848 144.041 38.6805 145.796 38.6806C147.256 38.6806 147.956 37.9168 147.956 37.0559C147.956 36.3262 147.455 35.7264 146.2 35.4652L144.038 34.9637C140.887 34.2703 139.463 32.3762 139.463 30.0904C139.463 27.1722 142.049 24.7489 145.566 24.7487Z" fill="#010F01"/>
<path fill-rule="evenodd" clip-rule="evenodd" d="M67.1934 24.7467C72.2376 24.7467 75.2576 27.9626 75.2576 33.2015C75.2576 33.4193 75.2484 33.6254 75.2386 33.8224C75.235 34.2302 74.9028 34.5653 74.4933 34.5655H63.5119C63.6105 36.7214 65.4366 38.2792 67.6255 38.2794C69.4344 38.2794 70.5246 37.4823 71.123 36.2996C71.3339 36.0101 71.6398 35.9033 71.9113 35.9606L74.2803 36.6647C74.6315 36.7633 74.8389 37.0991 74.8095 37.45C73.8151 40.0071 71.3335 42.0595 67.5915 42.0596C63.1144 42.0596 59.1681 38.8429 59.1681 33.3359C59.1683 28.1284 63.0139 24.7469 67.1934 24.7467ZM67.2614 28.3272C64.9738 28.3274 63.7149 30.0509 63.6129 31.5447H70.9119C70.8479 29.9194 69.7843 28.3272 67.2614 28.3272Z" fill="#010F01"/>
<path fill-rule="evenodd" clip-rule="evenodd" d="M93.7762 17.5445C94.1909 17.5445 94.5304 17.8833 94.5305 18.3018L94.5445 40.8731C94.4994 41.2482 94.1883 41.542 93.8012 41.542L93.8112 41.5621H90.789C90.6249 41.5498 90.4811 41.4409 90.4188 41.3043C90.3791 41.0519 90.3443 40.7174 90.3198 40.3425C90.31 40.159 90.3048 39.9583 90.3048 39.7217L90.3008 39.7367C90.3008 39.7153 90.2968 39.6958 90.2968 39.6715C89.5669 40.9647 87.9082 41.9603 85.7209 41.9603C81.0728 41.9601 77.7597 38.3097 77.7597 33.37C77.7599 28.593 80.9762 24.8431 85.5879 24.843C88.4081 24.843 89.7335 26.0044 90.1987 26.8689V26.6001L90.1787 26.6031V18.3018C90.1788 18.2653 90.1952 18.2395 90.1987 18.2055C90.2489 17.8406 90.5528 17.5447 90.933 17.5445H93.7762ZM86.2531 28.7856C83.9948 28.7856 82.2015 30.4475 82.2015 33.366C82.2016 36.2826 83.9257 38.0086 86.2531 38.0087C88.5064 38.0087 90.2648 36.2824 90.2648 33.3309C90.2647 30.4124 88.5063 28.7856 86.2531 28.7856Z" fill="#010F01"/>
<path fill-rule="evenodd" clip-rule="evenodd" d="M113.408 17.5445C113.825 17.5445 114.163 17.8833 114.163 18.3018V25.6624L114.18 40.868C114.141 41.2434 113.827 41.542 113.44 41.542L113.45 41.5621H110.429C110.263 41.5498 110.117 41.4409 110.058 41.3043C110.018 41.0519 109.981 40.7174 109.957 40.3425C109.946 40.159 109.942 39.9583 109.942 39.7217L109.933 39.7367V39.6715C109.201 40.9648 107.542 41.9603 105.355 41.9603C100.708 41.9602 97.3917 38.3098 97.3917 33.37C97.3919 28.593 100.61 24.8431 105.22 24.843C108.04 24.843 109.366 26.0044 109.832 26.8689V26.6001L109.813 26.6031V18.3018C109.813 18.2653 109.828 18.2395 109.832 18.2055C109.882 17.8405 110.187 17.5445 110.569 17.5445H113.408ZM105.89 28.7856C103.63 28.7856 101.842 30.4474 101.842 33.366C101.843 36.2827 103.566 38.0086 105.89 38.0087C108.145 38.0087 109.902 36.2824 109.902 33.3309C109.902 30.4124 108.145 28.7856 105.89 28.7856Z" fill="#010F01"/>
<path d="M33.6697 35.757C35.3626 35.757 36.7238 37.1172 36.724 38.7769C36.724 40.4333 35.3627 41.7958 33.6697 41.7958C32.0097 41.7956 30.6525 40.4332 30.6525 38.7769C30.6526 37.1173 32.0098 35.7572 33.6697 35.757Z" fill="#010F01"/>
<path d="M199.869 29.6431C203.176 29.6431 205.865 32.3241 205.865 35.6367C205.865 38.9426 203.176 41.6263 199.869 41.6263C196.553 41.6261 193.871 38.9425 193.871 35.6367C193.871 32.3242 196.553 29.6433 199.869 29.6431Z" fill="#010F01"/>
<path fill-rule="evenodd" clip-rule="evenodd" d="M7.07988 18.043C13.7858 18.0431 18.6986 22.3911 18.6986 29.8206C18.6986 37.2555 13.7512 41.5661 7.04687 41.5661H0.755308L0.605246 41.5511C0.263543 41.4809 0 41.1765 0 40.8119V18.7962C7.45427e-05 18.3846 0.343756 18.0432 0.755308 18.043H7.07988ZM4.57686 37.3246H6.8808C10.7335 37.3246 13.9517 34.9333 13.9517 29.8206C13.9516 24.7148 10.7644 22.2925 6.91682 22.2925H4.57686V37.3246Z" fill="#010F01"/>
<path fill-rule="evenodd" clip-rule="evenodd" d="M50.6396 18.045C55.2205 18.045 58.1397 21.1935 58.1397 25.2793C58.1395 28.5607 56.2117 31.0487 53.1286 31.9408L57.7765 40.8129C57.987 41.2242 57.8167 41.5638 57.4054 41.5641H53.8319C53.417 41.5639 52.9052 41.2292 52.6925 40.8129L48.4487 32.5075H46.0608V40.8129C46.0605 41.2242 45.7215 41.5641 45.3064 41.5641H42.2042C41.7876 41.5639 41.4491 41.2292 41.4489 40.8129V18.7982C41.449 18.3871 41.7877 18.0452 42.2042 18.045H50.6396ZM46.0608 28.5609H49.7793C52.1013 28.5607 53.4607 27.236 53.4608 25.3083C53.4608 23.3166 52.1014 22.0229 49.7793 22.0227H46.0608V28.5609Z" fill="#010F01"/>
<path d="M30.4854 25.1108C30.8519 25.1108 31.1801 25.1397 31.5138 25.1739V29.617C31.0161 29.5152 30.5842 29.4856 30.1883 29.4856C27.9334 29.4856 25.9737 30.5802 25.9736 34.0952V40.7968C25.9736 41.212 25.631 41.5511 25.2193 41.5511L25.2143 41.5611H22.3151C21.9018 41.5611 21.5657 41.2216 21.5608 40.8119V25.9733C21.573 25.5704 21.9088 25.2421 22.3151 25.2421H25.1352C25.5258 25.2664 25.8395 25.5899 25.8395 25.9893V27.6633C26.8373 25.5073 29.0933 25.1108 30.4854 25.1108Z" fill="#010F01"/>
<path d="M211.276 15.0653C215.68 15.0653 219.245 18.6291 219.245 23.0347C219.245 27.4298 215.68 30.993 211.276 30.993C206.882 30.9928 203.315 27.4296 203.315 23.0347C203.315 18.6292 206.882 15.0654 211.276 15.0653Z" fill="#010F01"/>
<path d="M196.583 17.4793C199.094 17.4795 201.129 19.5145 201.129 22.0267C201.129 24.5369 199.094 26.5719 196.583 26.5721C194.074 26.5721 192.038 24.537 192.038 22.0267C192.038 19.5144 194.074 17.4793 196.583 17.4793Z" fill="#010F01"/>
<path d="M138.248 17.3269C139.756 17.3269 140.966 18.5392 140.966 20.0158C140.966 20.3511 140.898 20.6692 140.783 20.9666C140.783 20.9714 140.78 20.9719 140.778 20.9736C140.763 21.0166 140.748 21.0619 140.728 21.101L138.263 26.0084C138.184 26.1447 138.015 26.2551 137.873 26.2551H136.401L136.402 26.2501C136.249 26.2499 136.127 26.1271 136.127 25.9753C136.127 25.9504 136.132 25.9305 136.136 25.9061L137.608 22.6174C136.438 22.3269 135.559 21.2709 135.559 20.0158C135.559 18.5392 136.771 17.3269 138.248 17.3269Z" fill="#010F01"/>
<path d="M200.834 0C205.064 0 208.493 3.42348 208.493 7.64746C208.493 11.8732 205.064 15.2949 200.834 15.2949C196.616 15.2948 193.191 11.8731 193.191 7.64746C193.191 3.42358 196.616 0.000164238 200.834 0Z" fill="#010F01"/>
<path d="M216.82 5.25644C219.127 5.25658 221 7.12606 221 9.43772C221 11.7422 219.127 13.6149 216.82 13.615C214.514 13.615 212.639 11.7423 212.639 9.43772C212.639 7.12597 214.513 5.25644 216.82 5.25644Z" fill="#010F01"/>
</svg>
