<svg width="112" height="48" viewBox="0 0 112 48" fill="none" xmlns="http://www.w3.org/2000/svg">
<path fill-rule="evenodd" clip-rule="evenodd" d="M87.2482 34.4324C92.2416 34.4324 96.2893 37.4694 96.2896 41.2157C96.2896 44.9623 92.2418 48 87.2482 48C82.2547 48 78.2069 44.9623 78.2069 41.2157C78.2072 37.4694 82.2549 34.4324 87.2482 34.4324ZM86.1941 36.5796C86.0693 36.5829 85.9503 36.6353 85.8631 36.7254C85.7761 36.8155 85.7274 36.9365 85.7274 37.0623V39.73H82.827C82.7641 39.73 82.7013 39.7426 82.6432 39.7669C82.5852 39.7911 82.533 39.8272 82.4885 39.8719C82.4441 39.9167 82.408 39.9695 82.3839 40.0281C82.3599 40.0865 82.3481 40.1494 82.3481 40.2126V42.2207C82.3482 42.3486 82.3988 42.471 82.4885 42.5614C82.5784 42.6519 82.7 42.7034 82.827 42.7034H85.7773V45.3711C85.7774 45.4956 85.8267 45.6152 85.9141 45.7032C86.0015 45.7913 86.1204 45.8404 86.2441 45.8405H88.2364C88.2987 45.8422 88.3612 45.8312 88.4193 45.8083C88.4772 45.7854 88.5303 45.7517 88.5749 45.708C88.6196 45.6642 88.6553 45.6116 88.6796 45.5537C88.7037 45.4959 88.7163 45.4338 88.7163 45.3711V42.7034H91.6666C91.729 42.7034 91.7912 42.6909 91.8486 42.6665C91.906 42.642 91.9579 42.6054 92.0013 42.5605C92.0446 42.5156 92.0786 42.4626 92.1013 42.4043C92.1239 42.346 92.135 42.2834 92.1333 42.2207V40.2126C92.135 40.15 92.1239 40.0874 92.1013 40.029C92.0786 39.9708 92.0446 39.9177 92.0013 39.8729C91.9579 39.8279 91.906 39.7913 91.8486 39.7669C91.7912 39.7425 91.729 39.73 91.6666 39.73H88.7163V37.0623C88.7162 36.9345 88.6655 36.812 88.5758 36.7216C88.486 36.6311 88.3635 36.5796 88.2364 36.5796H86.1941Z" fill="#010F01"/>
<path d="M38.6678 19.1406C38.8557 19.1724 39.0339 19.2476 39.1874 19.3611C39.3409 19.4747 39.4662 19.6235 39.5523 19.7945C39.6381 19.9653 39.6833 20.1539 39.6833 20.3453C39.6833 20.5369 39.6383 20.7269 39.5523 20.8979C39.4663 21.0687 39.3407 21.2168 39.1874 21.3304C39.034 21.4438 38.8557 21.52 38.6678 21.5518C38.4798 21.5836 38.2861 21.5708 38.104 21.514H35.7543V19.1775H38.104C38.2861 19.1206 38.4797 19.1088 38.6678 19.1406Z" fill="#010F01"/>
<path d="M27.7935 23.7511H25.2977L26.515 19.4349H26.5762L27.7935 23.7511Z" fill="#010F01"/>
<path d="M72.9578 23.7511H70.5233L71.7415 19.4349L72.9578 23.7511Z" fill="#010F01"/>
<path fill-rule="evenodd" clip-rule="evenodd" d="M56 0C86.6294 1.00226e-06 112 9.30795 112 23.2751C112 29.8549 106.375 35.3949 97.1844 39.4186C96.1007 36.0189 92.1441 33.5116 87.4453 33.5116C81.8698 33.5116 77.3292 37.071 77.3291 41.4372C77.3374 42.6145 77.6602 43.7686 78.2654 44.7768C70.9038 45.9699 63.4567 46.5497 56 46.5124C25.456 46.5124 0.000504619 37.2422 0 23.2751C0.00031861 9.30795 25.4558 0 56 0ZM11.4806 16.9271C11.3409 16.9303 11.2069 16.9886 11.1091 17.0889C11.0116 17.1893 10.9565 17.3244 10.9564 17.4646V27.6529C10.9564 27.7956 11.0134 27.9333 11.1138 28.0342C11.2141 28.1349 11.3502 28.1912 11.4919 28.1913H13.0873C13.2292 28.1912 13.3659 28.1351 13.4663 28.0342C13.5667 27.9333 13.6219 27.7955 13.6219 27.6529V23.7398H17.385V27.6529C17.385 27.7955 17.4402 27.9333 17.5405 28.0342C17.6409 28.135 17.7777 28.1912 17.9196 28.1913H19.515C19.6567 28.1912 19.7927 28.1348 19.893 28.0342C19.9935 27.9333 20.0505 27.7956 20.0505 27.6529V17.4646C20.0506 17.3912 20.0361 17.3182 20.0071 17.2507C19.978 17.1831 19.9343 17.1214 19.8808 17.0709C19.8272 17.0207 19.7631 16.9821 19.6941 16.9574C19.6252 16.9328 19.5521 16.9222 19.4791 16.9271H17.9073C17.7654 16.9272 17.6296 16.9843 17.5292 17.0851C17.429 17.1859 17.372 17.3222 17.3718 17.4646V21.5376H13.6106V17.4646C13.6104 17.3223 13.5533 17.1858 13.4531 17.0851C13.3527 16.9844 13.216 16.9271 13.0741 16.9271H11.4806ZM33.6243 16.9025C33.5531 16.9025 33.4816 16.9164 33.4159 16.9441C33.3503 16.9719 33.2914 17.0141 33.2415 17.0653C33.1918 17.1164 33.1517 17.1767 33.1255 17.2432C33.0994 17.3098 33.0872 17.3817 33.0888 17.4533V27.6529C33.0888 27.7234 33.1025 27.7939 33.1293 27.8592C33.1562 27.9244 33.1965 27.9843 33.2462 28.0342C33.2957 28.0839 33.3542 28.1237 33.4188 28.1506C33.4836 28.1776 33.5541 28.1913 33.6243 28.1913H35.2065C35.3485 28.1913 35.4851 28.135 35.5855 28.0342C35.686 27.9333 35.743 27.7956 35.743 27.6529V23.7511H36.9603L39.2241 27.421C39.3647 27.6441 39.5592 27.8284 39.7889 27.9566C40.0186 28.0847 40.2768 28.1524 40.5395 28.1544H42.2319C42.2814 28.1549 42.33 28.1412 42.3724 28.1156C42.4148 28.0899 42.4497 28.0529 42.4724 28.0087C42.495 27.9644 42.5045 27.9144 42.5007 27.8648C42.4967 27.8152 42.48 27.7669 42.4507 27.7267L39.5532 23.5798C40.2365 23.3544 40.8314 22.9172 41.2513 22.3307C41.6711 21.744 41.8954 21.0384 41.8906 20.3159C41.8906 19.4109 41.5319 18.5418 40.8949 17.9018C40.2581 17.2623 39.3947 16.9026 38.4943 16.9025H33.6243ZM43.4605 16.9271C43.3186 16.9272 43.1819 16.9843 43.0815 17.0851C42.9815 17.1858 42.9261 17.3224 42.9259 17.4646V18.8103C42.9291 18.9509 42.987 19.0858 43.0872 19.1841C43.1871 19.2819 43.321 19.3374 43.4605 19.3374H45.5311V27.6529C45.5311 27.7235 45.5448 27.7939 45.5717 27.8592C45.5985 27.9243 45.6371 27.9843 45.6867 28.0342C45.7364 28.0842 45.7962 28.1236 45.8611 28.1506C45.926 28.1776 45.9955 28.1913 46.0657 28.1913H47.6488C47.7908 28.1913 47.9275 28.135 48.0279 28.0342C48.1282 27.9333 48.1844 27.7955 48.1844 27.6529V19.2873H50.254C50.3939 19.2872 50.5283 19.2321 50.6284 19.1339C50.7282 19.0357 50.7864 18.9024 50.7896 18.762V17.4646C50.7894 17.3224 50.7331 17.1858 50.6331 17.0851C50.5327 16.9843 50.396 16.9271 50.254 16.9271H43.4605ZM64.7896 16.9271H62.5738C62.2959 16.9271 62.024 17.0115 61.794 17.1684C61.5641 17.3254 61.3864 17.5485 61.2839 17.8081L58.8485 24.1183L56.3046 17.7958C56.2017 17.5378 56.0233 17.3167 55.7935 17.1618C55.5633 17.0069 55.2908 16.9244 55.0137 16.9271H52.847C52.705 16.9271 52.5684 16.9843 52.4679 17.0851C52.3679 17.1858 52.3116 17.3223 52.3114 17.4646V27.6529C52.3114 27.7955 52.3676 27.9333 52.4679 28.0342C52.5684 28.135 52.705 28.1913 52.847 28.1913H54.4301C54.572 28.1912 54.7088 28.135 54.8091 28.0342C54.9094 27.9333 54.9647 27.7954 54.9647 27.6529V20.2052H55.1363L57.4115 25.5738C57.4982 25.7747 57.6412 25.9472 57.8226 26.0687C58.004 26.1902 58.2175 26.2567 58.4355 26.2598H59.2992C59.517 26.2567 59.7298 26.19 59.9111 26.0687C60.0924 25.9472 60.2346 25.7746 60.3213 25.5738L62.5983 20.2052H62.768V27.6529C62.768 27.7956 62.8251 27.9333 62.9255 28.0342C63.0259 28.1351 63.1626 28.1913 63.3046 28.1913H64.8754C65.0171 28.1912 65.1532 28.1348 65.2535 28.0342C65.3538 27.9333 65.41 27.7955 65.41 27.6529V17.4646C65.4109 17.3867 65.3955 17.3095 65.3638 17.2384C65.3317 17.1669 65.2834 17.1023 65.2243 17.0511C65.1652 17 65.0956 16.9617 65.0206 16.9403C64.9456 16.9191 64.8665 16.9147 64.7896 16.9271ZM88.2722 16.9271H86.6787C86.5368 16.9271 86.4001 16.9844 86.2997 17.0851C86.1996 17.1858 86.1434 17.3223 86.1432 17.4646V24.6208H86.0338L81.8823 17.7466C81.7306 17.4972 81.5173 17.291 81.2637 17.1476C81.0102 17.0042 80.724 16.9281 80.4331 16.9271H78.7293C78.5896 16.9303 78.4565 16.9887 78.3587 17.0889C78.2611 17.1893 78.2052 17.3243 78.205 17.4646V27.6529C78.205 27.7935 78.2609 27.9289 78.3587 28.0295C78.4565 28.1299 78.5895 28.1881 78.7293 28.1913H80.3227C80.4646 28.1913 80.6014 28.1349 80.7018 28.0342C80.8022 27.9333 80.8592 27.7956 80.8592 27.6529V20.3159H80.9686L85.1324 27.3595C85.2828 27.6138 85.4966 27.825 85.7528 27.9708C86.0089 28.1166 86.2986 28.1923 86.5929 28.1913H88.2722C88.4141 28.1913 88.5508 28.1349 88.6513 28.0342C88.7517 27.9333 88.8087 27.7956 88.8087 27.6529V17.4646H88.8691C88.8694 17.3888 88.8543 17.3134 88.8238 17.2441C88.7932 17.1748 88.7479 17.1122 88.6918 17.0615C88.6356 17.0109 88.5685 16.9729 88.4966 16.9498C88.4246 16.9268 88.3474 16.9185 88.2722 16.9271ZM90.9632 16.9271C90.8213 16.9272 90.6846 16.9843 90.5842 17.0851C90.4842 17.1858 90.4288 17.3224 90.4286 17.4646V27.6529C90.4286 27.7955 90.4838 27.9333 90.5842 28.0342C90.6846 28.1351 90.8213 28.1912 90.9632 28.1913H92.5576C92.6996 28.1913 92.8363 28.135 92.9367 28.0342C93.0371 27.9333 93.0942 27.7956 93.0942 27.6529V20.3159H93.2035L97.3551 27.3595C97.5073 27.6121 97.7216 27.8224 97.9774 27.968C98.233 28.1134 98.5219 28.1899 98.8156 28.1913H100.508C100.648 28.188 100.781 28.13 100.879 28.0295C100.976 27.9289 101.031 27.7934 101.031 27.6529V17.4646H101.044C101.043 17.3222 100.986 17.1859 100.886 17.0851C100.786 16.9844 100.65 16.9272 100.508 16.9271H98.9127C98.7708 16.9272 98.634 16.9843 98.5337 17.0851C98.4337 17.1858 98.3783 17.3224 98.3781 17.4646V24.6208H98.2678L94.1162 17.7466C93.9646 17.4973 93.7521 17.291 93.4986 17.1476C93.2451 17.0041 92.958 16.9281 92.667 16.9271H90.9632ZM25.6381 16.9271C25.3965 16.9371 25.1636 17.02 24.9686 17.1637C24.7735 17.3074 24.6245 17.5057 24.5424 17.7343L21.4139 27.6529C21.3949 27.7128 21.3899 27.7771 21.3998 27.8393C21.4097 27.9015 21.4348 27.9604 21.4714 28.0115C21.5081 28.0626 21.5563 28.1045 21.6119 28.1336C21.6674 28.1625 21.7286 28.179 21.7911 28.18H23.1309C23.4071 28.1886 23.6783 28.1023 23.8994 27.9358C24.1207 27.7691 24.2792 27.5311 24.3482 27.262L24.7131 26.0384H28.5233L28.8891 27.262C28.9581 27.531 29.1159 27.7691 29.337 27.9358C29.5582 28.1024 29.8301 28.1887 30.1064 28.18H31.3963C31.459 28.1791 31.5208 28.1627 31.5764 28.1336C31.632 28.1045 31.6802 28.0626 31.7169 28.0115C31.7535 27.9604 31.7777 27.9014 31.7876 27.8393C31.7974 27.7771 31.7924 27.7129 31.7734 27.6529L28.5968 17.7343C28.5148 17.5057 28.3657 17.3074 28.1707 17.1637C27.9756 17.02 27.7429 16.9371 27.5012 16.9271H25.6381ZM70.8637 16.9271C70.6194 16.9265 70.3809 17.0043 70.1839 17.1495C69.9868 17.2947 69.8409 17.5 69.7681 17.7343L66.6282 27.6529C66.6089 27.7138 66.6037 27.7791 66.6141 27.8421C66.6246 27.905 66.6499 27.965 66.6876 28.0162C66.7256 28.0675 66.7757 28.1101 66.8328 28.1383C66.8898 28.1665 66.9532 28.1809 67.0167 28.18H68.3075C68.5815 28.1783 68.8483 28.0877 69.0675 27.9226C69.2865 27.7574 69.4475 27.5257 69.5257 27.262L69.8784 26.0384H73.7008L74.0535 27.262C74.1318 27.5258 74.2935 27.7574 74.5127 27.9226C74.7316 28.0874 74.9972 28.1782 75.2707 28.18H76.5616C76.6242 28.1791 76.6861 28.1626 76.7416 28.1336C76.7972 28.1045 76.8465 28.0626 76.8831 28.0115C76.9195 27.9606 76.943 27.9012 76.9529 27.8393C76.9627 27.7771 76.9586 27.7128 76.9397 27.6529L73.8102 17.7343C73.7281 17.5059 73.5799 17.3074 73.385 17.1637C73.1899 17.02 72.9563 16.937 72.7146 16.9271H70.8637Z" fill="#010F01"/>
</svg>
