<svg width="159" height="48" viewBox="0 0 159 48" fill="none" xmlns="http://www.w3.org/2000/svg">
<path d="M20.2548 16.1682H28.8629V0H49.2451V48H28.8629V30.3158H20.2548V48H0V0H20.2548V16.1682Z" fill="black"/>
<path d="M75.3227 48H54.9417V22.2311H75.3227V48Z" fill="black"/>
<path fill-rule="evenodd" clip-rule="evenodd" d="M106.084 0C106.084 0 111.418 0.0770787 116.212 2.75946V0H141.277C141.277 0 158.511 0.245731 158.989 15.2738C158.527 30.3224 141.277 30.5687 141.277 30.5687H136.594V48H116.212V27.808C111.418 30.4906 106.084 30.5687 106.084 30.5687H101.4V48H81.0194V0H106.084ZM110.389 11.3684C107.477 5.81053 101.4 10.7368 101.4 10.7368C101.35 10.698 95.1863 5.95908 92.4127 11.3684C92.4127 11.3684 91.0203 14.6524 94.4377 16.7998C94.3245 16.8055 99.1245 18.9497 101.4 20.9679C103.668 18.9565 108.319 16.82 108.363 16.7998C111.771 14.7847 110.397 11.3884 110.389 11.3684ZM145.708 11.3684C142.796 5.81085 136.72 10.7368 136.72 10.7368C136.72 10.7368 130.517 5.81053 127.605 11.3684C127.597 11.3881 126.224 14.6589 129.631 16.7998C129.676 16.8195 134.452 18.9563 136.72 20.9679C138.999 18.9469 143.683 16.7998 143.683 16.7998C147.101 14.7787 145.708 11.3684 145.708 11.3684Z" fill="black"/>
<path d="M55.4474 10.484C58.4784 4.56146 65.1634 9.8272 65.1953 9.85238C65.2284 9.82641 71.7863 4.68916 74.9432 10.611C74.9653 10.6592 76.5624 14.163 72.7908 16.4211C72.7908 16.4211 67.6006 18.8206 65.1953 20.9679C62.793 18.6972 57.6129 16.4268 57.5997 16.2952C53.9285 14.1479 55.4474 10.484 55.4474 10.484Z" fill="black"/>
<path d="M159 15.9153C159 15.6985 158.996 15.4848 158.989 15.2738C158.995 15.0695 159 14.862 159 14.6521V15.9153Z" fill="black"/>
</svg>
