<svg width="212" height="48" viewBox="0 0 212 48" fill="none" xmlns="http://www.w3.org/2000/svg">
<path fill-rule="evenodd" clip-rule="evenodd" d="M21.435 0.834023C16.2663 3.06975 15.2461 6.00592 15.2461 18.6478C15.2461 23.695 15.1585 27.8245 15.0512 27.8245C14.9439 27.8245 14.0233 27.4769 13.0047 27.052C6.05614 24.1529 -1.56342 30.7313 0.279324 38.039C1.05758 41.1271 2.34384 42.8345 5.31244 44.721C12.8093 49.486 23.874 48.8119 29.7307 43.2336C30.7478 42.2654 31.7932 41.0813 32.0541 40.6028C32.4817 39.82 32.9108 39.9225 36.3642 41.6329C40.0873 43.4772 40.3663 43.5328 45.9028 43.5328C51.0747 43.5328 51.8942 43.3979 54.6988 42.0866C56.3997 41.2914 58.3121 40.1527 58.9475 39.5563L60.1038 38.4717L63.0982 41.3244C68.1137 46.1018 73.2975 48.0594 80.7731 47.9986C87.4509 47.9446 93.1267 45.6805 97.8632 41.1807L100.019 39.133L101.858 40.916C104.042 43.0348 105.847 43.7903 108.724 43.7903C111.296 43.7903 115.055 42.0666 116.162 40.3798L116.971 39.1469L118.999 40.9768C120.114 41.9831 121.61 43.0276 122.323 43.2985C124.426 44.0968 127.83 43.864 129.968 42.7757L131.961 41.7611L133.676 43.2655C138.05 47.1004 145.766 45.4935 148.075 40.2665L148.953 38.2816L151.447 39.958C155.441 42.6418 158.504 43.4283 163.962 43.1713C167.759 42.9921 169.193 42.6846 171.316 41.5943L173.953 40.2392L175.442 41.7967C177.28 43.7193 183.175 46.5736 187.04 47.413C191.267 48.3308 199.024 47.8585 202.056 46.4989C205.754 44.8415 209.444 41.1132 210.781 37.6837C213.055 31.8531 212.079 24.9599 208.424 21.0457C207.294 19.8349 207.236 19.5985 207.934 19.0201C211.138 16.3657 211.604 9.78416 208.834 6.32987C204.702 1.17703 193.789 -1.44703 185.921 0.820632C182.235 1.88262 178.242 4.6308 176.658 7.1946C175.222 9.51737 174.643 9.71205 173.364 8.30088C171.907 6.69348 167.368 5.03201 163.708 4.76677C159.373 4.45209 155.848 5.29467 152.12 7.53607C150.505 8.50689 149.143 9.23926 149.093 9.16355C149.042 9.08784 148.7 8.27152 148.333 7.34963C146.921 3.80779 141.961 1.07454 138.336 1.84039C135.728 2.39095 132.87 4.21311 131.734 6.04867L130.683 7.74568L129.31 6.80215C126.678 4.99492 124.374 4.39028 120.199 4.41294C117.921 4.42479 115.554 4.72093 114.913 5.07475C114.015 5.56969 113.496 5.57742 112.619 5.10875C109.535 3.46066 102.987 5.07475 101.102 7.94706L100.298 9.17231L97.8364 6.78155C93.2004 2.27919 87.2942 0.0079191 80.2502 0.0192497C73.4439 0.0300653 68.0488 2.15816 62.8723 6.87477L60.146 9.35926L58.4261 8.04903C55.197 5.58978 51.9303 4.50771 46.9709 4.25586C43.1065 4.05912 41.8006 4.20693 39.2281 5.13038C34.3961 6.86499 34.3286 6.87941 34.3286 6.17331C34.3286 4.8878 31.5766 1.94493 29.4888 0.998315C26.9308 -0.161525 23.8807 -0.223842 21.435 0.834023ZM84.4999 4.37586C95.7306 6.75271 102.428 16.7705 100.134 27.7607C99.151 32.4654 97.578 35.1909 93.9137 38.535C89.7826 42.305 86.4313 43.5009 79.9443 43.5184C74.9726 43.5323 74.5982 43.453 70.8178 41.5871C66.4531 39.4327 63.8104 36.8241 61.9027 32.7873L60.7185 30.2822L59.9346 31.7959C59.5034 32.6287 58.178 34.1877 56.9887 35.2605C49.6425 41.8878 37.9955 40.7919 32.2976 32.9372L30.7787 30.8431L30.4208 32.8105C29.0267 40.4777 21.6578 44.9708 13.2982 43.2501C6.13402 41.7761 2.48721 37.7115 4.62496 33.5835C6.36713 30.2194 9.41877 29.5169 12.9253 31.6738C15.3085 33.1396 17.403 33.3224 18.5618 32.1657C19.2483 31.4802 19.3721 29.6647 19.3721 20.3031C19.3721 8.43067 19.6877 6.5982 22.0111 4.97329C22.6713 4.51131 24.1117 4.13328 25.2118 4.13328C26.7982 4.13328 27.5734 4.49483 28.9648 5.88438C30.7081 7.62517 30.7184 7.66328 30.7184 12.4371C30.7184 17.0708 30.7483 17.1938 31.5699 15.965C33.4307 13.1823 35.7618 11.1495 38.7124 9.73626C41.2952 8.49917 42.4458 8.25813 45.6749 8.27667C51.7204 8.31118 56.0495 10.3945 59.2105 14.7902L60.8114 17.0162L62.2663 14.3087C63.913 11.2437 67.5526 7.65967 70.5898 6.11202C72.5605 5.10823 77.8339 3.73465 79.9717 3.66822C80.539 3.6507 82.5767 3.96899 84.4999 4.37586ZM198.82 5.11441C204.679 6.93503 207.192 9.83669 206.095 13.514C204.99 17.2175 201.632 17.988 196.608 15.691C193.211 14.1382 189.433 14.0836 189.148 15.5839C188.946 16.6474 190.524 17.4066 196.821 19.2761C199.25 19.9977 202.178 21.2682 203.328 22.1C208.439 25.7974 209.15 33.9188 204.805 38.9867C200.108 44.4671 189.853 45.2031 181.34 40.6719C176.69 38.1972 175.37 34.6002 177.976 31.507C180.069 29.023 181.842 28.9483 186.079 31.1645C190.486 33.4702 194.55 34.1048 195.952 32.7054C196.754 31.904 196.771 31.7083 196.098 31.0362C195.679 30.617 193.112 29.6312 190.394 28.8448C181.69 26.3258 178.443 23.4916 177.866 17.9077C177.238 11.8309 180.919 6.45142 186.958 4.62153C189.493 3.85363 195.577 4.10599 198.82 5.11441ZM142.033 6.40713C144.042 7.44439 144.949 9.48802 144.756 12.5421C144.724 13.0597 144.019 14.1603 143.19 14.9885C139.825 18.348 134.364 16.0283 134.399 11.2546C134.416 8.87668 134.917 7.95324 136.947 6.55597C138.5 5.48729 140.159 5.43888 142.033 6.40713ZM111.153 9.01522C111.964 9.43394 112.72 10.0535 112.833 10.3914C112.97 10.8019 113.574 10.6103 114.652 9.81506C118.297 7.12405 124.796 7.98053 128.13 11.5914C130.755 14.4354 131.288 17.0156 131.288 26.8707C131.288 35.8404 130.805 37.5034 127.787 38.9331C126.119 39.7237 125.685 39.7422 123.83 39.1021C120.522 37.9597 119.943 36.2478 119.943 27.6077C119.942 19.8668 119.53 18.554 117.105 18.554C114.748 18.554 114.372 19.7932 114.185 28.1778L114.011 35.999L112.52 37.5523C110.646 39.5043 108.713 39.9482 106.362 38.9671C103.18 37.6399 102.922 36.514 102.922 23.9618C102.922 11.561 103.196 10.3028 106.179 9.0075C108.31 8.082 109.349 8.08354 111.153 9.01522ZM167.25 9.55703C170.257 10.8122 172.448 12.7512 174.079 15.6029C175.775 18.5679 176.51 22.7366 175.706 24.8317C174.822 27.137 173.404 27.5464 165.336 27.8245L157.868 28.082L159.116 29.2408C160.747 30.755 164.379 30.8158 166.757 29.3675C170.192 27.2765 174.094 28.7711 174.094 32.1775C174.094 34.3932 172.912 35.8631 169.907 37.3839C164.166 40.2887 157.176 39.4528 152.562 35.3104C149.035 32.1435 147.589 28.7577 147.605 23.7043C147.625 17.4076 150.407 12.7008 155.652 10.0906C158.808 8.52028 164.173 8.27307 167.25 9.55703ZM77.3249 14.9942C75.1608 15.6204 72.1216 19.0665 71.6852 21.3882C70.8276 25.956 72.6512 30.4197 76.1046 32.2028C78.0263 33.1952 82.4328 33.1952 84.3544 32.2028C89.4175 29.588 90.5877 21.9156 86.5964 17.5034C84.1007 14.7449 81.0444 13.9178 77.3249 14.9942ZM159.772 17.8078C159.144 18.2471 158.388 19.0582 158.093 19.6104C157.58 20.5668 157.751 20.6141 161.699 20.6141C166.304 20.6141 166.957 20.0193 164.484 18.0766C162.865 16.805 161.331 16.718 159.772 17.8078ZM43.1529 18.758C39.7732 20.628 39.7191 27.0499 43.0678 28.8391C44.9879 29.8656 48.007 29.4757 49.4728 28.012C52.0097 25.4786 51.1861 20.3582 47.9993 18.8476C45.9441 17.8737 44.7888 17.8526 43.1529 18.758ZM142.044 19.2879C144.301 20.4535 144.697 22.0366 144.697 29.8846C144.697 37.7326 144.301 39.3158 142.044 40.4813C139.374 41.86 136.143 40.9041 134.999 38.397C134.117 36.4641 134.199 22.8133 135.102 21.1858C136.455 18.7487 139.426 17.9365 142.044 19.2879ZM83.6051 20.3335C86.1771 22.9014 84.7928 28.3493 81.4018 29.0075C76.6854 29.9227 73.8416 23.8887 77.263 20.2279C78.7968 18.587 81.9083 18.6385 83.6051 20.3335Z" fill="black"/>
</svg>
