<svg width="240" height="48" viewBox="0 0 240 48" fill="none" xmlns="http://www.w3.org/2000/svg">
<path fill-rule="evenodd" clip-rule="evenodd" d="M191.492 6.18125C199.999 6.18135 203.404 10.4354 202.559 16.4359C201.91 21.047 199.213 24.1099 194.786 25.8859L199.77 35.0391C201.673 38.5356 204.883 40.7781 209.361 40.7781C212.785 40.7798 216.108 39.6293 218.792 37.5125C221.477 35.3955 223.367 32.4365 224.153 29.1156L232.088 29.1031C230.196 40.6011 220.446 47.9999 209.361 48C201.958 48 195.823 45.3343 191.227 36.6016L186.277 27.1875H181.266L179.955 36.4906H171.838L176.109 6.18125H191.492ZM182.159 20.9375H188.977C191.957 20.9375 193.934 19.5108 194.275 17.1172H194.292C194.705 14.1718 192.595 13.1562 190.002 13.1562H183.266L182.159 20.9375Z" fill="black"/>
<path d="M18.2812 5.3125C23.0766 5.3125 27.4451 6.91509 30.3188 9.19844L25.4672 14.5672C22.9184 12.8024 20.3024 11.85 17.3516 11.85C14.2646 11.8501 12.6374 12.604 12.3828 14.3063C12.1726 15.7145 12.6342 16.4467 18.4031 17.8328C26.5665 19.7927 29.7614 21.5504 28.8797 27.7609C28.4518 30.7688 25.268 37.1781 13.8328 37.1781C8.01574 37.1781 3.42685 35.3099 0 32.2359L5.16406 27.2453C8.17774 29.6537 10.8265 30.6359 14.6922 30.6359C18.3293 30.6359 20.0198 29.4738 20.2484 27.9516C20.5063 26.2164 19.0784 25.5434 14.0516 24.275C5.4455 22.1056 3.43845 19.5567 4.11719 14.7766C4.8405 9.67327 9.52471 5.31272 18.2812 5.3125Z" fill="black"/>
<path d="M59.9094 12.825H43.5344L42.7563 18.2828H57.6078L56.7656 24.1906H41.9156L41.1109 29.8687H57.7031L56.7625 36.5016H32.4125L36.7172 6.19219H60.8531L59.9094 12.825Z" fill="black"/>
<path fill-rule="evenodd" clip-rule="evenodd" d="M82.3469 6.19219C90.875 6.19224 94.2692 10.4427 93.4359 16.4469C92.794 21.0211 90.1371 24.1063 85.6625 25.8859L91.425 36.5016H82.0328L77.1375 27.1984H72.1281L70.8156 36.5016H62.7L66.9719 6.19219H82.3469ZM73.0359 20.9375H79.8719C82.8519 20.9374 84.8292 19.5105 85.1688 17.1172C85.5819 14.1719 83.4719 13.1563 80.875 13.1562H74.1422L73.0359 20.9375Z" fill="black"/>
<path d="M109.084 26.0406L119.03 6.19219H127.934L111.294 36.5016H103.647L95.6125 6.19219H104.734L109.084 26.0406Z" fill="black"/>
<path d="M135.083 36.5016H126.912L131.184 6.19219H139.358L135.083 36.5016Z" fill="black"/>
<path d="M169.239 12.825H152.859L152.084 18.2828H166.936L166.094 24.1906H151.244L150.436 29.8687H167.031L166.088 36.5016H141.738L146.045 6.19219H170.18L169.239 12.825Z" fill="black"/>
<path d="M230.523 5.46094L235.877 2.80938L234.191 8.52656L240 9.92813L235.02 13.2219L238.57 18.0219L232.625 17.3563L232.255 23.3016L228.13 18.9844L224.009 23.3016L223.633 17.3563L217.694 18.0219L221.244 13.2219L216.262 9.92813L222.072 8.52656L220.387 2.80938L225.739 5.46094L228.13 0L230.523 5.46094Z" fill="black"/>
</svg>
